<?xml version="1.0" encoding="iso-8859-1"?>
<!-- Generator: Adobe Illustrator 15.1.0, SVG Export Plug-In . SVG Version: 6.00 Build 0)  -->
<!DOCTYPE svg PUBLIC "-//W3C//DTD SVG 1.1//EN" "http://www.w3.org/Graphics/SVG/1.1/DTD/svg11.dtd">
<svg version="1.1" xmlns="http://www.w3.org/2000/svg" xmlns:xlink="http://www.w3.org/1999/xlink" x="0px" y="0px" width="590px"
	 height="590px" viewBox="0 0 590 590" style="enable-background:new 0 0 590 590;" xml:space="preserve">
<style type="text/css">
<![CDATA[
]]>
</style>
<g id="Layer_1">
	<g style="opacity:0.82;">
		<defs>
			<path id="SVGID_1_" style="opacity:0.82;" d="M295,28C147.54,28,28,147.54,28,295c0,147.459,119.54,267,267,267
				c147.459,0,267-119.541,267-267C562,147.54,442.459,28,295,28z M295,526.48C167.157,526.48,63.52,422.842,63.52,295
				C63.52,167.157,167.157,63.52,295,63.52c127.842,0,231.48,103.637,231.48,231.48C526.48,422.842,422.842,526.48,295,526.48z"/>
		</defs>
		<clipPath id="SVGID_2_">
			<use xlink:href="#SVGID_1_"  style="overflow:visible;"/>
		</clipPath>
		<line style="clip-path:url(#SVGID_2_);fill:none;stroke:#000000;stroke-miterlimit:10;" x1="294.5" y1="28" x2="294.5" y2="93"/>
		
			<line style="clip-path:url(#SVGID_2_);fill:none;stroke:#000000;stroke-miterlimit:10;" x1="225.413" y1="37.228" x2="242.236" y2="100.013"/>
		
			<line style="clip-path:url(#SVGID_2_);fill:none;stroke:#000000;stroke-miterlimit:10;" x1="161.068" y1="64.021" x2="193.568" y2="120.313"/>
		
			<line style="clip-path:url(#SVGID_2_);fill:none;stroke:#000000;stroke-miterlimit:10;" x1="105.851" y1="106.556" x2="151.812" y2="152.519"/>
		
			<line style="clip-path:url(#SVGID_2_);fill:none;stroke:#000000;stroke-miterlimit:10;" x1="63.523" y1="161.933" x2="119.815" y2="194.434"/>
		
			<line style="clip-path:url(#SVGID_2_);fill:none;stroke:#000000;stroke-miterlimit:10;" x1="36.971" y1="226.378" x2="99.757" y2="243.202"/>
		<line style="clip-path:url(#SVGID_2_);fill:none;stroke:#000000;stroke-miterlimit:10;" x1="28" y1="295.5" x2="93" y2="295.5"/>
		
			<line style="clip-path:url(#SVGID_2_);fill:none;stroke:#000000;stroke-miterlimit:10;" x1="37.228" y1="364.588" x2="100.013" y2="347.765"/>
		
			<line style="clip-path:url(#SVGID_2_);fill:none;stroke:#000000;stroke-miterlimit:10;" x1="64.022" y1="428.934" x2="120.313" y2="396.434"/>
		
			<line style="clip-path:url(#SVGID_2_);fill:none;stroke:#000000;stroke-miterlimit:10;" x1="106.558" y1="484.151" x2="152.519" y2="438.189"/>
		
			<line style="clip-path:url(#SVGID_2_);fill:none;stroke:#000000;stroke-miterlimit:10;" x1="161.935" y1="526.479" x2="194.435" y2="470.188"/>
		
			<line style="clip-path:url(#SVGID_2_);fill:none;stroke:#000000;stroke-miterlimit:10;" x1="226.38" y1="553.031" x2="243.204" y2="490.246"/>
		
			<line style="clip-path:url(#SVGID_2_);fill:none;stroke:#000000;stroke-miterlimit:10;" x1="295.5" y1="562" x2="295.5" y2="497"/>
		
			<line style="clip-path:url(#SVGID_2_);fill:none;stroke:#000000;stroke-miterlimit:10;" x1="364.588" y1="552.772" x2="347.765" y2="489.987"/>
		
			<line style="clip-path:url(#SVGID_2_);fill:none;stroke:#000000;stroke-miterlimit:10;" x1="428.934" y1="525.979" x2="396.434" y2="469.688"/>
		
			<line style="clip-path:url(#SVGID_2_);fill:none;stroke:#000000;stroke-miterlimit:10;" x1="484.152" y1="483.443" x2="438.19" y2="437.482"/>
		
			<line style="clip-path:url(#SVGID_2_);fill:none;stroke:#000000;stroke-miterlimit:10;" x1="526.48" y1="428.066" x2="470.188" y2="395.567"/>
		
			<line style="clip-path:url(#SVGID_2_);fill:none;stroke:#000000;stroke-miterlimit:10;" x1="553.034" y1="363.621" x2="490.248" y2="346.799"/>
		
			<line style="clip-path:url(#SVGID_2_);fill:none;stroke:#000000;stroke-miterlimit:10;" x1="562" y1="294.5" x2="497" y2="294.5"/>
		
			<line style="clip-path:url(#SVGID_2_);fill:none;stroke:#000000;stroke-miterlimit:10;" x1="552.773" y1="225.412" x2="489.988" y2="242.235"/>
		
			<line style="clip-path:url(#SVGID_2_);fill:none;stroke:#000000;stroke-miterlimit:10;" x1="525.979" y1="161.067" x2="469.688" y2="193.567"/>
		
			<line style="clip-path:url(#SVGID_2_);fill:none;stroke:#000000;stroke-miterlimit:10;" x1="483.444" y1="105.849" x2="437.483" y2="151.811"/>
		
			<line style="clip-path:url(#SVGID_2_);fill:none;stroke:#000000;stroke-miterlimit:10;" x1="428.067" y1="63.521" x2="395.568" y2="119.812"/>
		
			<line style="clip-path:url(#SVGID_2_);fill:none;stroke:#000000;stroke-miterlimit:10;" x1="363.622" y1="36.968" x2="346.8" y2="99.753"/>
	</g>
	<g style="opacity:0.57;">
		<defs>
			<path id="SVGID_3_" style="opacity:0.57;" d="M295,13C139.255,13,13,139.255,13,295c0,155.743,126.255,282,282,282
				c155.743,0,282-126.257,282-282C577,139.255,450.743,13,295,13z M295,539.485C159.975,539.485,50.515,430.023,50.515,295
				C50.515,159.975,159.975,50.515,295,50.515c135.024,0,244.485,109.459,244.485,244.485
				C539.485,430.023,430.024,539.485,295,539.485z"/>
		</defs>
		<clipPath id="SVGID_4_">
			<use xlink:href="#SVGID_3_"  style="overflow:visible;"/>
		</clipPath>
		
			<line style="clip-path:url(#SVGID_4_);fill:none;stroke:#000000;stroke-miterlimit:10;" x1="260.761" y1="30.42" x2="269.246" y2="94.864"/>
		
			<line style="clip-path:url(#SVGID_4_);fill:none;stroke:#000000;stroke-miterlimit:10;" x1="193.47" y1="48.586" x2="218.344" y2="108.639"/>
		
			<line style="clip-path:url(#SVGID_4_);fill:none;stroke:#000000;stroke-miterlimit:10;" x1="133.173" y1="83.55" x2="172.743" y2="135.118"/>
		
			<line style="clip-path:url(#SVGID_4_);fill:none;stroke:#000000;stroke-miterlimit:10;" x1="83.979" y1="132.927" x2="135.547" y2="172.498"/>
		
			<line style="clip-path:url(#SVGID_4_);fill:none;stroke:#000000;stroke-miterlimit:10;" x1="49.243" y1="193.355" x2="109.295" y2="218.231"/>
		
			<line style="clip-path:url(#SVGID_4_);fill:none;stroke:#000000;stroke-miterlimit:10;" x1="31.329" y1="260.715" x2="95.774" y2="269.2"/>
		
			<line style="clip-path:url(#SVGID_4_);fill:none;stroke:#000000;stroke-miterlimit:10;" x1="31.457" y1="330.417" x2="95.901" y2="321.933"/>
		
			<line style="clip-path:url(#SVGID_4_);fill:none;stroke:#000000;stroke-miterlimit:10;" x1="49.624" y1="397.709" x2="109.675" y2="372.835"/>
		
			<line style="clip-path:url(#SVGID_4_);fill:none;stroke:#000000;stroke-miterlimit:10;" x1="84.587" y1="458.007" x2="136.155" y2="418.438"/>
		
			<line style="clip-path:url(#SVGID_4_);fill:none;stroke:#000000;stroke-miterlimit:10;" x1="133.966" y1="507.2" x2="173.535" y2="455.633"/>
		
			<line style="clip-path:url(#SVGID_4_);fill:none;stroke:#000000;stroke-miterlimit:10;" x1="194.394" y1="541.938" x2="219.269" y2="481.887"/>
		
			<line style="clip-path:url(#SVGID_4_);fill:none;stroke:#000000;stroke-miterlimit:10;" x1="261.754" y1="559.852" x2="270.24" y2="495.407"/>
		
			<line style="clip-path:url(#SVGID_4_);fill:none;stroke:#000000;stroke-miterlimit:10;" x1="331.454" y1="559.721" x2="322.97" y2="495.277"/>
		
			<line style="clip-path:url(#SVGID_4_);fill:none;stroke:#000000;stroke-miterlimit:10;" x1="398.746" y1="541.555" x2="373.871" y2="481.502"/>
		
			<line style="clip-path:url(#SVGID_4_);fill:none;stroke:#000000;stroke-miterlimit:10;" x1="459.043" y1="506.592" x2="419.475" y2="455.023"/>
		
			<line style="clip-path:url(#SVGID_4_);fill:none;stroke:#000000;stroke-miterlimit:10;" x1="508.238" y1="457.213" x2="456.67" y2="417.645"/>
		
			<line style="clip-path:url(#SVGID_4_);fill:none;stroke:#000000;stroke-miterlimit:10;" x1="542.977" y1="396.785" x2="482.924" y2="371.91"/>
		
			<line style="clip-path:url(#SVGID_4_);fill:none;stroke:#000000;stroke-miterlimit:10;" x1="560.891" y1="329.424" x2="496.445" y2="320.941"/>
		
			<line style="clip-path:url(#SVGID_4_);fill:none;stroke:#000000;stroke-miterlimit:10;" x1="560.758" y1="259.725" x2="496.314" y2="268.209"/>
		
			<line style="clip-path:url(#SVGID_4_);fill:none;stroke:#000000;stroke-miterlimit:10;" x1="542.592" y1="192.432" x2="482.541" y2="217.306"/>
		
			<line style="clip-path:url(#SVGID_4_);fill:none;stroke:#000000;stroke-miterlimit:10;" x1="507.629" y1="132.134" x2="456.062" y2="171.704"/>
		
			<line style="clip-path:url(#SVGID_4_);fill:none;stroke:#000000;stroke-miterlimit:10;" x1="458.25" y1="82.94" x2="418.682" y2="134.509"/>
		
			<line style="clip-path:url(#SVGID_4_);fill:none;stroke:#000000;stroke-miterlimit:10;" x1="397.822" y1="48.203" x2="372.949" y2="108.255"/>
		
			<line style="clip-path:url(#SVGID_4_);fill:none;stroke:#000000;stroke-miterlimit:10;" x1="330.462" y1="30.289" x2="321.979" y2="94.733"/>
	</g>
	<g style="opacity:0.32;">
		<defs>
			<path id="SVGID_5_" style="opacity:0.32;" d="M295,0C132.076,0,0,132.076,0,295c0,162.923,132.076,295,295,295
				c162.923,0,295-132.077,295-295C590,132.076,457.923,0,295,0z M295,550.756C153.75,550.756,39.245,436.248,39.245,295
				C39.245,153.75,153.75,39.245,295,39.245c141.248,0,255.756,114.505,255.756,255.755
				C550.756,436.248,436.248,550.756,295,550.756z"/>
		</defs>
		<clipPath id="SVGID_6_">
			<use xlink:href="#SVGID_5_"  style="overflow:visible;"/>
		</clipPath>
		
			<line style="clip-path:url(#SVGID_6_);fill:none;stroke:#000000;stroke-miterlimit:10;" x1="287.511" y1="28.105" x2="289.212" y2="93.083"/>
		
			<line style="clip-path:url(#SVGID_6_);fill:none;stroke:#000000;stroke-miterlimit:10;" x1="280.526" y1="28.393" x2="283.928" y2="93.303"/>
		
			<line style="clip-path:url(#SVGID_6_);fill:none;stroke:#000000;stroke-miterlimit:10;" x1="273.552" y1="28.863" x2="278.651" y2="93.662"/>
		
			<line style="clip-path:url(#SVGID_6_);fill:none;stroke:#000000;stroke-miterlimit:10;" x1="266.592" y1="29.516" x2="273.386" y2="94.159"/>
		
			<line style="clip-path:url(#SVGID_6_);fill:none;stroke:#000000;stroke-miterlimit:10;" x1="252.735" y1="31.367" x2="262.904" y2="95.566"/>
		
			<line style="clip-path:url(#SVGID_6_);fill:none;stroke:#000000;stroke-miterlimit:10;" x1="245.849" y1="32.564" x2="257.694" y2="96.475"/>
		
			<line style="clip-path:url(#SVGID_6_);fill:none;stroke:#000000;stroke-miterlimit:10;" x1="238.995" y1="33.941" x2="252.51" y2="97.52"/>
		
			<line style="clip-path:url(#SVGID_6_);fill:none;stroke:#000000;stroke-miterlimit:10;" x1="232.181" y1="35.497" x2="247.354" y2="98.7"/>
		
			<line style="clip-path:url(#SVGID_6_);fill:none;stroke:#000000;stroke-miterlimit:10;" x1="218.686" y1="39.141" x2="237.146" y2="101.462"/>
		
			<line style="clip-path:url(#SVGID_6_);fill:none;stroke:#000000;stroke-miterlimit:10;" x1="212.014" y1="41.226" x2="232.099" y2="103.043"/>
		
			<line style="clip-path:url(#SVGID_6_);fill:none;stroke:#000000;stroke-miterlimit:10;" x1="205.398" y1="43.486" x2="227.095" y2="104.755"/>
		
			<line style="clip-path:url(#SVGID_6_);fill:none;stroke:#000000;stroke-miterlimit:10;" x1="198.845" y1="45.917" x2="222.138" y2="106.598"/>
		
			<line style="clip-path:url(#SVGID_6_);fill:none;stroke:#000000;stroke-miterlimit:10;" x1="185.94" y1="51.292" x2="212.377" y2="110.67"/>
		
			<line style="clip-path:url(#SVGID_6_);fill:none;stroke:#000000;stroke-miterlimit:10;" x1="179.598" y1="54.23" x2="207.58" y2="112.896"/>
		
			<line style="clip-path:url(#SVGID_6_);fill:none;stroke:#000000;stroke-miterlimit:10;" x1="173.334" y1="57.333" x2="202.843" y2="115.247"/>
		
			<line style="clip-path:url(#SVGID_6_);fill:none;stroke:#000000;stroke-miterlimit:10;" x1="167.154" y1="60.6" x2="198.168" y2="117.721"/>
		
			<line style="clip-path:url(#SVGID_6_);fill:none;stroke:#000000;stroke-miterlimit:10;" x1="155.062" y1="67.612" x2="189.022" y2="123.032"/>
		
			<line style="clip-path:url(#SVGID_6_);fill:none;stroke:#000000;stroke-miterlimit:10;" x1="149.157" y1="71.354" x2="184.557" y2="125.865"/>
		
			<line style="clip-path:url(#SVGID_6_);fill:none;stroke:#000000;stroke-miterlimit:10;" x1="143.353" y1="75.248" x2="180.167" y2="128.814"/>
		
			<line style="clip-path:url(#SVGID_6_);fill:none;stroke:#000000;stroke-miterlimit:10;" x1="137.651" y1="79.293" x2="175.855" y2="131.877"/>
		
			<line style="clip-path:url(#SVGID_6_);fill:none;stroke:#000000;stroke-miterlimit:10;" x1="126.577" y1="87.824" x2="167.48" y2="138.336"/>
		
			<line style="clip-path:url(#SVGID_6_);fill:none;stroke:#000000;stroke-miterlimit:10;" x1="121.211" y1="92.304" x2="163.423" y2="141.729"/>
		
			<line style="clip-path:url(#SVGID_6_);fill:none;stroke:#000000;stroke-miterlimit:10;" x1="115.965" y1="96.923" x2="159.455" y2="145.226"/>
		
			<line style="clip-path:url(#SVGID_6_);fill:none;stroke:#000000;stroke-miterlimit:10;" x1="110.841" y1="101.678" x2="155.581" y2="148.825"/>
		
			<line style="clip-path:url(#SVGID_6_);fill:none;stroke:#000000;stroke-miterlimit:10;" x1="100.976" y1="111.582" x2="148.122" y2="156.323"/>
		
			<line style="clip-path:url(#SVGID_6_);fill:none;stroke:#000000;stroke-miterlimit:10;" x1="96.24" y1="116.723" x2="144.542" y2="160.215"/>
		
			<line style="clip-path:url(#SVGID_6_);fill:none;stroke:#000000;stroke-miterlimit:10;" x1="91.641" y1="121.987" x2="141.064" y2="164.2"/>
		
			<line style="clip-path:url(#SVGID_6_);fill:none;stroke:#000000;stroke-miterlimit:10;" x1="87.181" y1="127.37" x2="137.693" y2="168.274"/>
		
			<line style="clip-path:url(#SVGID_6_);fill:none;stroke:#000000;stroke-miterlimit:10;" x1="78.693" y1="138.476" x2="131.275" y2="176.682"/>
		
			<line style="clip-path:url(#SVGID_6_);fill:none;stroke:#000000;stroke-miterlimit:10;" x1="74.669" y1="144.192" x2="128.234" y2="181.008"/>
		
			<line style="clip-path:url(#SVGID_6_);fill:none;stroke:#000000;stroke-miterlimit:10;" x1="70.797" y1="150.011" x2="125.308" y2="185.413"/>
		
			<line style="clip-path:url(#SVGID_6_);fill:none;stroke:#000000;stroke-miterlimit:10;" x1="67.078" y1="155.93" x2="122.497" y2="189.893"/>
		
			<line style="clip-path:url(#SVGID_6_);fill:none;stroke:#000000;stroke-miterlimit:10;" x1="60.111" y1="168.049" x2="117.232" y2="199.065"/>
		
			<line style="clip-path:url(#SVGID_6_);fill:none;stroke:#000000;stroke-miterlimit:10;" x1="56.869" y1="174.242" x2="114.782" y2="203.751"/>
		
			<line style="clip-path:url(#SVGID_6_);fill:none;stroke:#000000;stroke-miterlimit:10;" x1="53.789" y1="180.517" x2="112.455" y2="208.5"/>
		
			<line style="clip-path:url(#SVGID_6_);fill:none;stroke:#000000;stroke-miterlimit:10;" x1="50.875" y1="186.87" x2="110.253" y2="213.309"/>
		
			<line style="clip-path:url(#SVGID_6_);fill:none;stroke:#000000;stroke-miterlimit:10;" x1="45.549" y1="199.795" x2="106.23" y2="223.089"/>
		
			<line style="clip-path:url(#SVGID_6_);fill:none;stroke:#000000;stroke-miterlimit:10;" x1="43.143" y1="206.357" x2="104.412" y2="228.056"/>
		
			<line style="clip-path:url(#SVGID_6_);fill:none;stroke:#000000;stroke-miterlimit:10;" x1="40.908" y1="212.981" x2="102.725" y2="233.068"/>
		
			<line style="clip-path:url(#SVGID_6_);fill:none;stroke:#000000;stroke-miterlimit:10;" x1="38.848" y1="219.661" x2="101.169" y2="238.123"/>
		
			<line style="clip-path:url(#SVGID_6_);fill:none;stroke:#000000;stroke-miterlimit:10;" x1="35.256" y1="233.17" x2="98.457" y2="248.345"/>
		
			<line style="clip-path:url(#SVGID_6_);fill:none;stroke:#000000;stroke-miterlimit:10;" x1="33.726" y1="239.991" x2="97.303" y2="253.505"/>
		
			<line style="clip-path:url(#SVGID_6_);fill:none;stroke:#000000;stroke-miterlimit:10;" x1="32.375" y1="246.849" x2="96.284" y2="258.695"/>
		
			<line style="clip-path:url(#SVGID_6_);fill:none;stroke:#000000;stroke-miterlimit:10;" x1="31.205" y1="253.74" x2="95.401" y2="263.909"/>
		
			<line style="clip-path:url(#SVGID_6_);fill:none;stroke:#000000;stroke-miterlimit:10;" x1="29.407" y1="267.604" x2="94.047" y2="274.398"/>
		
			<line style="clip-path:url(#SVGID_6_);fill:none;stroke:#000000;stroke-miterlimit:10;" x1="28.78" y1="274.565" x2="93.576" y2="279.666"/>
		
			<line style="clip-path:url(#SVGID_6_);fill:none;stroke:#000000;stroke-miterlimit:10;" x1="28.336" y1="281.542" x2="93.244" y2="284.943"/>
		
			<line style="clip-path:url(#SVGID_6_);fill:none;stroke:#000000;stroke-miterlimit:10;" x1="28.075" y1="288.527" x2="93.049" y2="290.229"/>
		
			<line style="clip-path:url(#SVGID_6_);fill:none;stroke:#000000;stroke-miterlimit:10;" x1="28.104" y1="302.489" x2="93.082" y2="300.787"/>
		
			<line style="clip-path:url(#SVGID_6_);fill:none;stroke:#000000;stroke-miterlimit:10;" x1="28.391" y1="309.474" x2="93.302" y2="306.07"/>
		
			<line style="clip-path:url(#SVGID_6_);fill:none;stroke:#000000;stroke-miterlimit:10;" x1="28.861" y1="316.447" x2="93.661" y2="311.346"/>
		
			<line style="clip-path:url(#SVGID_6_);fill:none;stroke:#000000;stroke-miterlimit:10;" x1="29.514" y1="323.407" x2="94.157" y2="316.611"/>
		
			<line style="clip-path:url(#SVGID_6_);fill:none;stroke:#000000;stroke-miterlimit:10;" x1="31.364" y1="337.264" x2="95.563" y2="327.094"/>
		
			<line style="clip-path:url(#SVGID_6_);fill:none;stroke:#000000;stroke-miterlimit:10;" x1="32.561" y1="344.15" x2="96.471" y2="332.304"/>
		
			<line style="clip-path:url(#SVGID_6_);fill:none;stroke:#000000;stroke-miterlimit:10;" x1="33.937" y1="351.004" x2="97.516" y2="337.488"/>
		
			<line style="clip-path:url(#SVGID_6_);fill:none;stroke:#000000;stroke-miterlimit:10;" x1="35.492" y1="357.818" x2="98.695" y2="342.643"/>
		
			<line style="clip-path:url(#SVGID_6_);fill:none;stroke:#000000;stroke-miterlimit:10;" x1="39.135" y1="371.314" x2="101.457" y2="352.852"/>
		
			<line style="clip-path:url(#SVGID_6_);fill:none;stroke:#000000;stroke-miterlimit:10;" x1="41.22" y1="377.986" x2="103.038" y2="357.898"/>
		
			<line style="clip-path:url(#SVGID_6_);fill:none;stroke:#000000;stroke-miterlimit:10;" x1="43.479" y1="384.602" x2="104.75" y2="362.902"/>
		
			<line style="clip-path:url(#SVGID_6_);fill:none;stroke:#000000;stroke-miterlimit:10;" x1="45.91" y1="391.155" x2="106.592" y2="367.859"/>
		
			<line style="clip-path:url(#SVGID_6_);fill:none;stroke:#000000;stroke-miterlimit:10;" x1="51.284" y1="404.061" x2="110.663" y2="377.621"/>
		
			<line style="clip-path:url(#SVGID_6_);fill:none;stroke:#000000;stroke-miterlimit:10;" x1="54.222" y1="410.402" x2="112.889" y2="382.418"/>
		
			<line style="clip-path:url(#SVGID_6_);fill:none;stroke:#000000;stroke-miterlimit:10;" x1="57.325" y1="416.666" x2="115.239" y2="387.156"/>
		
			<line style="clip-path:url(#SVGID_6_);fill:none;stroke:#000000;stroke-miterlimit:10;" x1="60.591" y1="422.847" x2="117.713" y2="391.83"/>
		
			<line style="clip-path:url(#SVGID_6_);fill:none;stroke:#000000;stroke-miterlimit:10;" x1="67.603" y1="434.939" x2="123.023" y2="400.977"/>
		
			<line style="clip-path:url(#SVGID_6_);fill:none;stroke:#000000;stroke-miterlimit:10;" x1="71.343" y1="440.844" x2="125.855" y2="405.441"/>
		
			<line style="clip-path:url(#SVGID_6_);fill:none;stroke:#000000;stroke-miterlimit:10;" x1="75.237" y1="446.648" x2="128.804" y2="409.832"/>
		
			<line style="clip-path:url(#SVGID_6_);fill:none;stroke:#000000;stroke-miterlimit:10;" x1="79.282" y1="452.35" x2="131.866" y2="414.144"/>
		
			<line style="clip-path:url(#SVGID_6_);fill:none;stroke:#000000;stroke-miterlimit:10;" x1="87.812" y1="463.424" x2="138.324" y2="422.518"/>
		
			<line style="clip-path:url(#SVGID_6_);fill:none;stroke:#000000;stroke-miterlimit:10;" x1="92.292" y1="468.789" x2="141.716" y2="426.576"/>
		
			<line style="clip-path:url(#SVGID_6_);fill:none;stroke:#000000;stroke-miterlimit:10;" x1="96.91" y1="474.035" x2="145.212" y2="430.543"/>
		
			<line style="clip-path:url(#SVGID_6_);fill:none;stroke:#000000;stroke-miterlimit:10;" x1="101.665" y1="479.158" x2="148.812" y2="434.418"/>
		
			<line style="clip-path:url(#SVGID_6_);fill:none;stroke:#000000;stroke-miterlimit:10;" x1="111.566" y1="489.025" x2="156.308" y2="441.879"/>
		
			<line style="clip-path:url(#SVGID_6_);fill:none;stroke:#000000;stroke-miterlimit:10;" x1="116.708" y1="493.761" x2="160.199" y2="445.459"/>
		
			<line style="clip-path:url(#SVGID_6_);fill:none;stroke:#000000;stroke-miterlimit:10;" x1="121.972" y1="498.36" x2="164.184" y2="448.936"/>
		
			<line style="clip-path:url(#SVGID_6_);fill:none;stroke:#000000;stroke-miterlimit:10;" x1="127.354" y1="502.82" x2="168.258" y2="452.307"/>
		
			<line style="clip-path:url(#SVGID_6_);fill:none;stroke:#000000;stroke-miterlimit:10;" x1="138.459" y1="511.31" x2="176.664" y2="458.725"/>
		
			<line style="clip-path:url(#SVGID_6_);fill:none;stroke:#000000;stroke-miterlimit:10;" x1="144.175" y1="515.333" x2="180.99" y2="461.767"/>
		
			<line style="clip-path:url(#SVGID_6_);fill:none;stroke:#000000;stroke-miterlimit:10;" x1="149.994" y1="519.206" x2="185.395" y2="464.694"/>
		
			<line style="clip-path:url(#SVGID_6_);fill:none;stroke:#000000;stroke-miterlimit:10;" x1="155.913" y1="522.926" x2="189.874" y2="467.506"/>
		
			<line style="clip-path:url(#SVGID_6_);fill:none;stroke:#000000;stroke-miterlimit:10;" x1="168.031" y1="529.893" x2="199.046" y2="472.772"/>
		
			<line style="clip-path:url(#SVGID_6_);fill:none;stroke:#000000;stroke-miterlimit:10;" x1="174.224" y1="533.136" x2="203.732" y2="475.224"/>
		
			<line style="clip-path:url(#SVGID_6_);fill:none;stroke:#000000;stroke-miterlimit:10;" x1="180.499" y1="536.216" x2="208.481" y2="477.551"/>
		
			<line style="clip-path:url(#SVGID_6_);fill:none;stroke:#000000;stroke-miterlimit:10;" x1="186.853" y1="539.131" x2="213.289" y2="479.753"/>
		
			<line style="clip-path:url(#SVGID_6_);fill:none;stroke:#000000;stroke-miterlimit:10;" x1="199.777" y1="544.457" x2="223.07" y2="483.776"/>
		
			<line style="clip-path:url(#SVGID_6_);fill:none;stroke:#000000;stroke-miterlimit:10;" x1="206.34" y1="546.864" x2="228.036" y2="485.595"/>
		
			<line style="clip-path:url(#SVGID_6_);fill:none;stroke:#000000;stroke-miterlimit:10;" x1="212.963" y1="549.099" x2="233.048" y2="487.282"/>
		
			<line style="clip-path:url(#SVGID_6_);fill:none;stroke:#000000;stroke-miterlimit:10;" x1="219.642" y1="551.159" x2="238.102" y2="488.838"/>
		
			<line style="clip-path:url(#SVGID_6_);fill:none;stroke:#000000;stroke-miterlimit:10;" x1="233.151" y1="554.752" x2="248.324" y2="491.551"/>
		
			<line style="clip-path:url(#SVGID_6_);fill:none;stroke:#000000;stroke-miterlimit:10;" x1="239.972" y1="556.282" x2="253.485" y2="492.705"/>
		
			<line style="clip-path:url(#SVGID_6_);fill:none;stroke:#000000;stroke-miterlimit:10;" x1="246.83" y1="557.634" x2="258.675" y2="493.725"/>
		
			<line style="clip-path:url(#SVGID_6_);fill:none;stroke:#000000;stroke-miterlimit:10;" x1="253.722" y1="558.805" x2="263.889" y2="494.607"/>
		
			<line style="clip-path:url(#SVGID_6_);fill:none;stroke:#000000;stroke-miterlimit:10;" x1="267.585" y1="560.604" x2="274.377" y2="495.963"/>
		
			<line style="clip-path:url(#SVGID_6_);fill:none;stroke:#000000;stroke-miterlimit:10;" x1="274.547" y1="561.23" x2="279.645" y2="496.434"/>
		
			<line style="clip-path:url(#SVGID_6_);fill:none;stroke:#000000;stroke-miterlimit:10;" x1="281.522" y1="561.675" x2="284.923" y2="496.768"/>
		
			<line style="clip-path:url(#SVGID_6_);fill:none;stroke:#000000;stroke-miterlimit:10;" x1="288.508" y1="561.937" x2="290.208" y2="496.962"/>
		
			<line style="clip-path:url(#SVGID_6_);fill:none;stroke:#000000;stroke-miterlimit:10;" x1="302.488" y1="561.896" x2="300.787" y2="496.918"/>
		
			<line style="clip-path:url(#SVGID_6_);fill:none;stroke:#000000;stroke-miterlimit:10;" x1="309.473" y1="561.608" x2="306.07" y2="496.697"/>
		
			<line style="clip-path:url(#SVGID_6_);fill:none;stroke:#000000;stroke-miterlimit:10;" x1="316.446" y1="561.139" x2="311.346" y2="496.339"/>
		
			<line style="clip-path:url(#SVGID_6_);fill:none;stroke:#000000;stroke-miterlimit:10;" x1="323.405" y1="560.486" x2="316.61" y2="495.842"/>
		
			<line style="clip-path:url(#SVGID_6_);fill:none;stroke:#000000;stroke-miterlimit:10;" x1="337.26" y1="558.635" x2="327.092" y2="494.436"/>
		
			<line style="clip-path:url(#SVGID_6_);fill:none;stroke:#000000;stroke-miterlimit:10;" x1="344.146" y1="557.438" x2="332.301" y2="493.527"/>
		
			<line style="clip-path:url(#SVGID_6_);fill:none;stroke:#000000;stroke-miterlimit:10;" x1="351" y1="556.062" x2="337.484" y2="492.483"/>
		
			<line style="clip-path:url(#SVGID_6_);fill:none;stroke:#000000;stroke-miterlimit:10;" x1="357.814" y1="554.507" x2="342.639" y2="491.304"/>
		
			<line style="clip-path:url(#SVGID_6_);fill:none;stroke:#000000;stroke-miterlimit:10;" x1="371.309" y1="550.864" x2="352.847" y2="488.541"/>
		
			<line style="clip-path:url(#SVGID_6_);fill:none;stroke:#000000;stroke-miterlimit:10;" x1="377.979" y1="548.779" x2="357.894" y2="486.961"/>
		
			<line style="clip-path:url(#SVGID_6_);fill:none;stroke:#000000;stroke-miterlimit:10;" x1="384.594" y1="546.521" x2="362.896" y2="485.249"/>
		
			<line style="clip-path:url(#SVGID_6_);fill:none;stroke:#000000;stroke-miterlimit:10;" x1="391.146" y1="544.089" x2="367.853" y2="483.407"/>
		
			<line style="clip-path:url(#SVGID_6_);fill:none;stroke:#000000;stroke-miterlimit:10;" x1="404.051" y1="538.717" x2="377.612" y2="479.336"/>
		
			<line style="clip-path:url(#SVGID_6_);fill:none;stroke:#000000;stroke-miterlimit:10;" x1="410.394" y1="535.779" x2="382.409" y2="477.111"/>
		
			<line style="clip-path:url(#SVGID_6_);fill:none;stroke:#000000;stroke-miterlimit:10;" x1="416.656" y1="532.677" x2="387.146" y2="474.761"/>
		
			<line style="clip-path:url(#SVGID_6_);fill:none;stroke:#000000;stroke-miterlimit:10;" x1="422.836" y1="529.411" x2="391.819" y2="472.287"/>
		
			<line style="clip-path:url(#SVGID_6_);fill:none;stroke:#000000;stroke-miterlimit:10;" x1="434.928" y1="522.399" x2="400.964" y2="466.977"/>
		
			<line style="clip-path:url(#SVGID_6_);fill:none;stroke:#000000;stroke-miterlimit:10;" x1="440.832" y1="518.658" x2="405.43" y2="464.145"/>
		
			<line style="clip-path:url(#SVGID_6_);fill:none;stroke:#000000;stroke-miterlimit:10;" x1="446.637" y1="514.765" x2="409.819" y2="461.196"/>
		
			<line style="clip-path:url(#SVGID_6_);fill:none;stroke:#000000;stroke-miterlimit:10;" x1="452.338" y1="510.72" x2="414.131" y2="458.134"/>
		
			<line style="clip-path:url(#SVGID_6_);fill:none;stroke:#000000;stroke-miterlimit:10;" x1="463.412" y1="502.189" x2="422.506" y2="451.675"/>
		
			<line style="clip-path:url(#SVGID_6_);fill:none;stroke:#000000;stroke-miterlimit:10;" x1="468.778" y1="497.711" x2="426.563" y2="448.283"/>
		
			<line style="clip-path:url(#SVGID_6_);fill:none;stroke:#000000;stroke-miterlimit:10;" x1="474.025" y1="493.092" x2="430.531" y2="444.787"/>
		
			<line style="clip-path:url(#SVGID_6_);fill:none;stroke:#000000;stroke-miterlimit:10;" x1="479.149" y1="488.338" x2="434.405" y2="441.188"/>
		
			<line style="clip-path:url(#SVGID_6_);fill:none;stroke:#000000;stroke-miterlimit:10;" x1="489.015" y1="478.436" x2="441.864" y2="433.692"/>
		
			<line style="clip-path:url(#SVGID_6_);fill:none;stroke:#000000;stroke-miterlimit:10;" x1="493.75" y1="473.294" x2="445.443" y2="429.801"/>
		
			<line style="clip-path:url(#SVGID_6_);fill:none;stroke:#000000;stroke-miterlimit:10;" x1="498.349" y1="468.031" x2="448.92" y2="425.816"/>
		
			<line style="clip-path:url(#SVGID_6_);fill:none;stroke:#000000;stroke-miterlimit:10;" x1="502.809" y1="462.649" x2="452.291" y2="421.742"/>
		
			<line style="clip-path:url(#SVGID_6_);fill:none;stroke:#000000;stroke-miterlimit:10;" x1="511.297" y1="451.544" x2="458.709" y2="413.337"/>
		
			<line style="clip-path:url(#SVGID_6_);fill:none;stroke:#000000;stroke-miterlimit:10;" x1="515.32" y1="445.828" x2="461.75" y2="409.012"/>
		
			<line style="clip-path:url(#SVGID_6_);fill:none;stroke:#000000;stroke-miterlimit:10;" x1="519.193" y1="440.009" x2="464.677" y2="404.607"/>
		
			<line style="clip-path:url(#SVGID_6_);fill:none;stroke:#000000;stroke-miterlimit:10;" x1="522.912" y1="434.09" x2="467.487" y2="400.129"/>
		
			<line style="clip-path:url(#SVGID_6_);fill:none;stroke:#000000;stroke-miterlimit:10;" x1="529.879" y1="421.972" x2="472.752" y2="390.958"/>
		
			<line style="clip-path:url(#SVGID_6_);fill:none;stroke:#000000;stroke-miterlimit:10;" x1="533.121" y1="415.78" x2="475.203" y2="386.272"/>
		
			<line style="clip-path:url(#SVGID_6_);fill:none;stroke:#000000;stroke-miterlimit:10;" x1="536.2" y1="409.506" x2="477.53" y2="381.523"/>
		
			<line style="clip-path:url(#SVGID_6_);fill:none;stroke:#000000;stroke-miterlimit:10;" x1="539.114" y1="403.152" x2="479.732" y2="376.716"/>
		
			<line style="clip-path:url(#SVGID_6_);fill:none;stroke:#000000;stroke-miterlimit:10;" x1="544.439" y1="390.229" x2="483.755" y2="366.936"/>
		
			<line style="clip-path:url(#SVGID_6_);fill:none;stroke:#000000;stroke-miterlimit:10;" x1="546.846" y1="383.666" x2="485.573" y2="361.97"/>
		
			<line style="clip-path:url(#SVGID_6_);fill:none;stroke:#000000;stroke-miterlimit:10;" x1="549.081" y1="377.043" x2="487.261" y2="356.959"/>
		
			<line style="clip-path:url(#SVGID_6_);fill:none;stroke:#000000;stroke-miterlimit:10;" x1="551.142" y1="370.364" x2="488.816" y2="351.906"/>
		
			<line style="clip-path:url(#SVGID_6_);fill:none;stroke:#000000;stroke-miterlimit:10;" x1="554.734" y1="356.855" x2="491.528" y2="341.684"/>
		
			<line style="clip-path:url(#SVGID_6_);fill:none;stroke:#000000;stroke-miterlimit:10;" x1="556.265" y1="350.035" x2="492.683" y2="336.523"/>
		
			<line style="clip-path:url(#SVGID_6_);fill:none;stroke:#000000;stroke-miterlimit:10;" x1="557.615" y1="343.178" x2="493.702" y2="331.335"/>
		
			<line style="clip-path:url(#SVGID_6_);fill:none;stroke:#000000;stroke-miterlimit:10;" x1="558.786" y1="336.287" x2="494.585" y2="326.121"/>
		
			<line style="clip-path:url(#SVGID_6_);fill:none;stroke:#000000;stroke-miterlimit:10;" x1="560.585" y1="322.426" x2="495.94" y2="315.633"/>
		
			<line style="clip-path:url(#SVGID_6_);fill:none;stroke:#000000;stroke-miterlimit:10;" x1="561.212" y1="315.465" x2="496.411" y2="310.365"/>
		
			<line style="clip-path:url(#SVGID_6_);fill:none;stroke:#000000;stroke-miterlimit:10;" x1="561.655" y1="308.489" x2="496.744" y2="305.088"/>
		
			<line style="clip-path:url(#SVGID_6_);fill:none;stroke:#000000;stroke-miterlimit:10;" x1="561.916" y1="301.505" x2="496.938" y2="299.804"/>
		
			<line style="clip-path:url(#SVGID_6_);fill:none;stroke:#000000;stroke-miterlimit:10;" x1="561.895" y1="287.511" x2="496.917" y2="289.212"/>
		
			<line style="clip-path:url(#SVGID_6_);fill:none;stroke:#000000;stroke-miterlimit:10;" x1="561.606" y1="280.527" x2="496.696" y2="283.928"/>
		
			<line style="clip-path:url(#SVGID_6_);fill:none;stroke:#000000;stroke-miterlimit:10;" x1="561.136" y1="273.553" x2="496.337" y2="278.652"/>
		
			<line style="clip-path:url(#SVGID_6_);fill:none;stroke:#000000;stroke-miterlimit:10;" x1="560.483" y1="266.594" x2="495.84" y2="273.387"/>
		
			<line style="clip-path:url(#SVGID_6_);fill:none;stroke:#000000;stroke-miterlimit:10;" x1="558.632" y1="252.739" x2="494.433" y2="262.906"/>
		
			<line style="clip-path:url(#SVGID_6_);fill:none;stroke:#000000;stroke-miterlimit:10;" x1="557.435" y1="245.853" x2="493.524" y2="257.697"/>
		
			<line style="clip-path:url(#SVGID_6_);fill:none;stroke:#000000;stroke-miterlimit:10;" x1="556.058" y1="239" x2="492.479" y2="252.513"/>
		
			<line style="clip-path:url(#SVGID_6_);fill:none;stroke:#000000;stroke-miterlimit:10;" x1="554.502" y1="232.186" x2="491.3" y2="247.358"/>
		
			<line style="clip-path:url(#SVGID_6_);fill:none;stroke:#000000;stroke-miterlimit:10;" x1="550.858" y1="218.691" x2="488.536" y2="237.15"/>
		
			<line style="clip-path:url(#SVGID_6_);fill:none;stroke:#000000;stroke-miterlimit:10;" x1="548.772" y1="212.02" x2="486.955" y2="232.104"/>
		
			<line style="clip-path:url(#SVGID_6_);fill:none;stroke:#000000;stroke-miterlimit:10;" x1="546.514" y1="205.405" x2="485.243" y2="227.101"/>
		
			<line style="clip-path:url(#SVGID_6_);fill:none;stroke:#000000;stroke-miterlimit:10;" x1="544.082" y1="198.852" x2="483.4" y2="222.145"/>
		
			<line style="clip-path:url(#SVGID_6_);fill:none;stroke:#000000;stroke-miterlimit:10;" x1="538.708" y1="185.948" x2="479.328" y2="212.385"/>
		
			<line style="clip-path:url(#SVGID_6_);fill:none;stroke:#000000;stroke-miterlimit:10;" x1="535.77" y1="179.606" x2="477.102" y2="207.588"/>
		
			<line style="clip-path:url(#SVGID_6_);fill:none;stroke:#000000;stroke-miterlimit:10;" x1="532.666" y1="173.343" x2="474.751" y2="202.852"/>
		
			<line style="clip-path:url(#SVGID_6_);fill:none;stroke:#000000;stroke-miterlimit:10;" x1="529.399" y1="167.164" x2="472.277" y2="198.178"/>
		
			<line style="clip-path:url(#SVGID_6_);fill:none;stroke:#000000;stroke-miterlimit:10;" x1="522.388" y1="155.071" x2="466.967" y2="189.033"/>
		
			<line style="clip-path:url(#SVGID_6_);fill:none;stroke:#000000;stroke-miterlimit:10;" x1="518.646" y1="149.167" x2="464.134" y2="184.568"/>
		
			<line style="clip-path:url(#SVGID_6_);fill:none;stroke:#000000;stroke-miterlimit:10;" x1="514.752" y1="143.363" x2="461.186" y2="180.179"/>
		
			<line style="clip-path:url(#SVGID_6_);fill:none;stroke:#000000;stroke-miterlimit:10;" x1="510.707" y1="137.663" x2="458.123" y2="175.868"/>
		
			<line style="clip-path:url(#SVGID_6_);fill:none;stroke:#000000;stroke-miterlimit:10;" x1="502.176" y1="126.589" x2="451.664" y2="167.494"/>
		
			<line style="clip-path:url(#SVGID_6_);fill:none;stroke:#000000;stroke-miterlimit:10;" x1="497.696" y1="121.224" x2="448.272" y2="163.437"/>
		
			<line style="clip-path:url(#SVGID_6_);fill:none;stroke:#000000;stroke-miterlimit:10;" x1="493.078" y1="115.978" x2="444.775" y2="159.47"/>
		
			<line style="clip-path:url(#SVGID_6_);fill:none;stroke:#000000;stroke-miterlimit:10;" x1="488.323" y1="110.854" x2="441.176" y2="155.596"/>
		
			<line style="clip-path:url(#SVGID_6_);fill:none;stroke:#000000;stroke-miterlimit:10;" x1="478.421" y1="100.99" x2="433.68" y2="148.137"/>
		
			<line style="clip-path:url(#SVGID_6_);fill:none;stroke:#000000;stroke-miterlimit:10;" x1="473.279" y1="96.255" x2="429.787" y2="144.557"/>
		
			<line style="clip-path:url(#SVGID_6_);fill:none;stroke:#000000;stroke-miterlimit:10;" x1="468.015" y1="91.656" x2="425.803" y2="141.081"/>
		
			<line style="clip-path:url(#SVGID_6_);fill:none;stroke:#000000;stroke-miterlimit:10;" x1="462.632" y1="87.197" x2="421.729" y2="137.709"/>
		
			<line style="clip-path:url(#SVGID_6_);fill:none;stroke:#000000;stroke-miterlimit:10;" x1="451.526" y1="78.708" x2="413.322" y2="131.293"/>
		
			<line style="clip-path:url(#SVGID_6_);fill:none;stroke:#000000;stroke-miterlimit:10;" x1="445.811" y1="74.685" x2="408.996" y2="128.251"/>
		
			<line style="clip-path:url(#SVGID_6_);fill:none;stroke:#000000;stroke-miterlimit:10;" x1="439.991" y1="70.813" x2="404.592" y2="125.325"/>
		
			<line style="clip-path:url(#SVGID_6_);fill:none;stroke:#000000;stroke-miterlimit:10;" x1="434.072" y1="67.095" x2="400.112" y2="122.514"/>
		
			<line style="clip-path:url(#SVGID_6_);fill:none;stroke:#000000;stroke-miterlimit:10;" x1="421.953" y1="60.129" x2="390.94" y2="117.25"/>
		
			<line style="clip-path:url(#SVGID_6_);fill:none;stroke:#000000;stroke-miterlimit:10;" x1="415.761" y1="56.886" x2="386.254" y2="114.8"/>
		
			<line style="clip-path:url(#SVGID_6_);fill:none;stroke:#000000;stroke-miterlimit:10;" x1="409.486" y1="53.807" x2="381.506" y2="112.473"/>
		
			<line style="clip-path:url(#SVGID_6_);fill:none;stroke:#000000;stroke-miterlimit:10;" x1="403.134" y1="50.893" x2="376.698" y2="110.271"/>
		
			<line style="clip-path:url(#SVGID_6_);fill:none;stroke:#000000;stroke-miterlimit:10;" x1="390.209" y1="45.569" x2="366.918" y2="106.25"/>
		
			<line style="clip-path:url(#SVGID_6_);fill:none;stroke:#000000;stroke-miterlimit:10;" x1="383.646" y1="43.163" x2="361.952" y2="104.432"/>
		
			<line style="clip-path:url(#SVGID_6_);fill:none;stroke:#000000;stroke-miterlimit:10;" x1="377.023" y1="40.928" x2="356.94" y2="102.744"/>
		
			<line style="clip-path:url(#SVGID_6_);fill:none;stroke:#000000;stroke-miterlimit:10;" x1="370.344" y1="38.868" x2="351.886" y2="101.189"/>
		
			<line style="clip-path:url(#SVGID_6_);fill:none;stroke:#000000;stroke-miterlimit:10;" x1="356.835" y1="35.276" x2="341.665" y2="98.478"/>
		
			<line style="clip-path:url(#SVGID_6_);fill:none;stroke:#000000;stroke-miterlimit:10;" x1="350.015" y1="33.747" x2="336.505" y2="97.324"/>
		
			<line style="clip-path:url(#SVGID_6_);fill:none;stroke:#000000;stroke-miterlimit:10;" x1="343.157" y1="32.396" x2="331.316" y2="96.305"/>
		
			<line style="clip-path:url(#SVGID_6_);fill:none;stroke:#000000;stroke-miterlimit:10;" x1="336.267" y1="31.226" x2="326.103" y2="95.423"/>
		
			<line style="clip-path:url(#SVGID_6_);fill:none;stroke:#000000;stroke-miterlimit:10;" x1="322.405" y1="29.427" x2="315.614" y2="94.069"/>
		
			<line style="clip-path:url(#SVGID_6_);fill:none;stroke:#000000;stroke-miterlimit:10;" x1="315.444" y1="28.801" x2="310.347" y2="93.599"/>
		
			<line style="clip-path:url(#SVGID_6_);fill:none;stroke:#000000;stroke-miterlimit:10;" x1="308.469" y1="28.357" x2="305.069" y2="93.266"/>
		
			<line style="clip-path:url(#SVGID_6_);fill:none;stroke:#000000;stroke-miterlimit:10;" x1="301.483" y1="28.096" x2="299.785" y2="93.072"/>
	</g>
	<text transform="matrix(1 0 0 1 288.6309 97.4043)" style="opacity:0.9; font-family:'OstrichSans-Black'; font-size:39.3214;">0</text>
	
		<text transform="matrix(0.9659 -0.2588 0.2588 0.9659 224.0664 109.4834)" style="opacity:0.9; font-family:'OstrichSans-Black'; font-size:39.3214;">230</text>
	
		<text transform="matrix(0.866 -0.5 0.5 0.866 178.4414 134.1885)" style="opacity:0.9; font-family:'OstrichSans-Black'; font-size:39.3214;">220</text>
	
		<text transform="matrix(0.7071 -0.7071 0.7071 0.7071 141.9844 168.6465)" style="opacity:0.9; font-family:'OstrichSans-Black'; font-size:39.3214;">210</text>
	
		<text transform="matrix(0.5 -0.866 0.866 0.5 113.5073 214.2617)" style="opacity:0.9; font-family:'OstrichSans-Black'; font-size:39.3214;">200</text>
	
		<text transform="matrix(0.2588 -0.9659 0.9659 0.2588 99.2529 262.2549)" style="opacity:0.9; font-family:'OstrichSans-Black'; font-size:39.3214;">190</text>
	<text transform="matrix(0 -1 1 0 97.3257 314.3223)" style="opacity:0.9; font-family:'OstrichSans-Black'; font-size:39.3214;">180</text>
	
		<text transform="matrix(-0.2588 -0.9659 0.9659 -0.2588 109.4014 365.6973)" style="opacity:0.9; font-family:'OstrichSans-Black'; font-size:39.3214;">170</text>
	
		<text transform="matrix(-0.5 -0.866 0.866 -0.5 133.3955 410.3125)" style="opacity:0.9; font-family:'OstrichSans-Black'; font-size:39.3214;">160</text>
	
		<text transform="matrix(-0.7071 -0.7071 0.7071 -0.7071 168.814 448.2539)" style="opacity:0.9; font-family:'OstrichSans-Black'; font-size:39.3214;">150</text>
	
		<text transform="matrix(-0.866 -0.5 0.5 -0.866 212.9214 475.7588)" style="opacity:0.9; font-family:'OstrichSans-Black'; font-size:39.3214;">140</text>
	
		<text transform="matrix(-0.9659 -0.2588 0.2588 -0.9659 262.105 490.7744)" style="opacity:0.9; font-family:'OstrichSans-Black'; font-size:39.3214;">130</text>
	<text transform="matrix(-1 0 0 -1 313.8535 492.5918)" style="opacity:0.9; font-family:'OstrichSans-Black'; font-size:39.3214;">120</text>
	
		<text transform="matrix(-0.9659 0.2588 -0.2588 -0.9659 362.7695 481.4482)" style="opacity:0.9; font-family:'OstrichSans-Black'; font-size:39.3214;">110</text>
	
		<text transform="matrix(-0.866 0.5 -0.5 -0.866 410.4121 456.5889)" style="opacity:0.9; font-family:'OstrichSans-Black'; font-size:39.3214;">100</text>
	
		<text transform="matrix(-0.7071 0.7071 -0.7071 -0.7071 444.3799 425.1396)" style="opacity:0.9; font-family:'OstrichSans-Black'; font-size:39.3214;">90</text>
	
		<text transform="matrix(-0.5 0.866 -0.866 -0.5 473.1729 381.6895)" style="opacity:0.9; font-family:'OstrichSans-Black'; font-size:39.3214;">80</text>
	
		<text transform="matrix(-0.2588 0.9659 -0.9659 -0.2588 489.7246 331.875)" style="opacity:0.9; font-family:'OstrichSans-Black'; font-size:39.3214;">70</text>
	<text transform="matrix(0 1 -1 0 492.5098 281.313)" style="opacity:0.9; font-family:'OstrichSans-Black'; font-size:39.3214;">60</text>
	
		<text transform="matrix(0.2588 0.9659 -0.9659 0.2588 482.3516 230.6782)" style="opacity:0.9; font-family:'OstrichSans-Black'; font-size:39.3214;">50</text>
	
		<text transform="matrix(0.5 0.866 -0.866 0.5 459.2158 184.2681)" style="opacity:0.9; font-family:'OstrichSans-Black'; font-size:39.3214;">40</text>
	
		<text transform="matrix(0.7071 0.7071 -0.7071 0.7071 425.251 145.8086)" style="opacity:0.9; font-family:'OstrichSans-Black'; font-size:39.3214;">30</text>
	
		<text transform="matrix(0.866 0.5 -0.5 0.866 382.2051 117.1685)" style="opacity:0.9; font-family:'OstrichSans-Black'; font-size:39.3214;">20</text>
	
		<text transform="matrix(0.9659 0.2588 -0.2588 0.9659 334.8037 101.1235)" style="opacity:0.9; font-family:'OstrichSans-Black'; font-size:39.3214;">10</text>
</g>
<g id="Layer_2">
	<g>
		<path d="M182.196,42.595C167.788,50.637,162.75,68.908,171,83.197l30.582,52.969c8.25,14.29,27.429,20.71,42.619,14.268
			c0,0,21.857-9.27,50.248-9.27c28.031,0,49.328,8.904,49.328,8.904c15.223,6.365,34.428-0.119,42.678-14.409l30.582-52.971
			c8.25-14.29,3.012-32.189-11.64-39.776c0,0-44.21-22.895-110.948-22.895C222.644,20.019,182.196,42.595,182.196,42.595z"/>
	</g>
</g>
</svg>
