<?xml version="1.0" encoding="utf-8"?>
<!-- Generator: Adobe Illustrator 18.1.1, SVG Export Plug-In . SVG Version: 6.00 Build 0)  -->
<!DOCTYPE svg PUBLIC "-//W3C//DTD SVG 1.1//EN" "http://www.w3.org/Graphics/SVG/1.1/DTD/svg11.dtd">
<svg version="1.1" id="Layer_1" xmlns="http://www.w3.org/2000/svg" xmlns:xlink="http://www.w3.org/1999/xlink" x="0px" y="0px"
	 viewBox="0 0 393 254" enable-background="new 0 0 393 254" xml:space="preserve">
<path fill="#FFFFFF" d="M0,0v254h393V0H0z M271.2,162c-22.6-13.1-48.8-20.6-76.8-20.6c-28,0-54.2,7.5-76.8,20.5L56.2,55.7
	C96.8,32.3,143.8,19,194,19c50.4,0,97.7,13.5,138.4,37.1L271.2,162z"/>
<line fill="none" stroke="#D7006D" stroke-width="4" stroke-miterlimit="10" x1="194" y1="19" x2="194" y2="141"/>
<path fill="none" stroke="#555558" stroke-width="4" stroke-miterlimit="10" d="M194,19c-50.1,0-97.2,13.4-137.7,36.7L117.6,162
	c22.6-13.1,48.8-20.5,76.8-20.5c28,0,54.2,7.5,76.8,20.6l61.2-106C291.7,32.5,244.4,19,194,19z"/>
</svg>
