<?xml version="1.0" encoding="iso-8859-1"?>
<!-- Generator: Adobe Illustrator 18.1.1, SVG Export Plug-In . SVG Version: 6.00 Build 0)  -->
<svg version="1.1" xmlns="http://www.w3.org/2000/svg" xmlns:xlink="http://www.w3.org/1999/xlink" x="0px" y="0px"
	 viewBox="0 0 400 400" style="enable-background:new 0 0 400 400;" xml:space="preserve">
<!--
<g id="base">
	<path style="fill:#D8076D;" d="M123.882,154.531c-8.052,13.403-12.682,29.095-12.682,45.869c0,49.265,39.936,89.201,89.2,89.201
		c49.264,0,89.2-39.936,89.2-89.201c0-49.263-39.936-89.2-89.2-89.2c-25.748,0-48.949,10.91-65.231,28.36h-15.835L123.882,154.531z"
		/>
</g>
-->
<g id="centercopy">
	<g>
		<path style="fill:#FFFFFF;" d="M157.676,193.154v-16.285h5.021c0.495,0,0.887,0.005,1.177,0.016s0.652,0.043,1.086,0.097
			s0.799,0.134,1.097,0.242s0.615,0.265,0.952,0.473c0.337,0.208,0.642,0.462,0.914,0.763c0.645,0.716,0.968,1.611,0.968,2.686
			c0,0.695-0.166,1.331-0.496,1.907c-0.331,0.577-0.798,1.033-1.401,1.37c0.89,0.301,1.56,0.773,2.008,1.418
			c0.448,0.645,0.673,1.433,0.673,2.363c0,0.681-0.127,1.337-0.381,1.971c-0.254,0.634-0.625,1.159-1.113,1.574
			c-0.236,0.201-0.478,0.376-0.725,0.526c-0.248,0.15-0.473,0.276-0.677,0.376c-0.204,0.101-0.454,0.185-0.747,0.252
			c-0.294,0.068-0.53,0.118-0.709,0.15s-0.444,0.058-0.795,0.075c-0.351,0.018-0.613,0.027-0.785,0.027c-0.172,0-0.47,0-0.893,0
			H157.676z M161.662,183.057h1.584c1.106,0,1.66-0.433,1.66-1.3c0-0.473-0.147-0.796-0.442-0.972
			c-0.294-0.175-0.693-0.263-1.196-0.263h-1.606V183.057z M161.662,189.502h2.062c1.311,0,1.966-0.519,1.966-1.558
			c0-0.938-0.648-1.407-1.944-1.407h-2.084V189.502z"/>
		<path style="fill:#FFFFFF;" d="M172.57,193.154v-16.285h5.146c0.73,0,1.328,0.016,1.794,0.048c0.465,0.032,1.01,0.14,1.633,0.322
			s1.153,0.45,1.59,0.8c0.651,0.523,1.149,1.176,1.493,1.96s0.516,1.613,0.516,2.487c0,0.845-0.156,1.627-0.467,2.347
			s-0.777,1.329-1.396,1.826c-0.62,0.498-1.348,0.815-2.186,0.951l4.426,5.543h-4.759l-3.76-5.253h-0.043v5.253H172.57z
			 M176.555,185.055h1.472c0.831,0,1.493-0.189,1.987-0.569c0.494-0.379,0.741-0.967,0.741-1.762c0-0.516-0.129-0.943-0.387-1.284
			c-0.258-0.34-0.58-0.578-0.967-0.714c-0.387-0.136-0.831-0.204-1.332-0.204h-1.515V185.055z"/>
		<path style="fill:#FFFFFF;" d="M187.592,193.154v-16.285h9.045v3.652h-5.06v2.535h4.909v3.652h-4.909v2.793h5.06v3.652H187.592z"
			/>
		<path style="fill:#FFFFFF;" d="M198.586,193.154l6.542-16.285h3.276l6.467,16.285h-4.512l-0.795-2.331h-5.65l-0.859,2.331H198.586
			z M205.063,187.504h3.405l-1.676-5.564h-0.021h-0.043L205.063,187.504z"/>
		<path style="fill:#FFFFFF;" d="M216.293,188.288v-0.526h4.136c0,0.595,0.143,1.114,0.429,1.558
			c0.285,0.444,0.707,0.666,1.265,0.666c0.435,0,0.806-0.15,1.113-0.451c0.307-0.3,0.46-0.669,0.46-1.105
			c0-0.25-0.043-0.468-0.129-0.654c-0.085-0.186-0.229-0.352-0.434-0.499c-0.203-0.146-0.373-0.256-0.509-0.327
			c-0.135-0.072-0.354-0.172-0.653-0.301c-0.578-0.257-1.063-0.465-1.456-0.622c-0.59-0.243-1.104-0.494-1.538-0.751
			c-0.436-0.258-0.85-0.571-1.242-0.939c-0.393-0.369-0.693-0.801-0.901-1.299c-0.209-0.497-0.313-1.053-0.313-1.668
			c0-0.732,0.167-1.408,0.501-2.029s0.772-1.128,1.314-1.523s1.15-0.701,1.825-0.92c0.676-0.219,1.364-0.328,2.068-0.328
			c0.841,0,1.663,0.158,2.467,0.473c0.805,0.315,1.455,0.773,1.95,1.375c0.395,0.487,0.668,0.972,0.818,1.456
			c0.151,0.483,0.237,1.069,0.26,1.756h-4.136c-0.071-0.505-0.216-0.895-0.434-1.168c-0.218-0.274-0.569-0.411-1.054-0.411
			c-0.379,0-0.711,0.12-0.996,0.359s-0.428,0.546-0.428,0.917c0,0.308,0.05,0.537,0.149,0.687c0.072,0.122,0.206,0.254,0.402,0.397
			s0.436,0.288,0.718,0.435c0.281,0.146,0.535,0.273,0.76,0.381c0.226,0.107,0.486,0.226,0.782,0.354
			c0.296,0.129,0.477,0.208,0.542,0.236c0.604,0.279,1.113,0.545,1.527,0.799s0.809,0.563,1.183,0.928s0.653,0.791,0.837,1.277
			s0.275,1.038,0.275,1.652c0,1.103-0.253,2.035-0.76,2.798c-0.506,0.762-1.18,1.319-2.02,1.669c-0.84,0.351-1.81,0.526-2.909,0.526
			c-0.828,0-1.596-0.109-2.301-0.328c-0.704-0.218-1.324-0.535-1.857-0.951c-0.533-0.415-0.952-0.958-1.257-1.627
			C216.444,189.891,216.293,189.133,216.293,188.288z"/>
		<path style="fill:#FFFFFF;" d="M229.168,180.521v-3.652h10.581v3.652h-3.201v12.633h-4.157v-12.633H229.168z"/>
	</g>
	<g>
		<path style="fill:#FFFFFF;" d="M150.394,214.72c-0.451-1.053-0.677-2.163-0.677-3.33s0.224-2.273,0.671-3.319
			c0.447-1.046,1.053-1.94,1.815-2.686s1.668-1.334,2.718-1.767c1.049-0.434,2.157-0.65,3.325-0.65c1.475,0,2.836,0.331,4.082,0.994
			c1.246,0.662,2.277,1.605,3.094,2.83c0.587,0.888,0.952,1.776,1.096,2.664h-4.351c-0.322-0.853-0.836-1.538-1.542-2.057
			c-0.706-0.52-1.506-0.779-2.401-0.779c-0.853,0-1.615,0.222-2.288,0.666c-0.673,0.444-1.186,1.025-1.536,1.746
			c-0.351,0.719-0.526,1.498-0.526,2.336c0,0.845,0.175,1.633,0.526,2.363c0.351,0.73,0.865,1.326,1.542,1.789
			c0.677,0.461,1.445,0.692,2.304,0.692c0.881,0,1.66-0.249,2.336-0.747c0.677-0.497,1.205-1.165,1.584-2.003h4.351
			c-0.473,1.919-1.468,3.466-2.986,4.641c-1.519,1.175-3.266,1.762-5.242,1.762c-1.16,0-2.269-0.22-3.325-0.661
			c-1.057-0.439-1.97-1.034-2.739-1.783C151.455,216.673,150.845,215.773,150.394,214.72z"/>
		<path style="fill:#FFFFFF;" d="M167.189,219.554l6.542-16.285h3.276l6.467,16.285h-4.512l-0.795-2.331h-5.65l-0.859,2.331H167.189
			z M173.667,213.904h3.405l-1.676-5.564h-0.021h-0.043L173.667,213.904z"/>
		<path style="fill:#FFFFFF;" d="M185.8,219.554v-16.285h3.588l6.292,10.237l0.045-0.043l-0.193-10.194h3.985v16.285h-3.599
			l-6.198-9.904l-0.043,0.021l0.107,9.883H185.8z"/>
		<path style="fill:#FFFFFF;" d="M203.175,214.72c-0.451-1.053-0.677-2.163-0.677-3.33s0.224-2.273,0.672-3.319
			c0.447-1.046,1.053-1.94,1.814-2.686c0.764-0.745,1.669-1.334,2.719-1.767c1.049-0.434,2.157-0.65,3.324-0.65
			c1.476,0,2.836,0.331,4.082,0.994c1.246,0.662,2.277,1.605,3.094,2.83c0.587,0.888,0.952,1.776,1.096,2.664h-4.351
			c-0.322-0.853-0.836-1.538-1.542-2.057c-0.705-0.52-1.505-0.779-2.4-0.779c-0.853,0-1.615,0.222-2.288,0.666
			s-1.186,1.025-1.536,1.746c-0.351,0.719-0.526,1.498-0.526,2.336c0,0.845,0.176,1.633,0.526,2.363s0.865,1.326,1.541,1.789
			c0.678,0.461,1.445,0.692,2.305,0.692c0.881,0,1.66-0.249,2.336-0.747c0.678-0.497,1.205-1.165,1.585-2.003h4.351
			c-0.473,1.919-1.468,3.466-2.986,4.641s-3.266,1.762-5.242,1.762c-1.16,0-2.269-0.22-3.324-0.661
			c-1.057-0.439-1.97-1.034-2.74-1.783C204.236,216.673,203.626,215.773,203.175,214.72z"/>
		<path style="fill:#FFFFFF;" d="M222.107,219.554v-16.285h9.045v3.652h-5.06v2.535h4.909v3.652h-4.909v2.793h5.06v3.652H222.107z"
			/>
		<path style="fill:#FFFFFF;" d="M234.38,219.554v-16.285h5.146c0.73,0,1.328,0.016,1.794,0.049c0.466,0.031,1.01,0.139,1.633,0.322
			c0.623,0.182,1.153,0.449,1.59,0.8c0.651,0.522,1.149,1.177,1.493,1.96c0.344,0.785,0.516,1.613,0.516,2.487
			c0,0.845-0.156,1.628-0.467,2.347c-0.312,0.721-0.777,1.329-1.396,1.826c-0.62,0.498-1.349,0.815-2.187,0.951l4.426,5.543h-4.759
			l-3.76-5.253h-0.043v5.253H234.38z M238.365,211.455h1.472c0.831,0,1.493-0.189,1.987-0.569s0.741-0.967,0.741-1.762
			c0-0.516-0.129-0.943-0.387-1.284c-0.258-0.34-0.58-0.578-0.967-0.714s-0.831-0.204-1.332-0.204h-1.515V211.455z"/>
	</g>
</g>


<g id="segments">

	<g id="g-partner">
		<path style="fill:none;stroke:#D8076D;stroke-width:5;stroke-miterlimit:10;" d="M107.663,263.335L76.1,284.754l-0.163,0.105
			C59.567,260.784,50,231.709,50,200.4c0-22.306,4.856-43.477,13.568-62.515l0.296,0.136l34.521,15.771l0.24,0.11
			c-6.479,14.161-10.092,29.907-10.092,46.498c0,23.29,7.117,44.917,19.294,62.823L107.663,263.335z"/>
	</g>
	<g id="g-friend">
		<path style="fill:none;stroke:#D8076D;stroke-width:5;stroke-miterlimit:10;" d="M200.4,350.799
			c-51.755,0-97.404-26.141-124.464-65.941l0.391-0.258l31.002-21.039l0.498-0.336c20.127,29.6,54.08,49.041,92.573,49.041
			 M200.4,350.799c12.23,0,24.12-1.459,35.503-4.215l-0.143-0.592l-8.83-36.357l-0.122-0.504c-8.467,2.051-17.31,3.137-26.407,3.137"
			/>
	</g>
	<g id="g-maid">
		<path style="fill:none;stroke:#D8076D;stroke-width:5;stroke-miterlimit:10;" d="M226.807,309.131
			c35.208-8.52,63.912-33.695,77.304-66.717l0.751,0.303l34.325,13.906l0.647,0.262c-18.003,44.396-56.594,78.244-103.929,89.699
			l-0.247-1.012l-8.807-36.26L226.807,309.131z"/>
	</g>
	<g id="g-mom">
		<path style="fill:none;stroke:#D8076D;stroke-width:5;stroke-miterlimit:10;" d="M350.801,200.4
			c0,19.977-3.895,39.045-10.968,56.485l-0.781-0.316l-34.645-14.033l-0.298-0.121c5.261-12.973,8.158-27.156,8.158-42.014
			 M350.801,200.4c0-1.558-0.024-3.108-0.071-4.653h-0.558l-37.104,1.166l-0.854,0.026c0.034,1.15,0.053,2.303,0.053,3.461"/>
	</g>
	<g id="g-girl">
		<path style="fill:none;stroke:#D8076D;stroke-width:5;stroke-miterlimit:10;" d="M300.004,87.706l-0.4,0.456l-24.774,28.03
			l-0.344,0.388c22.368,19.784,36.758,48.384,37.729,80.359l0.295-0.009l37.578-1.183l0.642-0.001
			C349.424,152.758,330.077,114.307,300.004,87.706z"/>
	</g>
	<g id="g-aunt">
		<path style="fill:none;stroke:#D8076D;stroke-width:5;stroke-miterlimit:10;" d="M200.401,50.333v37.729v0.471
			c28.412,0,54.352,10.593,74.084,28.046l0.462-0.521l24.677-27.92l0.38-0.432C273.476,64.243,238.602,50,200.401,50V50.333z"/>
	</g>
	<g id="g-sister">
		<path style="fill:none;stroke:#D8076D;stroke-width:5;stroke-miterlimit:10;" d="M97.646,90.838l26.229,27.966l0.101-0.095
			c19.998-18.717,46.874-30.176,76.426-30.176v-0.575V50.354V50c-39.798,0-75.986,15.458-102.886,40.697L97.646,90.838z"/>
	</g>
	<g id="g-you">
		<path style="fill:none;stroke:#D8076D;stroke-width:5;stroke-miterlimit:10;" d="M97.515,90.698
			c-14.168,13.292-25.761,29.298-33.946,47.188l0.349,0.16l34.245,15.645l0.463,0.212c6.067-13.259,14.649-25.127,25.137-34.993
			l0.112-0.106L97.694,90.89L97.515,90.698z"/>
	</g>
</g>

<g id="copy">
	<g id="t-partner">
		<path style="fill:#D8076D;" d="M82.804,255.643c0.863,0.358,1.278,1,1.682,1.817l0.399,0.809l2.287-1.129l0.881,1.784l-7.294,3.602
			l-1.178-2.386c-0.37-0.749-0.783-1.66-0.578-2.51c0.201-0.811,0.759-1.441,1.509-1.812
			C81.182,255.488,82.098,255.355,82.804,255.643z M81.173,259.244l0.341,0.69l1.735-0.856l-0.375-0.76
			c-0.302-0.611-0.712-1.095-1.452-0.729C80.664,257.963,80.872,258.632,81.173,259.244z"/>
		<path style="fill:#D8076D;" d="M83.334,248.762l-0.924,0.829l1.118,2.596l1.25-0.071l0.883,2.051l-8.767,0.218l-0.648-1.505
			l6.196-6.188L83.334,248.762z M78.887,252.617l0.004,0.01l0.009,0.021l2.886-0.333l-0.674-1.565L78.887,252.617z"/>
		<path style="fill:#D8076D;" d="M80.904,242.356l-1.836,2.659l0.007,0.021l2.473-0.89l0.674,1.872l-7.656,2.755l-0.871-2.42
			c-0.291-0.808-0.59-1.704-0.3-2.557c0.28-0.813,0.954-1.406,1.751-1.693c1.179-0.425,2.463-0.104,3.095,1.036l1.859-3.018
			L80.904,242.356z M75.353,245.569l0.257,0.714l2.131-0.767l-0.25-0.693c-0.264-0.734-0.772-1.171-1.558-0.889
			C75.178,244.207,75.111,244.897,75.353,245.569z"/>
		<path style="fill:#D8076D;" d="M73.03,238.512l6.035-1.848l0.608,1.987l-6.035,1.848l0.47,1.535l-1.745,0.534l-1.545-5.046
			l1.745-0.535L73.03,238.512z"/>
		<path style="fill:#D8076D;" d="M77.157,229.527l-4.058,4.207l0.016,0.019l4.783-1.245l0.48,1.933l-7.904,1.965l-0.433-1.741
			l4.208-4.289l-0.027-0.017l-4.924,1.315l-0.48-1.934l7.904-1.965L77.157,229.527z"/>
		<path style="fill:#D8076D;" d="M76.465,226.438l-7.994,1.524l-0.847-4.44l1.793-0.342l0.474,2.484l1.242-0.236l-0.459-2.409
			l1.793-0.342l0.459,2.409l1.372-0.262l-0.474-2.485l1.793-0.342L76.465,226.438z"/>
		<path style="fill:#D8076D;" d="M74.88,216.968l-2.346,2.225l0.003,0.021l2.604-0.361l0.273,1.973l-8.062,1.117L67,219.394
			c-0.118-0.851-0.226-1.79,0.233-2.564c0.441-0.738,1.224-1.181,2.063-1.297c1.242-0.172,2.433,0.407,2.816,1.653l2.442-2.571
			L74.88,216.968z M68.784,218.968l0.104,0.752l2.245-0.311l-0.102-0.73c-0.107-0.773-0.514-1.306-1.342-1.19
			C68.894,217.599,68.686,218.26,68.784,218.968z"/>
		<path style="fill:#D8076D;" d="M74.207,210.464l-8.119,0.564l-0.144-2.073l8.119-0.564L74.207,210.464z"/>
		<path style="fill:#D8076D;" d="M73.822,201.933l-4.877,3.219l0.011,0.022l4.938-0.172l0.047,1.991l-8.141,0.192l-0.042-1.794
			l5.042-3.267l-0.022-0.021l-5.092,0.208l-0.047-1.991l8.141-0.192L73.822,201.933z"/>
		<path style="fill:#D8076D;" d="M74.293,191.5c-0.164,2.359-2.141,4.15-4.521,3.985s-4.07-2.19-3.906-4.549
			c0.102-1.47,0.872-2.718,2.158-3.444c0.413-0.236,0.888-0.413,1.365-0.457l-0.151,2.172c-0.856,0.26-1.488,0.955-1.552,1.866
			c-0.092,1.316,0.968,2.25,2.219,2.337c1.25,0.087,2.473-0.688,2.565-2.016c0.063-0.911-0.46-1.63-1.236-2.048l0.151-2.172
			C73.273,187.78,74.43,189.536,74.293,191.5z"/>
		<path style="fill:#D8076D;" d="M75.076,182.572l-2.855,1.52l-0.003,0.021l2.607,0.347l-0.262,1.975l-8.073-1.073l0.339-2.553
			c0.113-0.851,0.26-1.787,0.909-2.411c0.623-0.595,1.496-0.812,2.336-0.7c1.244,0.165,2.238,1.041,2.275,2.345l3.041-1.828
			L75.076,182.572z M68.663,182.874l-0.1,0.753l2.248,0.298l0.097-0.731c0.103-0.774-0.148-1.396-0.977-1.506
			C69.134,181.583,68.757,182.166,68.663,182.874z"/>
		<path style="fill:#D8076D;" d="M75.568,179.402l-8.017-1.411l0.36-2.048l8.017,1.412L75.568,179.402z"/>
		<path style="fill:#D8076D;" d="M77.627,169.494l-5.919-1.442l-0.026,0.016l5.563,3.076l-0.311,1.339l-6.349,0.31l0.017,0.026
			l5.949,1.313l-0.433,1.864l-7.926-1.84l0.604-2.603l5.583-0.363l0.005-0.021l-4.856-2.765l0.607-2.613l7.926,1.84L77.627,169.494z"
			/>
		<path style="fill:#D8076D;" d="M78.462,166.349l-7.802-2.326l1.292-4.333l1.75,0.522l-0.723,2.425l1.212,0.361l0.701-2.351
			l1.75,0.521l-0.701,2.352l1.339,0.399l0.723-2.425l1.75,0.521L78.462,166.349z"/>
	</g>
	<g id="t-friend">
		<path style="fill:#D8076D;" d="M213.746,332.718l-0.136-1.379l-2.353,0.233l-0.18-1.816l2.352-0.233l-0.305-3.085l1.979-0.196
			l0.802,8.097l-4.42,0.438l-0.18-1.816L213.746,332.718z"/>
		<path style="fill:#D8076D;" d="M205.775,326.962l2.01,2.531l0.021-0.001l-0.131-2.626l1.988-0.099l0.407,8.13l-2.571,0.128
			c-0.856,0.043-1.803,0.068-2.534-0.457c-0.697-0.505-1.068-1.323-1.11-2.169c-0.062-1.252,0.618-2.388,1.894-2.661l-2.347-2.658
			L205.775,326.962z M207.233,333.211l0.758-0.038l-0.113-2.264l-0.736,0.037c-0.779,0.039-1.346,0.397-1.304,1.232
			C205.878,332.982,206.519,333.247,207.233,333.211z"/>
		<path style="fill:#D8076D;" d="M202.565,327.05l0.136,8.141l-2.079,0.035l-0.136-8.142L202.565,327.05z"/>
		<path style="fill:#D8076D;" d="M199.096,327.083l-0.214,8.142l-4.521-0.119l0.048-1.826l2.53,0.066l0.034-1.266l-2.454-0.064
			l0.048-1.826l2.453,0.064l0.037-1.397l-2.531-0.066l0.048-1.826L199.096,327.083z"/>
		<path style="fill:#D8076D;" d="M188.339,326.51l2.688,5.191l0.023-0.01l0.35-4.931l1.986,0.163l-0.667,8.119l-1.788-0.147
			l-2.719-5.358l-0.024,0.02l-0.329,5.087l-1.986-0.163l0.666-8.118L188.339,326.51z"/>
		<path style="fill:#D8076D;" d="M182.487,325.812l2.818,0.414l-1.186,8.052l-2.666-0.393c-1.458-0.215-2.608-0.629-3.336-2.025
			c-0.415-0.806-0.503-1.72-0.372-2.611C178.135,326.605,179.854,325.424,182.487,325.812z M181.437,332.038l0.892,0.131l0.654-4.438
			l-0.881-0.13c-1.403-0.207-2.102,0.613-2.294,1.918C179.618,330.802,180.066,331.835,181.437,332.038z"/>
		<path style="fill:#D8076D;" d="M177.307,327.294l-0.341,1.761l-3.036-0.587l0.341-1.762L177.307,327.294z"/>
		<path style="fill:#D8076D;" d="M168.951,323.151l0.111,1.236l2.749,0.659l0.691-1.045l2.171,0.521l-5.074,7.154l-1.594-0.382
			l-1.248-8.669L168.951,323.151z M169.376,329.021l0.011,0.003l0.021,0.005l1.461-2.511l-1.658-0.397L169.376,329.021z"/>
		<path style="fill:#D8076D;" d="M161.613,327.634l1.795-6.052l1.993,0.591l-1.795,6.053l1.54,0.456l-0.52,1.751l-5.061-1.502
			l0.52-1.75L161.613,327.634z"/>
		<path style="fill:#D8076D;" d="M161.928,323.513l-0.554,1.703l-2.938-0.956l0.555-1.704L161.928,323.513z"/>
		<path style="fill:#D8076D;" d="M155.028,325.431l0.473-1.302l-2.221-0.808l0.623-1.715l2.221,0.808l1.059-2.913l1.87,0.679
			l-2.778,7.645l-4.173-1.517l0.623-1.715L155.028,325.431z"/>
		<path style="fill:#D8076D;" d="M153.899,318.26l-3.048,7.543l-1.927-0.778l3.049-7.543L153.899,318.26z"/>
		<path style="fill:#D8076D;" d="M147.146,315.362l0.625,3.17l0.02,0.009l1.087-2.393l1.812,0.823l-3.365,7.407l-2.342-1.064
			c-0.781-0.354-1.632-0.766-2.041-1.566c-0.388-0.769-0.343-1.665,0.007-2.437c0.519-1.141,1.644-1.837,2.901-1.495l-0.866-3.437
			L147.146,315.362z M145.577,321.58l0.691,0.314l0.937-2.062l-0.67-0.305c-0.711-0.322-1.378-0.264-1.724,0.497
			C144.479,320.755,144.927,321.285,145.577,321.58z"/>
		<path style="fill:#D8076D;" d="M142.133,312.72c1.455,0.755,2.217,2.104,1.417,3.647l-0.122,0.234l-1.836-0.952
			c0.243-0.469,0.297-1.098-0.24-1.376c-0.381-0.198-0.86-0.062-1.063,0.328c-0.243,0.469,0.066,0.828,0.361,1.191
			c0.164,0.209,0.333,0.408,0.503,0.607c0.734,0.877,1.281,1.854,0.693,2.987c-0.699,1.348-2.403,1.455-3.634,0.817
			c-0.703-0.365-1.357-1.039-1.527-1.834c-0.133-0.651-0.013-1.098,0.261-1.674l1.826,0.947c-0.149,0.431-0.169,0.805,0.3,1.048
			c0.322,0.167,0.751,0.104,0.928-0.237c0.056-0.107,0.102-0.22,0.089-0.338c-0.024-0.385-0.779-1.247-1.01-1.541
			c-0.729-0.936-1.203-1.813-0.616-2.946C139.249,312.117,140.707,311.981,142.133,312.72z"/>
		<path style="fill:#D8076D;" d="M132.952,315.026l3.162-5.465l1.8,1.041l-3.162,5.466l1.39,0.804l-0.915,1.581l-4.57-2.645
			l0.915-1.58L132.952,315.026z"/>
		<path style="fill:#D8076D;" d="M134.217,311.084l-0.94,1.527l-2.632-1.621l0.94-1.527L134.217,311.084z"/>
		<path style="fill:#D8076D;" d="M130.101,305.583c1.362,0.912,1.969,2.338,1.002,3.782l-0.147,0.219l-1.718-1.15
			c0.293-0.438,0.417-1.058-0.086-1.394c-0.356-0.239-0.848-0.157-1.092,0.208c-0.294,0.438-0.026,0.83,0.226,1.224
			c0.14,0.227,0.286,0.443,0.432,0.66c0.633,0.953,1.067,1.984,0.357,3.045c-0.844,1.262-2.549,1.179-3.701,0.408
			c-0.658-0.441-1.233-1.184-1.314-1.992c-0.06-0.662,0.109-1.092,0.446-1.634l1.709,1.144c-0.196,0.412-0.258,0.781,0.181,1.074
			c0.301,0.202,0.735,0.188,0.949-0.132c0.067-0.101,0.125-0.207,0.126-0.326c0.019-0.385-0.635-1.325-0.833-1.643
			c-0.62-1.012-0.994-1.937-0.284-2.997C127.302,304.664,128.766,304.691,130.101,305.583z"/>
		<path style="fill:#D8076D;" d="M126.925,303.579l-4.788,6.583l-1.681-1.223l4.788-6.583L126.925,303.579z"/>
		<path style="fill:#D8076D;" d="M121.124,298.964c1.866,1.503,2.198,4.157,0.688,6.031c-1.531,1.9-4.16,2.027-6.018,0.53
			c-1.37-1.104-2.065-3.132-1.36-4.794l1.815,1.462c-0.13,0.757,0.134,1.463,0.733,1.946c1.036,0.834,2.405,0.554,3.212-0.447
			c0.834-1.036,0.872-2.432-0.207-3.301c-0.693-0.559-1.573-0.745-2.336-0.202l1.892,1.524l-1.042,1.292l-3.758-3.027
			c0.081-0.118,0.17-0.229,0.26-0.341C116.57,297.695,119.181,297.399,121.124,298.964z"/>
		<path style="fill:#D8076D;" d="M113.478,292.511l-2.213,2.39l1.953,1.81l2.213-2.39l1.525,1.413l-5.533,5.974l-1.525-1.413
			l2.079-2.244l-1.954-1.81l-2.079,2.244l-1.525-1.413l5.533-5.974L113.478,292.511z"/>
		<path style="fill:#D8076D;" d="M104.339,292.322l4.528-4.396l1.448,1.491l-4.528,4.396l1.118,1.152l-1.31,1.271l-3.677-3.787
			l1.31-1.271L104.339,292.322z"/>
	</g>
	<g id="t-maid">
		<path style="fill:#D8076D;" d="M309.344,265.032l5.268,3.067l0.03-0.009l-4.461-4.532l0.679-1.195l6.178,1.509l-0.009-0.03
			l-5.333-2.952l0.945-1.665l7.08,4.021l-1.32,2.324l-5.457-1.239l-0.012,0.02l3.872,4.033l-1.325,2.334l-7.08-4.02L309.344,265.032z
			"/>
		<path style="fill:#D8076D;" d="M304.754,272.183l1.199,0.323l1.568-2.353l-0.741-1.01l1.239-1.859l4.962,7.236l-0.909,1.364
			l-8.569-1.825L304.754,272.183z M310.412,273.813l0.006-0.01l0.013-0.018l-1.853-2.24l-0.946,1.419L310.412,273.813z"/>
		<path style="fill:#D8076D;" d="M303.016,274.625l6.561,4.821l-1.231,1.676l-6.561-4.821L303.016,274.625z"/>
		<path style="fill:#D8076D;" d="M299.253,279.565l1.791-2.217l6.334,5.114l-1.693,2.098c-0.926,1.147-1.868,1.928-3.441,1.846
			c-0.905-0.053-1.737-0.441-2.439-1.008C297.724,283.718,297.58,281.636,299.253,279.565z M304.084,283.635l0.566-0.702l-3.492-2.82
			l-0.56,0.693c-0.893,1.104-0.541,2.123,0.486,2.953C302.095,284.575,303.213,284.713,304.084,283.635z"/>
		<path style="fill:#D8076D;" d="M290.808,288.864c1.607-1.643,4.265-1.812,5.938-0.173c0.433,0.423,0.771,0.894,1.019,1.442
			c0.144,0.31,0.233,0.674,0.283,1.016c0.201,1.366-0.243,2.639-1.213,3.629c-1.661,1.697-4.311,1.796-6.024,0.119
			C289.09,293.212,289.139,290.569,290.808,288.864z M295.523,293.508c0.931-0.95,0.768-2.356-0.145-3.248
			c-0.927-0.907-2.352-1.056-3.297-0.089c-0.915,0.936-0.714,2.363,0.175,3.232C293.16,294.289,294.593,294.459,295.523,293.508z"/>
		<path style="fill:#D8076D;" d="M289.929,298.709l-0.934-1.025l-1.749,1.595l-1.23-1.351l1.748-1.594l-2.091-2.294l1.472-1.342
			l5.487,6.019l-3.285,2.995l-1.231-1.35L289.929,298.709z"/>
		<path style="fill:#D8076D;" d="M276.804,301.432l1.996,2.575l2.104-1.633l-1.996-2.574l1.644-1.274l4.991,6.436l-1.644,1.275
			l-1.875-2.418l-2.105,1.632l1.875,2.418l-1.644,1.274l-4.991-6.436L276.804,301.432z"/>
		<path style="fill:#D8076D;" d="M270.724,305.566c1.91-1.279,4.547-0.9,5.85,1.047c0.337,0.503,0.572,1.033,0.702,1.622
			c0.077,0.332,0.09,0.707,0.069,1.052c-0.083,1.379-0.779,2.533-1.931,3.305c-1.975,1.321-4.59,0.875-5.924-1.117
			C268.15,309.472,268.74,306.893,270.724,305.566z M274.389,311.08c1.106-0.74,1.234-2.149,0.524-3.21
			c-0.722-1.078-2.086-1.515-3.21-0.763c-1.088,0.729-1.183,2.169-0.491,3.201C271.915,311.359,273.283,311.821,274.389,311.08z"/>
		<path style="fill:#D8076D;" d="M261.999,311.106l5.154,2.747l0.014-0.021l-2.508-4.255l1.727-0.991l4.054,7.057l-1.555,0.894
			l-5.274-2.868l-0.009,0.03l2.612,4.371l-1.726,0.992l-4.054-7.058L261.999,311.106z"/>
		<path style="fill:#D8076D;" d="M255.659,314.232c2.066-1.005,4.625-0.268,5.648,1.838c0.265,0.544,0.426,1.102,0.473,1.702
			c0.031,0.34-0.008,0.713-0.075,1.052c-0.271,1.354-1.118,2.401-2.364,3.007c-2.136,1.038-4.664,0.238-5.712-1.917
			C252.576,317.748,253.514,315.275,255.659,314.232z M258.533,320.194c1.196-0.581,1.517-1.96,0.959-3.106
			c-0.567-1.167-1.858-1.786-3.074-1.194c-1.177,0.571-1.468,1.984-0.925,3.102C256.046,320.132,257.337,320.776,258.533,320.194z"/>
		<path style="fill:#D8076D;" d="M247.309,318.102l2.736,1.72l0.021-0.008l-0.996-2.433l1.843-0.754l3.082,7.531l-2.381,0.975
			c-0.794,0.325-1.678,0.663-2.542,0.41c-0.824-0.244-1.446-0.893-1.768-1.677c-0.475-1.16-0.209-2.457,0.902-3.138l-3.096-1.728
			L247.309,318.102z M250.759,323.51l0.702-0.287l-0.858-2.097l-0.682,0.279c-0.723,0.296-1.137,0.822-0.82,1.596
			C249.404,323.744,250.097,323.782,250.759,323.51z"/>
	</g>
	<g id="t-mom">
		<path style="fill:#D8076D;" d="M326.099,215.728l6.055,0.674l0.023-0.02l-5.909-2.339l0.138-1.368l6.256-1.117l-0.02-0.024
			l-6.067-0.543l0.191-1.903l8.096,0.812l-0.267,2.658l-5.49,1.073l-0.002,0.022l5.169,2.121l-0.269,2.67l-8.096-0.813
			L326.099,215.728z"/>
		<path style="fill:#D8076D;" d="M324.868,222.784c0.401-2.264,2.503-3.902,4.811-3.493c0.596,0.105,1.142,0.303,1.656,0.618
			c0.293,0.175,0.572,0.426,0.807,0.68c0.938,1.016,1.287,2.317,1.045,3.683c-0.415,2.341-2.55,3.917-4.912,3.498
			C325.902,227.348,324.451,225.135,324.868,222.784z M331.386,223.963c0.233-1.312-0.694-2.381-1.951-2.604
			c-1.278-0.227-2.539,0.455-2.775,1.787c-0.229,1.29,0.744,2.356,1.968,2.573C329.873,225.941,331.153,225.274,331.386,223.963z"/>
		<path style="fill:#D8076D;" d="M322.387,234.48l5.885,1.585l0.026-0.016l-5.488-3.21l0.344-1.331l6.355-0.155l-0.016-0.027
			l-5.917-1.458l0.479-1.853l7.881,2.032l-0.667,2.588l-5.591,0.229l-0.006,0.021l4.789,2.882l-0.67,2.599l-7.882-2.032
			L322.387,234.48z"/>
	</g>
	<g id="t-girl">
		<path style="fill:#D8076D;" d="M299.934,122.547c-1.48-1.886-1.206-4.547,0.688-6.035c1.921-1.507,4.512-1.039,5.985,0.839
			c1.086,1.384,1.307,3.518,0.245,4.98l-1.439-1.834c0.297-0.708,0.199-1.456-0.276-2.062c-0.821-1.047-2.219-1.082-3.231-0.288
			c-1.047,0.822-1.397,2.174-0.542,3.264c0.55,0.701,1.365,1.081,2.231,0.723l-1.501-1.912l1.307-1.025l2.98,3.798
			c-0.105,0.097-0.218,0.186-0.33,0.273C304.087,124.811,301.475,124.511,299.934,122.547z"/>
		<path style="fill:#D8076D;" d="M303.274,126.718l6.651-4.697l1.199,1.699l-6.65,4.697L303.274,126.718z"/>
		<path style="fill:#D8076D;" d="M307.383,132.803l1.189-3.007l-0.012-0.019l-2.21,1.426l-1.08-1.674l6.843-4.415l1.396,2.164
			c0.465,0.721,0.96,1.529,0.87,2.425c-0.089,0.856-0.613,1.587-1.325,2.046c-1.054,0.68-2.378,0.657-3.252-0.311l-1.131,3.362
			L307.383,132.803z M312.07,128.417l-0.412-0.638l-1.904,1.229l0.399,0.62c0.424,0.656,1.018,0.968,1.72,0.514
			C312.548,129.706,312.458,129.018,312.07,128.417z"/>
		<path style="fill:#D8076D;" d="M309.097,135.565l7.046-4.076l1.041,1.799l-5.465,3.162l1.206,2.085l-1.58,0.915L309.097,135.565z"
			/>
		<path style="fill:#D8076D;" d="M314.823,146.659c-1.01-2.139-0.161-4.669,1.998-5.689c2.158-1.02,4.623-0.079,5.634,2.06
			c0.63,1.333,0.567,2.798-0.199,4.061c-0.245,0.408-0.574,0.794-0.969,1.066l-0.931-1.97c0.62-0.646,0.832-1.561,0.442-2.387
			c-0.564-1.194-1.945-1.491-3.08-0.955c-1.134,0.536-1.821,1.81-1.253,3.014c0.39,0.826,1.198,1.198,2.08,1.184l0.931,1.97
			C317.533,149.407,315.665,148.44,314.823,146.659z"/>
		<path style="fill:#D8076D;" d="M318.496,154.82l1.749-2.718l-0.008-0.021l-2.443,0.97l-0.735-1.85l7.565-3.003l0.95,2.392
			c0.316,0.797,0.646,1.685,0.384,2.546c-0.254,0.823-0.909,1.438-1.696,1.75c-1.165,0.462-2.46,0.184-3.129-0.936l-1.76,3.078
			L318.496,154.82z M323.942,151.427l-0.28-0.706l-2.106,0.836l0.272,0.685c0.288,0.726,0.81,1.146,1.587,0.837
			C324.161,152.784,324.206,152.092,323.942,151.427z"/>
		<path style="fill:#D8076D;" d="M322.059,162.808c-0.788-0.389-1.277-1.062-1.55-1.888c-0.266-0.805-0.318-1.738,0.092-2.499
			c0.511-0.945,1.145-1.235,2.128-1.56l4.672-1.542l0.651,1.976l-4.672,1.542c-0.7,0.231-1.436,0.601-1.143,1.49
			c0.307,0.93,1.066,0.737,1.798,0.496l4.672-1.542l0.652,1.976l-4.673,1.542C323.767,163.102,322.948,163.256,322.059,162.808z"/>
		<path style="fill:#D8076D;" d="M322.481,167.515c-0.427-1.582,0.053-3.056,1.73-3.51l0.255-0.069l0.539,1.997
			c-0.51,0.138-1.01,0.523-0.852,1.107c0.111,0.415,0.536,0.676,0.96,0.561c0.51-0.138,0.565-0.608,0.634-1.071
			c0.043-0.262,0.076-0.521,0.108-0.781c0.149-1.134,0.5-2.198,1.732-2.53c1.465-0.396,2.696,0.787,3.058,2.125
			c0.207,0.765,0.152,1.702-0.318,2.365c-0.39,0.539-0.8,0.751-1.409,0.939l-0.537-1.986c0.418-0.181,0.707-0.419,0.569-0.929
			c-0.095-0.35-0.431-0.624-0.802-0.524c-0.117,0.032-0.231,0.074-0.31,0.164c-0.267,0.277-0.392,1.416-0.452,1.786
			c-0.196,1.17-0.523,2.113-1.755,2.445C323.986,170.049,322.9,169.066,322.481,167.515z"/>
		<path style="fill:#D8076D;" d="M324.562,175.71l3.188-0.668l-0.547-2.607l-3.188,0.668l-0.427-2.036l7.972-1.671l0.427,2.036
			l-2.995,0.627l0.547,2.607l2.995-0.627l0.427,2.036l-7.972,1.671L324.562,175.71z"/>
	</g>
	<g id="t-aunt">
		<path style="fill:#D8076D;" d="M236.78,79.207l-0.06-1.241l-2.722-0.772l-0.734,1.016l-2.149-0.61l5.369-6.943l1.578,0.448
			l0.889,8.72L236.78,79.207z M236.598,73.319l-0.011-0.003l-0.021-0.006l-1.565,2.451l1.642,0.466L236.598,73.319z"/>
		<path style="fill:#D8076D;" d="M244.57,81.038c-0.789,0.389-1.621,0.367-2.442,0.08c-0.8-0.28-1.572-0.806-1.926-1.594
			c-0.438-0.981-0.282-1.662,0.059-2.638l1.624-4.645l1.964,0.687l-1.624,4.645c-0.243,0.696-0.397,1.505,0.485,1.813
			c0.925,0.323,1.235-0.396,1.489-1.124l1.623-4.645l1.964,0.687l-1.623,4.645C245.844,79.862,245.468,80.605,244.57,81.038z"/>
		<path style="fill:#D8076D;" d="M250.986,84.418l-0.935-5.764l-0.025,0.002l-1.867,4.57l-1.834-0.773l3.162-7.498l1.651,0.697
			l0.911,5.933l0.028-0.012l1.897-4.725l1.834,0.773l-3.162,7.498L250.986,84.418z"/>
		<path style="fill:#D8076D;" d="M259.411,81.388l-2.759,5.675l-1.868-0.908l2.759-5.676l-1.444-0.702l0.798-1.642l4.746,2.307
			l-0.798,1.642L259.411,81.388z"/>
	</g>
	<g id="t-sister">
		<path style="fill:#D8076D;" d="M139.773,89.524c-1.437,0.789-2.982,0.671-3.819-0.853l-0.127-0.231l1.813-0.995
			c0.254,0.463,0.747,0.857,1.277,0.566c0.376-0.207,0.53-0.68,0.318-1.066c-0.254-0.463-0.725-0.405-1.191-0.363
			c-0.265,0.02-0.525,0.05-0.785,0.08c-1.137,0.123-2.253,0.033-2.868-1.086c-0.731-1.331,0.128-2.807,1.343-3.474
			c0.694-0.381,1.619-0.55,2.374-0.249c0.615,0.252,0.919,0.6,1.246,1.148l-1.803,0.99c-0.275-0.364-0.574-0.588-1.037-0.334
			c-0.318,0.175-0.505,0.566-0.32,0.903c0.058,0.106,0.126,0.207,0.231,0.262c0.333,0.194,1.469,0.047,1.842,0.018
			c1.184-0.085,2.177,0.01,2.791,1.128C141.88,87.464,141.181,88.751,139.773,89.524z"/>
		<path style="fill:#D8076D;" d="M143.001,87.643l-3.636-7.283l1.86-0.929l3.636,7.283L143.001,87.643z"/>
		<path style="fill:#D8076D;" d="M148.429,85.211c-1.494,0.675-3.025,0.438-3.742-1.146l-0.109-0.241l1.885-0.852
			c0.218,0.481,0.678,0.913,1.23,0.664c0.391-0.177,0.581-0.637,0.4-1.038c-0.218-0.481-0.691-0.46-1.159-0.454
			c-0.266,0-0.527,0.009-0.789,0.019c-1.144,0.034-2.25-0.142-2.775-1.305c-0.625-1.383,0.346-2.788,1.609-3.359
			c0.722-0.326,1.656-0.422,2.386-0.064c0.594,0.299,0.87,0.669,1.153,1.242l-1.875,0.847c-0.246-0.384-0.527-0.631-1.008-0.414
			c-0.331,0.149-0.547,0.525-0.389,0.876c0.05,0.11,0.109,0.216,0.21,0.279c0.316,0.219,1.461,0.16,1.835,0.16
			c1.186,0.007,2.169,0.179,2.695,1.341C150.689,83.321,149.893,84.55,148.429,85.211z"/>
		<path style="fill:#D8076D;" d="M152.299,76.574l2.33,5.868l-1.932,0.767l-2.33-5.868l-1.493,0.593l-0.674-1.697l4.907-1.948
			l0.674,1.697L152.299,76.574z"/>
		<path style="fill:#D8076D;" d="M156.816,81.599l-2.665-7.689l4.271-1.48l0.598,1.725l-2.39,0.829l0.415,1.195l2.317-0.803
			l0.598,1.725l-2.317,0.803l0.458,1.319l2.39-0.828l0.598,1.725L156.816,81.599z"/>
		<path style="fill:#D8076D;" d="M165.949,78.652l-2.542-1.996l-0.021,0.006l0.737,2.523l-1.911,0.558l-2.281-7.813l2.471-0.722
			c0.824-0.24,1.738-0.484,2.571-0.143c0.795,0.33,1.346,1.04,1.583,1.853c0.352,1.204-0.048,2.466-1.225,3.027l2.899,2.042
			L165.949,78.652z M163.082,72.912l-0.729,0.213l0.635,2.175l0.708-0.206c0.75-0.219,1.217-0.699,0.982-1.501
			C164.453,72.821,163.768,72.711,163.082,72.912z"/>
	</g>
	<g id="t-you">
		<path style="fill:#D8076D;" d="M90.28,132.241l2.524,1.539l-1.082,1.774l-2.524-1.54l-5.684-0.621l1.173-1.924l3.417,0.667
			l-2.152-2.741l1.162-1.905L90.28,132.241z"/>
		<path style="fill:#D8076D;" d="M96.568,128.348c-1.314,1.888-3.909,2.496-5.833,1.157c-0.497-0.346-0.91-0.754-1.245-1.255
			c-0.192-0.282-0.341-0.626-0.448-0.956c-0.425-1.315-0.197-2.645,0.595-3.783c1.358-1.951,3.958-2.488,5.927-1.118
			C97.542,123.77,97.933,126.388,96.568,128.348z M91.143,124.545c-0.761,1.093-0.367,2.454,0.681,3.183
			c1.066,0.742,2.497,0.651,3.27-0.459c0.749-1.075,0.312-2.452-0.709-3.162C93.346,123.384,91.904,123.453,91.143,124.545z"/>
		<path style="fill:#D8076D;" d="M102.345,119.269c0.105,0.873-0.192,1.649-0.734,2.328c-0.528,0.662-1.281,1.215-2.141,1.287
			c-1.07,0.088-1.659-0.284-2.467-0.93l-3.84-3.069l1.297-1.624l3.84,3.069c0.576,0.46,1.287,0.874,1.871,0.144
			c0.611-0.765,0.035-1.295-0.566-1.776l-3.84-3.069l1.298-1.624l3.84,3.069C101.659,117.679,102.234,118.28,102.345,119.269z"/>
	</g>
</g>


</svg>
