<?xml version="1.0" encoding="utf-8"?>
<!-- Generator: Adobe Illustrator 16.0.1, SVG Export Plug-In . SVG Version: 6.00 Build 0)  -->
<!DOCTYPE svg PUBLIC "-//W3C//DTD SVG 1.0//EN" "http://www.w3.org/TR/2001/REC-SVG-20010904/DTD/svg10.dtd">
<svg version="1.0" id="Layer_1" xmlns="http://www.w3.org/2000/svg" xmlns:xlink="http://www.w3.org/1999/xlink" x="0px" y="0px"
	 width="372.021px" height="371.995px" viewBox="-153.924 -153.996 372.021 371.995"
	 enable-background="new -153.924 -153.996 372.021 371.995" xml:space="preserve">
<g id="segments">
	<g id="g-you">
		<path fill="none" stroke="#D60470" stroke-width="2.1105" stroke-miterlimit="10" d="M152.202,32.187
			c0,8.366-0.848,16.532-2.467,24.41l56.097,11.789c5.277-25.14,4.887-50.717-0.539-75.044L149.304,5.788
			C151.21,14.283,152.202,23.116,152.202,32.187z"/>
	</g>
	<g id="g-partner">
		<path fill="none" stroke="#D60470" stroke-width="2.1105" stroke-miterlimit="10" d="M149.304,5.778l55.989-12.447
			c-11.389-50.757-44.833-96.093-95.189-120.755c-14.389-7.056-29.276-11.958-44.298-14.877L53.581-86.842
			C101.11-77.904,138.856-41.197,149.304,5.778z"/>
	</g>
	<g id="g-aunt">
		<path fill="none" stroke="#D60470" stroke-width="2.1105" stroke-miterlimit="10" d="M76.722,144.416l20.227,52.818
			c25.694-10.093,49.092-26.147,67.916-47.392l-42.524-37.992C109.98,125.978,94.379,137.222,76.722,144.416z"/>
	</g>
	<g id="g-sister">
		<path fill="none" stroke="#D60470" stroke-width="2.1105" stroke-miterlimit="10" d="M122.34,111.841l42.524,37.997
			c10.376-11.722,19.369-25.017,26.589-39.745c6.64-13.566,11.394-27.564,14.379-41.707l-56.097-11.789
			C145.47,77.466,135.835,96.367,122.34,111.841z"/>
	</g>
	<g id="g-mom">
		<path fill="none" stroke="#D60470" stroke-width="2.1105" stroke-miterlimit="10" d="M-60.997,110.869l-43.753,34.385
			c15.57,18.824,35.305,34.739,58.691,46.188c1.896,0.92,3.834,1.814,5.751,2.667l23.768-50.53
			C-33.781,136.215-48.972,124.935-60.997,110.869z"/>
	</g>
	<g id="g-girl">
		<path fill="none" stroke="#D60470" stroke-width="2.1105" stroke-miterlimit="10" d="M96.948,197.219L76.722,144.4
			c-14.086,5.746-29.487,8.911-45.634,8.911c-16.902,0-32.998-3.458-47.623-9.732l-23.763,50.53
			C4.75,214.234,54.033,214.069,96.948,197.219z"/>
	</g>
	<g id="g-friend">
		<path fill="none" stroke="#D60470" stroke-width="2.1105" stroke-miterlimit="10" d="M31.077-88.923
			c7.698,0,15.196,0.735,22.493,2.092l12.226-55.465c-76.827-14.934-157.123,22.575-193.198,96.212
			c-1.63,3.371-3.146,6.747-4.563,10.144l50.793,22.591C-63.171-57.662-19.69-88.923,31.077-88.923z"/>
	</g>
	<g id="g-maid">
		<path id="g-maid" fill="none" stroke="#D60470" stroke-width="2.1105" stroke-miterlimit="10" d="M-90.022,32.187
			c0-16.105,3.141-31.476,8.85-45.536l-50.793-22.591C-157.81,26.277-145.6,95.833-104.74,145.243l43.753-34.379
			C-79.097,89.707-90.022,62.229-90.022,32.187z"/>
	</g>
</g>
<g id="copy">
	<g id="t-girl">
		<path fill="#D60470" d="M74.239,175.296c0.4,1.48,0.241,2.785-0.432,3.911c-0.688,1.141-1.758,1.896-3.243,2.287
			c-0.945,0.246-1.84,0.246-2.651,0.015c-0.812-0.23-1.511-0.734-2.117-1.47l1.994-1.531c0.272,0.411,0.647,0.699,1.043,0.863
			c0.411,0.18,0.854,0.206,1.32,0.093c0.73-0.185,1.249-0.643,1.496-1.341c0.277-0.694,0.318-1.429,0.123-2.2
			c-0.195-0.755-0.602-1.361-1.167-1.84c-0.591-0.467-1.248-0.616-2.004-0.432c-0.529,0.145-0.936,0.401-1.223,0.761
			c-0.263,0.37-0.345,0.838-0.263,1.362l1.938-0.488l0.483,1.834l-4.728,1.249c-0.181-0.797-0.288-1.495-0.304-2.061
			c-0.041-0.596,0.082-1.197,0.304-1.814c0.575-1.402,1.659-2.327,3.31-2.759c1.428-0.376,2.724-0.231,3.874,0.432
			C73.129,172.819,73.874,173.857,74.239,175.296z"/>
		<path fill="#D60470" d="M61.278,173.651l1.846,9.25l-2.405,0.483l-1.845-9.255L61.278,173.651z"/>
		<path fill="#D60470" d="M56.191,174.659l1.367,9.332l-3.634,0.534c-0.986,0.145-1.813,0.016-2.462-0.385
			c-0.673-0.37-1.084-1.044-1.207-2.02c-0.123-0.674-0.011-1.27,0.288-1.819c0.287-0.52,0.745-0.89,1.361-1.115l-3.489-3.402
			l3.037-0.432l2.79,3.264l0.041-0.016l-0.523-3.582L56.191,174.659z M54.5,180.168l-0.21,0.031
			c-1.141,0.164-1.635,0.652-1.531,1.428c0.118,0.756,0.734,1.069,1.86,0.905l0.246-0.042L54.5,180.168z"/>
		<path fill="#D60470" d="M46.617,175.929l0.822,9.414l-2.431,0.221l-0.647-7.354l-2.939,0.282l-0.18-2.086L46.617,175.929z"/>
		<path fill="#D60470" d="M34.33,181.406c-0.01,1.362-0.488,2.492-1.418,3.448c-0.483,0.452-1.028,0.827-1.665,1.1
			c-0.647,0.268-1.285,0.401-1.933,0.386c-0.725-0.016-1.479-0.175-2.246-0.504l0.036-2.935c0.247,0.355,0.561,0.602,0.946,0.771
			c0.359,0.18,0.771,0.287,1.197,0.287c0.739,0,1.341-0.246,1.813-0.724c0.479-0.504,0.729-1.142,0.735-1.855
			c0.005-0.766-0.211-1.377-0.694-1.876c-0.452-0.488-1.079-0.734-1.84-0.75c-0.4,0-0.775,0.087-1.156,0.262
			c-0.375,0.175-0.709,0.437-0.976,0.735l0.03-2.935c0.961-0.288,1.686-0.427,2.169-0.427c1.347,0.016,2.528,0.473,3.546,1.413
			C33.853,178.739,34.346,179.921,34.33,181.406z"/>
		<path fill="#D60470" d="M24.535,176.514l-0.729,9.436l-3.654-0.303c-0.981-0.072-1.757-0.37-2.322-0.899
			c-0.565-0.524-0.812-1.26-0.735-2.241c0.057-0.678,0.283-1.228,0.679-1.706c0.4-0.447,0.95-0.725,1.599-0.781l-2.668-4.096
			l3.058,0.236l2.03,3.803h0.021l0.277-3.628L24.535,176.514z M21.688,181.524l-0.231-0.016c-1.136-0.087-1.727,0.263-1.799,1.038
			c-0.041,0.781,0.479,1.224,1.614,1.311l0.241,0.016L21.688,181.524z"/>
		<path fill="#D60470" d="M14.417,179.818l-0.786,5.242l-2.41-0.354l0.729-4.954c0.041-0.304,0.066-0.57,0.093-0.776
			c0.021-0.195,0.015-0.427-0.011-0.673c-0.031-0.283-0.082-0.483-0.175-0.653c-0.082-0.175-0.226-0.318-0.432-0.462
			c-0.205-0.123-0.447-0.221-0.74-0.263c-0.303-0.041-0.57-0.025-0.796,0.042c-0.236,0.092-0.417,0.164-0.54,0.328
			c-0.144,0.129-0.257,0.304-0.354,0.565c-0.113,0.236-0.164,0.442-0.205,0.652c-0.042,0.216-0.083,0.433-0.14,0.751l-0.729,4.938
			l-2.431-0.345l0.776-5.257c0.118-0.74,0.267-1.388,0.473-1.881c0.18-0.499,0.509-0.936,0.997-1.265
			c0.791-0.591,1.875-0.78,3.242-0.591c1.356,0.2,2.349,0.709,2.955,1.511c0.339,0.463,0.534,0.956,0.575,1.485
			C14.545,178.41,14.52,179.042,14.417,179.818z"/>
		<path fill="#D60470" d="M4.493,174.896l-1.434,1.716c-0.586-0.786-1.238-1.274-1.911-1.418c-0.329-0.066-0.617-0.052-0.864,0.057
			c-0.293,0.123-0.441,0.318-0.503,0.616c-0.088,0.438,0.21,0.812,0.935,1.219c0.036,0.015,0.145,0.056,0.283,0.159
			c0.427,0.21,0.74,0.396,0.971,0.56c0.231,0.159,0.458,0.36,0.663,0.606c0.206,0.247,0.35,0.524,0.391,0.822
			c0.036,0.345,0.005,0.704-0.087,1.131c-0.2,0.945-0.674,1.619-1.388,2.071c-0.714,0.441-1.542,0.55-2.477,0.344
			c-0.458-0.082-0.946-0.272-1.439-0.519c-0.483-0.263-0.925-0.55-1.284-0.854l1.356-1.665c0.405,0.499,0.899,0.822,1.47,0.945
			c0.241,0.062,0.488,0.047,0.734-0.056c0.242-0.088,0.401-0.247,0.438-0.488c0.041-0.145,0-0.319-0.093-0.483
			c-0.113-0.144-0.206-0.268-0.329-0.339c-0.107-0.093-0.247-0.17-0.432-0.278l-0.575-0.313c-0.668-0.359-1.162-0.791-1.485-1.264
			c-0.309-0.483-0.391-1.049-0.241-1.747c0.241-1.115,0.739-1.881,1.49-2.267c0.812-0.432,1.757-0.524,2.795-0.303
			C2.648,173.41,3.641,174.001,4.493,174.896z"/>
		<path fill="#D60470" d="M-4.325,172.069l-2.651,9.06l-2.369-0.684l1.027-3.505l-3.392-1.002l-1.027,3.515l-2.344-0.714
			l2.642-9.039l2.364,0.693l-1.079,3.716l3.392,0.981l1.079-3.716L-4.325,172.069z"/>
	</g>
	<g id="t-mom">
		<path fill="#D60470" d="M-39.337,157.937l-6.341,7.174l-2.051-1.279l1.038-5.304l-4.394,3.218l-2.076-1.274l3.777-8.783
			l2.07,1.306l-2.271,4.97l0.026,0.021l4.8-3.412l0.822,0.508l-1.028,5.756l0.016,0.016l3.546-4.198L-39.337,157.937z"/>
		<path fill="#D60470" d="M-53.644,154.669c-0.565,0.734-1.254,1.274-2.097,1.566c-0.853,0.319-1.706,0.401-2.59,0.217
			c-0.874-0.145-1.676-0.479-2.4-1.028c-0.729-0.545-1.295-1.208-1.675-2.009c-0.396-0.797-0.575-1.645-0.499-2.555
			c0.052-0.894,0.35-1.701,0.91-2.456c0.92-1.218,2.071-1.912,3.433-2.117c1.362-0.195,2.657,0.175,3.875,1.084
			c1.207,0.92,1.911,2.035,2.133,3.423C-52.364,152.146-52.724,153.456-53.644,154.669z M-55.674,153.116
			c0.468-0.632,0.674-1.32,0.586-2.076c-0.103-0.729-0.437-1.32-1.032-1.772c-0.591-0.442-1.265-0.606-1.989-0.483
			c-0.734,0.118-1.336,0.499-1.819,1.156c-0.396,0.524-0.539,1.141-0.432,1.871c0.124,0.704,0.479,1.284,1.054,1.716
			c0.575,0.427,1.229,0.602,1.942,0.52C-56.635,153.959-56.084,153.646-55.674,153.116z"/>
		<path fill="#D60470" d="M-60.324,143.476l-7.503,5.956l-1.804-1.618l1.938-5.026l-4.872,2.39l-1.818-1.64l5.252-7.955l1.824,1.63
			l-3.114,4.496l0.016,0.016l5.313-2.513l0.734,0.652l-2.029,5.488l0.03,0.016l4.214-3.536L-60.324,143.476z"/>
	</g>
	<g id="t-friend">
		<path fill="#D60470" d="M-96.24-34.841l-8.294-4.517l2.579-4.774l1.83,1.002l-1.408,2.611l1.382,0.75l1.296-2.364l1.818,0.987
			l-1.289,2.379l3.258,1.773L-96.24-34.841z"/>
		<path fill="#D60470" d="M-92.427-41.742l-7.996-4.995l1.942-3.119c0.509-0.832,1.136-1.382,1.881-1.64
			c0.725-0.241,1.49-0.118,2.322,0.391c0.576,0.37,0.972,0.817,1.192,1.398c0.227,0.56,0.216,1.161-0.03,1.783l4.851-0.468
			l-1.618,2.59l-4.302,0.025l-0.021,0.036l3.089,1.922L-92.427-41.742z M-95.531-46.583l0.124-0.205
			c0.601-0.961,0.564-1.655-0.093-2.062c-0.679-0.432-1.306-0.153-1.906,0.817l-0.134,0.2L-95.531-46.583z"/>
		<path fill="#D60470" d="M-87.195-49.877l-7.734-5.411l1.397-2.004l7.75,5.405L-87.195-49.877z"/>
		<path fill="#D60470" d="M-84.189-54.111l-7.478-5.74l3.254-4.266l1.654,1.274l-1.773,2.318l1.249,0.961l1.676-2.194l1.654,1.274
			l-1.686,2.194l1.285,0.991l1.788-2.312l1.64,1.265L-84.189-54.111z"/>
		<path fill="#D60470" d="M-79.308-60.438l-7.071-6.249l1.624-1.845l7.298,0.447l0.021-0.021l-4.327-3.823l1.624-1.835l7.071,6.265
			l-1.619,1.834L-82-66.142l-0.021,0.021l4.332,3.839L-79.308-60.438z"/>
		<path fill="#D60470" d="M-71.198-69.405l-6.547-6.793l2.503-2.416c0.94-0.909,2.07-1.377,3.387-1.366
			c1.305,0.01,2.41,0.478,3.335,1.418c0.925,0.961,1.347,2.086,1.32,3.402c-0.051,1.31-0.534,2.42-1.485,3.335L-71.198-69.405z
			 M-70.859-72.606l0.391-0.386c0.561-0.534,0.879-1.156,0.946-1.829c0.062-0.673-0.222-1.326-0.822-1.947
			c-0.586-0.602-1.197-0.89-1.887-0.879c-0.688,0-1.31,0.277-1.891,0.848l-0.416,0.4L-70.859-72.606z"/>
		<path fill="#D60470" d="M-65.617-78.881l-1.218-1.413l2.708-2.328l1.223,1.413L-65.617-78.881z"/>
		<path fill="#D60470" d="M-59.62-80.032l-2.831-9.713l2.132-1.618l8.562,5.344l-2.076,1.594l-1.5-0.931l-2.688,2.051l0.482,1.701
			L-59.62-80.032z M-58.618-85.212l1.624-1.244l-2.626-1.772l-0.021,0.01L-58.618-85.212z"/>
		<path fill="#D60470" d="M-55.529-92.319l-1.151-1.732l5.401-3.628l1.156,1.722l-1.665,1.131l4.096,6.11l-2.035,1.366l-4.106-6.095
			L-55.529-92.319z"/>
		<path fill="#D60470" d="M-45.997-93.445l-0.976-1.608l3.067-1.86l0.966,1.608L-45.997-93.445z"/>
		<path fill="#D60470" d="M-39.105-93.979l-4.486-8.299l4.774-2.591l0.997,1.835l-2.616,1.413l0.74,1.397l2.374-1.289l0.992,1.84
			l-2.374,1.269l1.762,3.259L-39.105-93.979z"/>
		<path fill="#D60470" d="M-32.06-97.674l-4.111-8.5l2.215-1.064l4.101,8.506L-32.06-97.674z"/>
		<path fill="#D60470" d="M-27.378-99.915l-3.664-8.7l3.376-1.423c0.909-0.381,1.747-0.463,2.482-0.258
			c0.739,0.206,1.305,0.766,1.68,1.66c0.268,0.622,0.309,1.233,0.165,1.824c-0.145,0.606-0.479,1.069-1.049,1.444l4.25,2.415
			l-2.816,1.177l-3.546-2.451l-0.021,0.021l1.403,3.341L-27.378-99.915z M-27.137-105.665l0.236-0.098
			c1.022-0.438,1.408-1.028,1.1-1.737c-0.303-0.734-0.997-0.868-2.035-0.437l-0.216,0.098L-27.137-105.665z"/>
		<path fill="#D60470" d="M-19.15-104.18l0.339-2.21c0.914,0.364,1.706,0.432,2.385,0.205c0.308-0.113,0.539-0.277,0.709-0.514
			c0.169-0.227,0.2-0.493,0.107-0.776c-0.134-0.411-0.632-0.585-1.443-0.539c-0.026,0-0.14,0-0.309,0.01
			c-0.483,0.031-0.848,0.041-1.126,0.021c-0.282-0.015-0.57-0.076-0.889-0.164c-0.304-0.107-0.565-0.282-0.745-0.529
			c-0.211-0.231-0.38-0.575-0.524-0.992c-0.318-0.898-0.277-1.721,0.093-2.481c0.391-0.745,1.027-1.285,1.927-1.588
			c0.447-0.165,0.961-0.268,1.521-0.313c0.545-0.047,1.063-0.021,1.526,0.071l-0.277,2.138c-0.612-0.23-1.192-0.246-1.748-0.056
			c-0.241,0.087-0.441,0.221-0.611,0.437c-0.154,0.2-0.195,0.432-0.134,0.657c0.057,0.154,0.17,0.283,0.345,0.355
			c0.18,0.082,0.334,0.123,0.447,0.128c0.148,0.005,0.313,0.005,0.529,0l0.647-0.021c0.771-0.036,1.413,0.062,1.911,0.288
			c0.529,0.252,0.905,0.719,1.136,1.361c0.381,1.079,0.355,1.994-0.087,2.729c-0.452,0.786-1.213,1.361-2.251,1.711
			C-16.782-103.877-17.943-103.852-19.15-104.18z"/>
		<path fill="#D60470" d="M-12.799-113.261l-0.57-2.009l6.284-1.748l0.55,2.005l-1.952,0.539l1.993,7.092l-2.368,0.663l-1.989-7.103
			L-12.799-113.261z"/>
		<path fill="#D60470" d="M-3.405-111.396l-0.437-1.834l3.464-0.812l0.446,1.83L-3.405-111.396z"/>
		<path fill="#D60470" d="M2.751-110.512l0.679-2.138c0.832,0.504,1.613,0.688,2.323,0.561c0.313-0.057,0.57-0.18,0.771-0.386
			c0.19-0.205,0.288-0.441,0.216-0.755c-0.067-0.427-0.52-0.674-1.331-0.751c-0.041,0-0.139-0.015-0.324-0.041
			c-0.457-0.046-0.832-0.092-1.104-0.148c-0.282-0.062-0.565-0.159-0.838-0.313c-0.287-0.145-0.523-0.35-0.684-0.633
			c-0.153-0.267-0.277-0.632-0.354-1.053c-0.164-0.94-0.021-1.758,0.473-2.446c0.488-0.684,1.224-1.105,2.159-1.28
			c0.467-0.087,0.981-0.107,1.531-0.066c0.555,0.041,1.063,0.149,1.521,0.298l-0.627,2.076c-0.564-0.323-1.136-0.437-1.711-0.334
			c-0.247,0.057-0.468,0.154-0.658,0.345c-0.195,0.18-0.282,0.38-0.241,0.632c0.046,0.154,0.129,0.293,0.304,0.396
			c0.144,0.113,0.293,0.175,0.416,0.2c0.139,0.026,0.303,0.062,0.524,0.088l0.642,0.082c0.766,0.072,1.378,0.268,1.851,0.591
			c0.488,0.309,0.775,0.812,0.914,1.511c0.19,1.131,0.026,2.01-0.508,2.683c-0.576,0.694-1.414,1.156-2.487,1.336
			C5.038-109.838,3.882-109.992,2.751-110.512z"/>
		<path fill="#D60470" d="M12.043-111.251l-1.224-9.363l2.415-0.318l1.244,9.357L12.043-111.251z"/>
		<path fill="#D60470" d="M16.344-116.57c-0.103-1.516,0.288-2.78,1.141-3.787c0.869-0.986,2.076-1.542,3.603-1.649
			c0.987-0.067,1.855,0.087,2.621,0.462c0.734,0.381,1.347,1.008,1.813,1.83l-2.25,1.171c-0.206-0.478-0.494-0.816-0.869-1.079
			c-0.37-0.236-0.781-0.339-1.29-0.303c-0.734,0.057-1.32,0.411-1.711,1.033c-0.391,0.652-0.555,1.361-0.498,2.147
			c0.066,0.786,0.328,1.465,0.822,2.025c0.482,0.58,1.115,0.827,1.896,0.775c0.529-0.041,0.977-0.211,1.321-0.539
			c0.334-0.309,0.509-0.735,0.519-1.274l-1.999,0.148l-0.144-1.917l4.866-0.364c0.031,0.827,0.021,1.521-0.057,2.097
			c-0.082,0.575-0.287,1.13-0.647,1.695c-0.775,1.295-2.029,2.01-3.73,2.133c-1.48,0.118-2.724-0.262-3.736-1.115
			C17.017-113.939,16.457-115.101,16.344-116.57z"/>
		<path fill="#D60470" d="M28.775-112.67l0.051-9.445l2.457,0.016l-0.031,3.644l3.546,0.025l0.03-3.644l2.441,0.011l-0.052,9.44
			l-2.456-0.016l0.025-3.864l-3.546-0.031l-0.021,3.875L28.775-112.67z"/>
		<path fill="#D60470" d="M39.711-119.859l0.159-2.07l6.49,0.473l-0.164,2.076l-2.015-0.154l-0.509,7.344l-2.462-0.175l0.535-7.339
			L39.711-119.859z"/>
	</g>
	<g id="t-partner">
		<path fill="#D60470" d="M74.383-106.333l2.986-8.958l3.571,1.183c0.986,0.344,1.701,0.848,2.127,1.536
			c0.411,0.679,0.453,1.521,0.14,2.498c-0.658,2.024-2.062,2.692-4.193,1.983l-1.316-0.437l-0.991,2.965L74.383-106.333z
			 M78.319-110.408l0.401,0.133c0.221,0.088,0.391,0.134,0.482,0.154c0.124,0.031,0.298,0.067,0.473,0.088
			c0.19,0.025,0.329,0.016,0.452-0.041c0.098-0.036,0.222-0.108,0.329-0.231c0.124-0.123,0.206-0.283,0.288-0.493
			c0.057-0.222,0.082-0.422,0.072-0.586c-0.016-0.165-0.041-0.309-0.098-0.422c-0.067-0.098-0.165-0.205-0.329-0.293
			c-0.165-0.103-0.304-0.164-0.427-0.205c-0.118-0.062-0.288-0.123-0.509-0.195l-0.4-0.139L78.319-110.408z"/>
		<path fill="#D60470" d="M81.577-103.964l6.907-7.38l2.477,1.002l-0.23,10.088l-2.432-0.986l0.052-1.742l-3.14-1.274l-1.213,1.279
			L81.577-103.964z M86.552-105.747l1.892,0.766l0.185-3.166l-0.016-0.005L86.552-105.747z"/>
		<path fill="#D60470" d="M92.421-99.452l4.146-8.484l3.305,1.608c0.879,0.437,1.485,0.997,1.814,1.701
			c0.329,0.693,0.277,1.479-0.149,2.354c-0.288,0.606-0.714,1.043-1.254,1.331c-0.545,0.287-1.136,0.329-1.768,0.139l0.961,4.789
			l-2.749-1.336l-0.483-4.275l-0.025-0.016l-1.594,3.273L92.421-99.452z M96.912-103.055l0.206,0.113
			c1.022,0.493,1.695,0.405,2.061-0.319c0.329-0.703,0.016-1.295-1.022-1.798l-0.231-0.113L96.912-103.055z"/>
		<path fill="#D60470" d="M104.024-101.894l1.018-1.813l5.658,3.212l-1.018,1.809l-1.773-1.013l-3.623,6.408l-2.152-1.192
			l3.633-6.418L104.024-101.894z"/>
		<path fill="#D60470" d="M107.766-91.281l5.195-7.883l2.046,1.351l0.591,7.298l0.015,0.005l3.177-4.815l2.045,1.347l-5.195,7.878
			l-2.046-1.336l-0.575-7.317l-0.016-0.021l-3.186,4.835L107.766-91.281z"/>
		<path fill="#D60470" d="M117.792-84.478l5.734-7.503l4.256,3.264l-1.254,1.649l-2.318-1.783l-0.955,1.264l2.188,1.676
			l-1.264,1.654l-2.189-1.68l-0.997,1.3l2.333,1.768l-1.264,1.649L117.792-84.478z"/>
		<path fill="#D60470" d="M124.118-79.569l6.182-7.144l2.77,2.4c0.751,0.647,1.208,1.336,1.326,2.106
			c0.144,0.756-0.098,1.501-0.734,2.235c-0.438,0.504-0.981,0.827-1.573,0.961c-0.591,0.145-1.182,0.036-1.736-0.298l-0.277,4.866
			l-2.323-1.999l0.622-4.255l-0.031-0.021l-2.363,2.749L124.118-79.569z M129.38-81.913l0.175,0.154
			c0.863,0.74,1.558,0.817,2.045,0.226c0.524-0.606,0.365-1.264-0.487-2.004l-0.19-0.154L129.38-81.913z"/>
		<path fill="#D60470" d="M135.223-69.364l6.784-6.562l1.706,1.768l-6.794,6.567L135.223-69.364z"/>
		<path fill="#D60470" d="M138.836-65.664l7.163-6.141l1.594,1.855l-1.439,7.179l0.011,0.031l4.383-3.768l1.594,1.86l-7.159,6.146
			l-1.593-1.865l1.46-7.174l-0.016-0.021l-4.399,3.762L138.836-65.664z"/>
		<path fill="#D60470" d="M153.481-55.031c1.115-0.756,2.339-1.022,3.648-0.781c0.658,0.134,1.28,0.365,1.855,0.729
			c0.576,0.381,1.059,0.838,1.429,1.378c0.4,0.591,0.699,1.325,0.863,2.132l-2.431,1.65c0.139-0.406,0.159-0.797,0.113-1.218
			c-0.082-0.417-0.221-0.797-0.468-1.157c-0.401-0.611-0.977-0.971-1.64-1.073c-0.684-0.113-1.325,0.051-1.927,0.462
			c-0.617,0.427-0.992,0.972-1.141,1.619c-0.139,0.652,0.021,1.311,0.452,1.927c0.216,0.329,0.514,0.606,0.879,0.807
			c0.344,0.216,0.734,0.345,1.12,0.376l-2.431,1.654c-0.771-0.622-1.306-1.136-1.583-1.547c-0.756-1.104-1.027-2.344-0.838-3.705
			C151.55-53.119,152.274-54.209,153.481-55.031z"/>
		<path fill="#D60470" d="M155.044-44.193l8.146-4.769l1.854,3.16c0.494,0.858,0.694,1.649,0.565,2.426
			c-0.113,0.761-0.58,1.393-1.429,1.876c-0.57,0.349-1.172,0.487-1.772,0.416c-0.622-0.062-1.12-0.35-1.552-0.843l-1.846,4.517
			l-1.552-2.641l1.963-3.824l-0.01-0.03l-3.135,1.84L155.044-44.193z M160.779-44.702l0.128,0.2c0.565,0.981,1.213,1.28,1.871,0.879
			c0.688-0.4,0.729-1.079,0.164-2.065l-0.144-0.206L160.779-44.702z"/>
		<path fill="#D60470" d="M159.782-35.812l8.382-4.353l1.141,2.188l-8.382,4.343L159.782-35.812z"/>
		<path fill="#D60470" d="M162.007-31.747l9.281-2.333l0.981,2.2l-3.864,3.797l5.432-0.175l0.997,2.246l-8.073,5.093l-0.997-2.251
			l4.718-2.811l-0.016-0.011l-5.895,0.098l-0.405-0.884l4.121-4.178l-0.016-0.021l-5.304,1.464L162.007-31.747z"/>
		<path fill="#D60470" d="M167.429-18.895l8.891-3.145l1.819,5.062l-1.964,0.694l-0.976-2.75l-1.506,0.524l0.93,2.601l-1.938,0.693
			l-0.95-2.61l-1.531,0.55l0.997,2.755l-1.964,0.693L167.429-18.895z"/>
	</g>
	<g id="t-you">
		<path fill="#D60470" d="M185.07,13.414l0.263,2.93l-2.41,1.988l2.724,1.511l0.293,2.945l-5.222-3.027l-4.527,0.416l-0.216-2.436
			l4.527-0.416L185.07,13.414z"/>
		<path fill="#D60470" d="M181.499,24.746c0.92-0.016,1.773,0.23,2.533,0.693c0.746,0.488,1.326,1.125,1.758,1.906
			c0.422,0.792,0.622,1.649,0.622,2.544c0.01,0.915-0.159,1.768-0.565,2.569c-0.386,0.776-0.945,1.454-1.695,1.938
			c-0.735,0.504-1.589,0.756-2.493,0.776c-1.531,0.021-2.785-0.447-3.782-1.408c-0.981-0.977-1.479-2.21-1.516-3.736
			c-0.016-1.511,0.452-2.77,1.413-3.767C178.729,25.275,179.968,24.756,181.499,24.746z M181.515,27.3
			c-0.786,0.005-1.46,0.268-1.994,0.802c-0.524,0.524-0.775,1.156-0.775,1.896c0.015,0.745,0.303,1.366,0.832,1.886
			c0.55,0.493,1.229,0.755,2.03,0.74c0.652-0.006,1.243-0.283,1.722-0.812c0.482-0.534,0.734-1.151,0.734-1.886
			c0-0.735-0.262-1.342-0.771-1.865C182.778,27.541,182.188,27.284,181.515,27.3z"/>
		<path fill="#D60470" d="M180.79,37.696l5.293,0.354l-0.164,2.445l-5.006-0.328c-0.313-0.016-0.56-0.026-0.766-0.026
			c-0.195,0-0.441,0.026-0.673,0.067c-0.263,0.041-0.483,0.107-0.632,0.221c-0.17,0.098-0.319,0.262-0.438,0.447
			c-0.123,0.226-0.169,0.457-0.185,0.775c-0.025,0.288,0.016,0.556,0.082,0.771c0.098,0.231,0.206,0.4,0.37,0.519
			c0.139,0.139,0.344,0.227,0.591,0.319c0.252,0.082,0.468,0.123,0.673,0.144c0.195,0.025,0.442,0.052,0.745,0.082l5.016,0.313
			l-0.164,2.441l-5.293-0.329c-0.761-0.062-1.397-0.154-1.917-0.318c-0.509-0.149-0.956-0.438-1.336-0.895
			c-0.652-0.74-0.931-1.824-0.827-3.187c0.082-1.366,0.488-2.399,1.248-3.052c0.442-0.381,0.91-0.638,1.444-0.725
			C179.361,37.654,180.009,37.624,180.79,37.696z"/>
	</g>
	<g id="t-sister">
		<path fill="#D60470" d="M171.104,74.789l1.552,1.613c-0.848,0.498-1.388,1.079-1.619,1.758c-0.098,0.303-0.113,0.591-0.03,0.879
			c0.071,0.262,0.262,0.462,0.564,0.564c0.401,0.124,0.828-0.153,1.306-0.837c0.016-0.016,0.072-0.098,0.18-0.247
			c0.247-0.386,0.468-0.688,0.658-0.895c0.195-0.205,0.411-0.421,0.673-0.58c0.277-0.175,0.565-0.313,0.895-0.313
			c0.303-0.016,0.678,0.077,1.1,0.221c0.904,0.304,1.536,0.833,1.901,1.599c0.37,0.75,0.4,1.593,0.082,2.487
			c-0.144,0.452-0.37,0.914-0.684,1.366c-0.293,0.468-0.642,0.858-0.997,1.192l-1.511-1.536c0.55-0.354,0.931-0.786,1.11-1.347
			c0.072-0.247,0.082-0.493,0.031-0.756c-0.072-0.246-0.211-0.416-0.458-0.493c-0.144-0.041-0.313-0.025-0.473,0.067
			c-0.159,0.082-0.272,0.169-0.391,0.282c-0.082,0.093-0.175,0.236-0.318,0.422l-0.37,0.519c-0.432,0.622-0.92,1.079-1.413,1.326
			c-0.509,0.277-1.1,0.293-1.758,0.071c-1.089-0.364-1.804-0.94-2.117-1.747c-0.329-0.843-0.329-1.798,0.011-2.811
			C169.402,76.459,170.106,75.523,171.104,74.789z"/>
		<path fill="#D60470" d="M167.285,83.283l8.771,3.423l-0.878,2.297l-8.793-3.423L167.285,83.283z"/>
		<path fill="#D60470" d="M166.304,88.073l1.352,1.757c-0.895,0.406-1.485,0.946-1.773,1.588c-0.139,0.288-0.159,0.592-0.123,0.869
			c0.057,0.287,0.236,0.493,0.524,0.621c0.385,0.175,0.837-0.071,1.356-0.678c0.016-0.025,0.082-0.118,0.216-0.231
			c0.288-0.386,0.534-0.663,0.734-0.832c0.231-0.195,0.468-0.391,0.735-0.545c0.272-0.165,0.596-0.206,0.915-0.206
			c0.313,0.026,0.673,0.145,1.063,0.318c0.894,0.396,1.454,0.972,1.747,1.773c0.272,0.802,0.231,1.619-0.149,2.492
			c-0.205,0.432-0.462,0.874-0.807,1.285c-0.37,0.447-0.725,0.816-1.115,1.089l-1.361-1.654c0.591-0.304,0.991-0.72,1.238-1.233
			c0.118-0.252,0.144-0.483,0.118-0.745c-0.052-0.262-0.159-0.437-0.406-0.534c-0.144-0.067-0.318-0.067-0.488,0
			c-0.159,0.082-0.303,0.144-0.405,0.246c-0.108,0.082-0.222,0.222-0.37,0.381l-0.411,0.482c-0.509,0.591-1.018,0.992-1.552,1.197
			c-0.524,0.222-1.115,0.16-1.748-0.118c-1.043-0.457-1.69-1.104-1.922-1.916c-0.262-0.89-0.164-1.825,0.288-2.821
			C164.428,89.563,165.214,88.715,166.304,88.073z"/>
		<path fill="#D60470" d="M168.533,98.896l1.866,0.945l-3.007,5.787l-1.84-0.972l0.936-1.788l-6.542-3.382l1.126-2.184l6.541,3.392
			L168.533,98.896z"/>
		<path fill="#D60470" d="M158.024,103.043l8.146,4.794l-2.719,4.62l-1.799-1.063l1.48-2.519l-1.356-0.786l-1.403,2.39l-1.799-1.043
			l1.397-2.405l-1.397-0.807l-1.485,2.508l-1.788-1.049L158.024,103.043z"/>
		<path fill="#D60470" d="M153.934,109.924l7.812,5.252l-2.03,3.047c-0.55,0.817-1.197,1.337-1.932,1.583
			c-0.735,0.236-1.517,0.082-2.323-0.473c-0.55-0.375-0.936-0.858-1.125-1.424c-0.2-0.58-0.175-1.161,0.087-1.772l-4.856,0.298
			l1.686-2.533l4.297,0.107l0.03-0.025l-3.021-2.02L153.934,109.924z M156.889,114.862l-0.144,0.19
			c-0.627,0.935-0.627,1.629,0.025,2.076c0.663,0.426,1.306,0.185,1.933-0.761l0.144-0.211L156.889,114.862z"/>
	</g>
	<g id="t-aunt">
		<path fill="#D60470" d="M130.993,137.644l3.479,9.48l-2.004,1.758l-8.891-4.738l1.963-1.731l1.537,0.822l2.543-2.22l-0.591-1.66
			L130.993,137.644z M130.361,142.849l-1.531,1.347l2.729,1.613l0.016-0.01L130.361,142.849z"/>
		<path fill="#D60470" d="M124.652,148.538l3.181,4.244l-1.958,1.465l-3.006-4.003c-0.18-0.247-0.35-0.442-0.468-0.591
			c-0.144-0.165-0.318-0.329-0.504-0.494c-0.205-0.148-0.391-0.277-0.575-0.318c-0.165-0.057-0.391-0.066-0.632-0.016
			c-0.231,0.041-0.468,0.154-0.72,0.345c-0.236,0.164-0.422,0.386-0.524,0.591c-0.103,0.206-0.159,0.411-0.159,0.606
			c0.016,0.18,0.057,0.406,0.159,0.637c0.103,0.247,0.206,0.447,0.318,0.612c0.104,0.18,0.247,0.385,0.432,0.616l3.037,4.014
			l-1.979,1.501l-3.176-4.261c-0.446-0.606-0.796-1.166-1.018-1.654c-0.221-0.479-0.287-1.033-0.189-1.619
			c0.144-0.966,0.766-1.881,1.854-2.703c1.101-0.832,2.148-1.172,3.146-1.033c0.575,0.072,1.063,0.278,1.485,0.606
			C123.763,147.448,124.195,147.937,124.652,148.538z"/>
		<path fill="#D60470" d="M113.434,151.667l5.052,8.002l-2.061,1.311l-6.896-2.478l-0.016,0.011l3.084,4.887l-2.076,1.3l-5.026-7.97
			l2.061-1.321l6.881,2.503l0.031-0.041l-3.094-4.877L113.434,151.667z"/>
		<path fill="#D60470" d="M107.252,164.155l0.981,1.829l-5.72,3.083l-0.997-1.829l1.783-0.961l-3.5-6.485l2.164-1.161l3.515,6.47
			L107.252,164.155z"/>
	</g>
	<g id="t-maid">
		<path fill="#D60470" d="M-87.627,113.516l-8.875,3.628l-1.28-2.05l3.284-4.291l-5.36,0.95l-1.295-2.07l7.262-6.203l1.29,2.071
			l-4.245,3.458l0.031,0.031l5.807-0.951l0.509,0.822l-3.479,4.713l0.021,0.025l5.03-2.215L-87.627,113.516z"/>
		<path fill="#D60470" d="M-94.467,102.339l-10.058,1.063l-1.228-2.39l6.772-7.478l1.197,2.344l-1.182,1.3l1.558,3.022l1.741-0.181
			L-94.467,102.339z M-99.385,100.432l-0.936-1.818l-2.226,2.261l0.016,0.025L-99.385,100.432z"/>
		<path fill="#D60470" d="M-99.663,91.809l-8.644,3.813l-0.986-2.235l8.634-3.823L-99.663,91.809z"/>
		<path fill="#D60470" d="M-101.77,87.065l-8.829,3.346l-1.243-3.253c-0.463-1.244-0.432-2.451,0.087-3.654
			c0.514-1.207,1.393-2.045,2.632-2.513c1.223-0.468,2.445-0.427,3.628,0.124c1.197,0.564,2.024,1.454,2.492,2.692L-101.77,87.065z
			 M-104.575,85.498l-0.201-0.503c-0.282-0.746-0.719-1.285-1.325-1.599c-0.591-0.318-1.295-0.329-2.112-0.016
			c-0.776,0.288-1.295,0.75-1.562,1.383c-0.262,0.621-0.241,1.325,0.041,2.065l0.206,0.55L-104.575,85.498z"/>
		<path fill="#D60470" d="M-111.673,73.668c-0.878,0.227-1.757,0.201-2.6-0.098c-0.858-0.303-1.578-0.775-2.158-1.448
			c-0.592-0.669-1.003-1.444-1.233-2.328c-0.211-0.869-0.227-1.753-0.041-2.611c0.21-0.873,0.611-1.649,1.228-2.302
			c0.602-0.658,1.347-1.104,2.246-1.356c1.479-0.354,2.816-0.17,3.998,0.539c1.182,0.699,1.958,1.783,2.328,3.269
			c0.38,1.47,0.2,2.796-0.479,3.988C-109.088,72.518-110.177,73.299-111.673,73.668z M-112.273,71.182
			c0.771-0.195,1.356-0.622,1.763-1.239c0.396-0.637,0.493-1.32,0.318-2.035c-0.19-0.719-0.606-1.274-1.254-1.623
			c-0.647-0.396-1.356-0.463-2.138-0.263c-0.647,0.159-1.146,0.55-1.49,1.203c-0.36,0.616-0.442,1.289-0.277,2.004
			c0.175,0.688,0.57,1.229,1.191,1.634C-113.533,71.232-112.916,71.361-112.273,71.182z"/>
		<path fill="#D60470" d="M-109.863,60.153l-9.281,1.67l-0.966-5.334l2.045-0.37l0.529,2.919l1.542-0.277l-0.457-2.652l2.04-0.364
			l0.478,2.656l3.644-0.668L-109.863,60.153z"/>
		<path fill="#D60470" d="M-111.903,46.961l-9.41,0.725l-0.18-2.461l3.623-0.268l-0.257-3.525l-3.639,0.263l-0.169-2.446
			l9.398-0.715l0.186,2.446l-3.859,0.304l0.277,3.53l3.844-0.288L-111.903,46.961z"/>
		<path fill="#D60470" d="M-117.552,36.293c-0.93,0-1.768-0.262-2.518-0.729c-0.745-0.509-1.315-1.162-1.727-1.938
			c-0.391-0.797-0.581-1.655-0.581-2.56c0.011-0.915,0.216-1.763,0.622-2.549c0.411-0.786,0.997-1.438,1.747-1.911
			c0.75-0.488,1.599-0.735,2.523-0.735c1.521,0.016,2.76,0.509,3.73,1.49c0.967,0.992,1.444,2.246,1.429,3.752
			c-0.005,1.525-0.488,2.759-1.47,3.735C-114.781,35.825-116.025,36.309-117.552,36.293z M-117.525,33.76
			c0.796,0,1.47-0.263,2.015-0.766c0.534-0.52,0.812-1.151,0.812-1.902c0.005-0.734-0.262-1.366-0.791-1.891
			c-0.535-0.52-1.208-0.776-2.005-0.797c-0.663,0-1.243,0.263-1.742,0.786c-0.503,0.529-0.755,1.142-0.755,1.881
			c0,0.73,0.236,1.347,0.734,1.876C-118.77,33.481-118.193,33.76-117.525,33.76z"/>
		<path fill="#D60470" d="M-112.474,23.692l-9.395-0.854l0.221-2.431l6.151-3.973v-0.021l-5.75-0.514l0.226-2.446l9.41,0.838
			l-0.231,2.456l-6.151,3.947l-0.016,0.03l5.756,0.535L-112.474,23.692z"/>
		<path fill="#D60470" d="M-116.18,11.297c-0.914-0.154-1.695-0.55-2.343-1.166c-0.652-0.617-1.126-1.347-1.388-2.2
			c-0.252-0.843-0.293-1.716-0.144-2.615c0.144-0.899,0.503-1.696,1.032-2.41c0.535-0.715,1.224-1.254,2.046-1.604
			c0.832-0.35,1.695-0.447,2.605-0.293c1.506,0.262,2.636,0.977,3.433,2.102c0.797,1.142,1.043,2.451,0.781,3.952
			c-0.252,1.48-0.951,2.631-2.092,3.428C-113.353,11.297-114.674,11.554-116.18,11.297z M-115.727,8.769
			c0.791,0.154,1.505,0,2.122-0.421c0.627-0.406,1.007-0.977,1.12-1.722c0.149-0.725-0.031-1.388-0.457-1.979
			c-0.438-0.602-1.059-0.987-1.846-1.126c-0.657-0.107-1.279,0.047-1.865,0.468c-0.575,0.438-0.914,1.018-1.063,1.732
			c-0.118,0.698,0.016,1.366,0.427,1.973C-116.904,8.296-116.38,8.676-115.727,8.769z"/>
		<path fill="#D60470" d="M-109-0.312l-9.143-2.339l0.899-3.551c0.241-0.956,0.684-1.66,1.311-2.133
			c0.602-0.462,1.388-0.57,2.328-0.339c0.657,0.164,1.166,0.504,1.547,0.966c0.396,0.463,0.56,1.033,0.519,1.701l4.477-1.906
			l-0.745,2.955l-4.086,1.336l-0.01,0.041l3.515,0.889L-109-0.312z M-113.436-3.976l0.057-0.222
			c0.272-1.104,0.041-1.757-0.729-1.942c-0.745-0.195-1.274,0.263-1.567,1.352l-0.062,0.231L-113.436-3.976z"/>
	</g>
</g>
<path id="inner-outline" fill="none" stroke="#FFFFFF" stroke-width="10.9657" stroke-miterlimit="10" d="M-90.457,32.017
	c0-67.688,54.877-122.546,122.536-122.546c67.709,0,122.558,54.857,122.558,122.546c0,67.664-54.849,122.527-122.558,122.527
	C-35.579,154.544-90.457,99.681-90.457,32.017z"/>
<path id="inner-outline" fill="none" stroke="#D60470" stroke-width="10.5527" stroke-miterlimit="10" d="M-148.647,32.018
	c0-99.824,80.923-180.737,180.727-180.737c99.85,0,180.742,80.913,180.742,180.737c0,99.788-80.893,180.705-180.742,180.705
	C-67.725,212.733-148.647,131.815-148.647,32.018z"/>
<g id="centercopy">
	<path id="center" fill="#D60470" stroke="#FFFFFF" stroke-width="6" stroke-miterlimit="10" d="M32.09-31.141
		c34.883,0,63.152,28.274,63.152,63.152c0,34.884-28.27,63.158-63.152,63.158c-34.878,0-63.152-28.274-63.152-63.158
		C-31.062-2.866-2.788-31.141,32.09-31.141z"/>
	<g>
		<g>
			<path fill="#FFFFFF" d="M-7.48,32.156c0-1.742,0.597-3.228,1.794-4.45c0.606-0.617,1.315-1.1,2.138-1.46
				c0.807-0.35,1.639-0.519,2.487-0.519c0.93,0,1.896,0.2,2.888,0.606v3.787c-0.313-0.422-0.72-0.756-1.213-0.986
				C0.12,28.903-0.404,28.79-0.954,28.79c-0.956,0-1.731,0.324-2.338,0.977c-0.602,0.647-0.91,1.444-0.91,2.405
				s0.309,1.757,0.91,2.374c0.606,0.621,1.397,0.935,2.379,0.935c0.515,0,1.023-0.123,1.496-0.354
				c0.498-0.221,0.894-0.539,1.238-0.935v3.792c-1.224,0.37-2.158,0.565-2.791,0.565c-1.731,0-3.253-0.606-4.568-1.793
				C-6.822,35.578-7.48,34.047-7.48,32.156z"/>
			<path fill="#FFFFFF" d="M5.11,38.226l4.687-12.17h3.458l4.59,12.17h-3.377l-0.796-2.112H9.309l-0.838,2.112H5.11z M10.188,33.683
				h2.642l-1.301-3.875h-0.025L10.188,33.683z"/>
			<path fill="#FFFFFF" d="M21.236,38.226v-12.17h3.16l5.797,7.437h0.03v-7.437h3.171v12.17h-3.171l-5.791-7.457h-0.036v7.457
				H21.236z"/>
			<path fill="#FFFFFF" d="M37.26,32.156c0-1.742,0.601-3.228,1.798-4.45c0.606-0.617,1.321-1.1,2.138-1.46
				c0.817-0.35,1.65-0.519,2.493-0.519c0.935,0,1.901,0.2,2.888,0.606v3.787c-0.318-0.422-0.729-0.756-1.213-0.986
				c-0.493-0.231-1.018-0.345-1.562-0.345c-0.955,0-1.741,0.324-2.343,0.977c-0.606,0.647-0.91,1.444-0.91,2.405
				s0.309,1.757,0.915,2.374c0.606,0.621,1.403,0.935,2.385,0.935c0.514,0,1.022-0.123,1.506-0.354
				c0.478-0.221,0.889-0.539,1.223-0.935v3.792c-1.223,0.37-2.153,0.565-2.785,0.565c-1.737,0-3.258-0.606-4.568-1.793
				C37.917,35.578,37.26,34.047,37.26,32.156z"/>
			<path fill="#FFFFFF" d="M50.96,38.226v-12.17h6.922v2.678H54.11v2.035h3.581v2.683H54.11v2.092h3.771v2.683H50.96z"/>
			<path fill="#FFFFFF" d="M62.25,38.226v-12.17h4.738c1.27,0,2.292,0.304,3.067,0.931c0.776,0.622,1.167,1.557,1.167,2.806
				c0,0.879-0.231,1.629-0.704,2.262c-0.463,0.637-1.12,1.022-1.958,1.177l3.818,4.995h-3.941l-2.986-4.682H65.41v4.682H62.25z
				 M65.41,31.514h0.313c1.47,0,2.189-0.509,2.189-1.526s-0.729-1.521-2.189-1.521H65.41V31.514z"/>
		</g>
	</g>
</g>
<g id="breast">
	<path fill="#D60470" d="M-92.551,31.956l0.108,0.056c0-68.779,55.758-124.537,124.526-124.537
		c68.79,0,124.553,55.758,124.553,124.537l-0.714-0.056l-60.681,0.056c0-34.878-28.27-63.152-63.158-63.152
		c-34.872,0-63.152,28.274-63.152,63.152L-92.551,31.956z"/>
	<g>
		<g>
			<path fill="#FFFFFF" d="M-29.865-18.072l-15.067-14.815l5.514-5.606c2.944-2.985,5.704-3.207,8.294-0.647
				c1.476,1.465,1.948,3.017,1.424,4.677l0.041,0.041c2.276-1.783,4.568-1.553,6.887,0.714c0.766,0.756,1.279,1.562,1.536,2.421
				c0.257,0.857,0.293,1.711,0.087,2.549c-0.2,0.832-0.534,1.629-0.996,2.39c-0.468,0.766-1.059,1.521-1.773,2.245L-29.865-18.072z
				 M-35.246-31.059l0.437-0.446c0.622-0.638,1.033-1.249,1.224-1.824c0.18-0.576,0-1.142-0.561-1.681
				c-0.318-0.313-0.643-0.524-0.971-0.586c-0.329-0.077-0.663-0.031-0.997,0.149c-0.34,0.164-0.617,0.344-0.858,0.534
				c-0.236,0.2-0.52,0.447-0.843,0.781l-0.283,0.287L-35.246-31.059z M-29.018-24.922l0.504-0.509l0.632-0.638
				c0.113-0.113,0.309-0.339,0.596-0.688c0.299-0.345,0.479-0.632,0.565-0.854c0.082-0.226,0.17-0.493,0.263-0.816
				c0.087-0.324,0.082-0.622-0.021-0.884c-0.107-0.272-0.298-0.545-0.564-0.812c-0.206-0.195-0.401-0.35-0.597-0.468
				c-0.2-0.123-0.4-0.175-0.611-0.185c-0.2-0.005-0.38-0.005-0.545-0.011c-0.159,0-0.359,0.052-0.58,0.186
				c-0.236,0.134-0.411,0.231-0.529,0.288c-0.124,0.071-0.304,0.2-0.545,0.432c-0.242,0.216-0.401,0.369-0.473,0.441l-0.488,0.493
				l-0.438,0.438l-0.396,0.4L-29.018-24.922z"/>
			<path fill="#FFFFFF" d="M-10.395-35.396l-9.496-18.891l7.349-3.68c1.968-1.002,3.803-1.315,5.483-0.95
				c1.69,0.359,3.026,1.511,3.998,3.458c0.678,1.352,0.899,2.698,0.678,4.055c-0.236,1.347-0.95,2.472-2.133,3.366l9.826,4.754
				l-6.12,3.067l-8.274-4.938l-0.062,0.021l3.659,7.267L-10.395-35.396z M-10.723-48.278l0.468-0.236
				c2.281-1.151,3.026-2.508,2.229-4.075c-0.786-1.573-2.317-1.773-4.589-0.638l-0.478,0.247L-10.723-48.278z"/>
			<path fill="#FFFFFF" d="M13.774-45.375L10.48-66.25l11.876-1.886l0.72,4.6l-6.455,1.022l0.556,3.494l6.12-0.981l0.729,4.604
				l-6.131,0.967l0.581,3.607l6.454-1.028l0.73,4.59L13.774-45.375z"/>
			<path fill="#FFFFFF" d="M34.32-48.012l11.506-19.513l5.909,0.992l4.374,22.159l-5.771-0.961l-0.756-3.844l-7.472-1.265
				l-2.035,3.376L34.32-48.012z M44.295-54.322l4.512,0.75l-1.09-7.015l-0.062-0.005L44.295-54.322z"/>
			<path fill="#FFFFFF" d="M64.085-42.991l4.198-2.759c0.755,2.081,1.85,3.499,3.242,4.26c0.633,0.345,1.265,0.488,1.907,0.416
				c0.637-0.071,1.115-0.405,1.449-1.018c0.452-0.827,0.025-1.896-1.295-3.19c-0.026-0.042-0.19-0.211-0.479-0.499
				c-0.755-0.734-1.32-1.336-1.727-1.835c-0.391-0.487-0.734-1.053-1.038-1.731c-0.303-0.658-0.396-1.336-0.288-2.035
				c0.118-0.704,0.406-1.49,0.869-2.363c1.027-1.876,2.451-3.068,4.275-3.557c1.824-0.504,3.664-0.241,5.54,0.781
				c0.935,0.504,1.86,1.192,2.77,2.051c0.904,0.853,1.634,1.752,2.205,2.661l-3.978,2.714c-0.535-1.352-1.378-2.338-2.523-2.96
				c-0.509-0.283-1.059-0.396-1.64-0.36c-0.581,0.042-1.013,0.293-1.264,0.781c-0.181,0.324-0.216,0.684-0.083,1.1
				c0.129,0.406,0.272,0.725,0.468,0.951c0.186,0.236,0.442,0.519,0.781,0.874l1.033,1.032c1.207,1.213,2.004,2.431,2.39,3.649
				c0.385,1.207,0.19,2.518-0.565,3.905c-1.223,2.251-2.78,3.566-4.636,3.946c-2.014,0.417-4.09,0.031-6.218-1.136
				C67.132-38.587,65.344-40.473,64.085-42.991z"/>
			<path fill="#FFFFFF" d="M95.175-40.432L98.5-43.7l10.222,10.392l-3.32,3.268l-3.181-3.242L90.468-21.716l-3.849-3.91
				l11.742-11.562L95.175-40.432z"/>
		</g>
	</g>
</g>
<g id="ovarian">
	<path id="bg-ovarian" fill="#FFFFFF" d="M156.647,33.194l-0.108-0.057c0,68.779-55.757,124.537-124.532,124.537
		c-68.789,0-124.547-55.758-124.547-124.537l0.72,0.057l60.675-0.057c0,34.883,28.27,63.157,63.152,63.157
		c34.873,0,63.147-28.274,63.147-63.157L156.647,33.194z"/>
	<g>
		<g>
			<path fill="#D60470" d="M109.821,79.383c1.624,1.306,2.733,2.898,3.366,4.825c0.611,1.907,0.725,3.845,0.318,5.797
				c-0.416,1.953-1.265,3.721-2.528,5.304c-1.279,1.593-2.816,2.79-4.646,3.607c-1.819,0.817-3.736,1.131-5.73,0.94
				c-1.999-0.2-3.808-0.956-5.427-2.246c-2.667-2.152-4.157-4.764-4.48-7.831c-0.313-3.089,0.586-5.936,2.724-8.588
				c2.127-2.641,4.738-4.146,7.801-4.501C104.297,76.341,107.164,77.256,109.821,79.383z M106.214,83.828
				c-1.393-1.125-2.935-1.619-4.595-1.47c-1.665,0.144-3.021,0.858-4.069,2.163c-1.033,1.306-1.455,2.775-1.244,4.425
				c0.221,1.665,1.028,3.053,2.426,4.193c1.156,0.92,2.538,1.274,4.152,1.054c1.608-0.216,2.914-0.961,3.941-2.226
				c1.018-1.269,1.459-2.708,1.32-4.321S107.37,84.748,106.214,83.828z"/>
			<path fill="#D60470" d="M96.876,109.543l-4.984,3.32l-11.353-7.868l2.837,13.526l-4.964,3.319L74.214,99.24l3.551-2.375
				L96.876,109.543z"/>
			<path fill="#D60470" d="M66.51,104.307l-1.397,22.611l-5.725,1.799l-13.952-17.76l5.591-1.758l2.426,3.078l7.22-2.271
				l0.272-3.937L66.51,104.307z M60.472,114.477l-4.362,1.367l4.162,5.735l0.057-0.011L60.472,114.477z"/>
			<path fill="#D60470" d="M39.238,111.357l-0.16,21.132l-8.212-0.067c-2.21-0.016-3.967-0.565-5.313-1.654
				c-1.347-1.095-1.999-2.729-1.988-4.903c0.015-1.511,0.437-2.815,1.243-3.905c0.827-1.1,1.968-1.772,3.428-2.03l-6.572-8.71
				l6.85,0.057l5.118,8.176h0.067l0.057-8.135L39.238,111.357z M33.657,122.981h-0.535c-2.549-0.025-3.817,0.838-3.833,2.605
				c-0.016,1.753,1.248,2.637,3.792,2.657l0.535,0.016L33.657,122.981z"/>
			<path fill="#D60470" d="M15.783,109.661l-5.03,20.536l-5.34-1.321l5.036-20.53L15.783,109.661z"/>
			<path fill="#D60470" d="M4.272,107.103l-17.164,14.779l-5.277-2.842l2.996-22.4l5.154,2.785l-0.515,3.88l6.666,3.587l3.011-2.533
				L4.272,107.103z M-7.208,109.862l-4.019-2.158l-1.223,6.993l0.051,0.021L-7.208,109.862z"/>
			<path fill="#D60470" d="M-19.963,92.744l-15.746,14.106l-3.669-4.096l2.914-16.131l-0.036-0.041l-9.63,8.617l-3.659-4.096
				l15.751-14.086l3.664,4.097l-2.939,16.131l0.041,0.057l9.656-8.649L-19.963,92.744z"/>
		</g>
	</g>
</g>
</svg>
