<?xml version="1.0" encoding="iso-8859-1"?>
<!-- Generator: Adobe Illustrator 15.1.0, SVG Export PlupathIn . SVG Version: 6.00 Build 0)  -->
<!DOCTYPE svg PUBLIC "-//W3C//DTD SVG 1.1//EN" "http://www.w3.org/Graphics/SVG/1.1/DTD/svg11.dtd">
<svg version="1.1" xmlns="http://www.w3.org/2000/svg" xmlns:xlink="http://www.w3.org/1999/xlink" x="0px" y="0px" width="400px"
	 height="400px" viewBox="0 0 400 400" style="enable-background:new 0 0 400 400;" xml:space="preserve">

<g id="centercopy">
	<text transform="matrix(1 0 0 1 156.2046 193.1543)" style="display:inline;"><tspan x="0" y="0" style="fill:#FFFFFF; font-family:'ITCAvantGardePro-Bold'; font-size:22;">BREA</tspan><tspan x="59.5" y="0" style="fill:#FFFFFF; font-family:'ITCAvantGardePro-Bold'; font-size:22;">S</tspan><tspan x="72.8" y="0" style="fill:#FFFFFF; font-family:'ITCAvantGardePro-Bold'; font-size:22;">T</tspan></text>
	<text transform="matrix(1 0 0 1 148.9004 219.5542)" style="display:inline;"><tspan x="0" y="0" style="fill:#FFFFFF; font-family:'ITCAvantGardePro-Bold'; font-size:22;">C</tspan><tspan x="18.1" y="0" style="fill:#FFFFFF; font-family:'ITCAvantGardePro-Bold'; font-size:22;">ANCE</tspan><tspan x="84" y="0" style="fill:#FFFFFF; font-family:'ITCAvantGardePro-Bold'; font-size:22;">R</tspan></text>
</g>
<g id="pathyou">
	<path style="fill:none;stroke:#D8076D;stroke-width:5;stroke-miterlimit:10;" d="M97.5,90.7C83.3,104,71.8,120,63.6,137.9l0.3,0.2
		l34.2,15.6l0.5,0.2c6.1-13.3,14.6-25.1,25.1-35l0.1-0.1L97.7,90.9L97.5,90.7z"/>
</g>
<g id="pathpartner">
	<path style="fill:none;stroke:#D8076D;stroke-width:5;stroke-miterlimit:10;" d="M107.7,263.3l-31.6,21.4l-0.2,0.1
		C59.6,260.8,50,231.7,50,200.4c0-22.3,4.9-43.5,13.6-62.5l0.3,0.1l34.5,15.8l0.2,0.1c-6.5,14.2-10.1,29.9-10.1,46.5
		c0,23.3,7.1,44.9,19.3,62.8L107.7,263.3z"/>
</g>
<g id="pathfriend">
	<path style="fill:none;stroke:#D8076D;stroke-width:5;stroke-miterlimit:10;" d="M200.4,350.8c-51.8,0-97.4-26.1-124.5-65.9
		l0.4-0.3l31-21l0.5-0.3c20.1,29.6,54.1,49,92.6,49 M200.4,350.8c12.2,0,24.1-1.5,35.5-4.2l-0.1-0.6l-8.8-36.4l-0.1-0.5
		c-8.5,2.1-17.3,3.1-26.4,3.1"/>
</g>
<g id="pathmaid">
	<path style="fill:none;stroke:#D8076D;stroke-width:5;stroke-miterlimit:10;" d="M226.8,309.1c35.2-8.5,63.9-33.7,77.3-66.7
		l0.8,0.3l34.3,13.9l0.6,0.3c-18,44.4-56.6,78.2-103.9,89.7l-0.2-1l-8.8-36.3L226.8,309.1z"/>
</g>
<g id="pathmom">
	<path style="fill:none;stroke:#D8076D;stroke-width:5;stroke-miterlimit:10;" d="M350.8,200.4c0,20-3.9,39-11,56.5l-0.8-0.3
		l-34.6-14l-0.3-0.1c5.3-13,8.2-27.2,8.2-42 M350.8,200.4c0-1.6,0-3.1-0.1-4.7h-0.6l-37.1,1.2l-0.9,0c0,1.1,0.1,2.3,0.1,3.5"/>
</g>
<g id="pathsister">
	<path style="fill:none;stroke:#D8076D;stroke-width:5;stroke-miterlimit:10;" d="M300,87.7l-0.4,0.5l-24.8,28l-0.3,0.4
		c22.4,19.8,36.8,48.4,37.7,80.4l0.3,0l37.6-1.2l0.6,0C349.4,152.8,330.1,114.3,300,87.7z"/>
</g>
<g id="pathwork">
	<path style="fill:none;stroke:#D8076D;stroke-width:5;stroke-miterlimit:10;" d="M200.4,50.3v37.7v0.5c28.4,0,54.4,10.6,74.1,28
		l0.5-0.5l24.7-27.9l0.4-0.4C273.5,64.2,238.6,50,200.4,50V50.3z"/>
</g>
<g id="pathgirl">
	<path style="fill:none;stroke:#D8076D;stroke-width:5;stroke-miterlimit:10;" d="M97.6,90.8l26.2,28l0.1-0.1
		c20-18.7,46.9-30.2,76.4-30.2V88V50.4V50c-39.8,0-76,15.5-102.9,40.7L97.6,90.8z"/>
</g>
<g id="you">
	
		<text transform="matrix(0.5263 -0.8503 0.8503 0.5263 90.7754 136.8696)" style="fill:#D8076D; font-family:'ITCAvantGardePro-Bold'; font-size:11;">Y</text>
	
		<text transform="matrix(0.5769 -0.8168 0.8168 0.5769 94.2783 131.3115)" style="fill:#D8076D; font-family:'ITCAvantGardePro-Bold'; font-size:11;">O</text>
	
		<text transform="matrix(0.6296 -0.7769 0.7769 0.6296 99.6309 123.7827)" style="fill:#D8076D; font-family:'ITCAvantGardePro-Bold'; font-size:11;">U</text>
</g>
<g id="partner">
	
		<text transform="matrix(-0.4367 -0.8996 0.8996 -0.4367 87.9585 258.6997)" style="fill:#D8076D; font-family:'ITCAvantGardePro-Bold'; font-size:11;">P</text>
	
		<text transform="matrix(-0.3887 -0.9214 0.9214 -0.3887 85.4111 253.397)" style="fill:#D8076D; font-family:'ITCAvantGardePro-Bold'; font-size:11;">A</text>
	
		<text transform="matrix(-0.332 -0.9433 0.9433 -0.332 82.1724 245.7778)" style="fill:#D8076D; font-family:'ITCAvantGardePro-Bold'; font-size:11;">R</text>
	
		<text transform="matrix(-0.2868 -0.958 0.958 -0.2868 79.9106 239.3599)" style="fill:#D8076D; font-family:'ITCAvantGardePro-Bold'; font-size:11;">T</text>
	
		<text transform="matrix(-0.2344 -0.9721 0.9721 -0.2344 78.2651 234.2437)" style="fill:#D8076D; font-family:'ITCAvantGardePro-Bold'; font-size:11;">N</text>
	
		<text transform="matrix(-0.1805 -0.9836 0.9836 -0.1805 76.4453 226.2896)" style="fill:#D8076D; font-family:'ITCAvantGardePro-Bold'; font-size:11;">E</text>
	
		<text transform="matrix(-0.1304 -0.9915 0.9915 -0.1304 75.3618 220.6538)" style="fill:#D8076D; font-family:'ITCAvantGardePro-Bold'; font-size:11;">R</text>
	
		<text transform="matrix(-8.965001e-02 -0.996 0.996 -8.965001e-02 74.4229 213.5806)" style="fill:#D8076D; font-family:'ITCAvantGardePro-Bold'; font-size:11;"> </text>
	
		<text transform="matrix(-6.285000e-02 -0.998 0.998 -6.285000e-02 74.2041 210.313)" style="fill:#D8076D; font-family:'ITCAvantGardePro-Bold'; font-size:11;">I</text>
	
		<text transform="matrix(-1.722000e-02 -0.9999 0.9999 -1.722000e-02 73.8838 206.7954)" style="fill:#D8076D; font-family:'ITCAvantGardePro-Bold'; font-size:11;">N</text>
	
		<text transform="matrix(2.769000e-02 -0.9996 0.9996 2.769000e-02 73.8467 198.4927)" style="fill:#D8076D; font-family:'ITCAvantGardePro-Bold'; font-size:11;"> </text>
	
		<text transform="matrix(7.586000e-02 -0.9971 0.9971 7.586000e-02 73.8311 195.1782)" style="fill:#D8076D; font-family:'ITCAvantGardePro-Bold'; font-size:11;">C</text>
	
		<text transform="matrix(0.1388 -0.9903 0.9903 0.1388 74.5205 186.2456)" style="fill:#D8076D; font-family:'ITCAvantGardePro-Bold'; font-size:11;">R</text>
	
		<text transform="matrix(0.1801 -0.9836 0.9836 0.1801 75.5625 179.1924)" style="fill:#D8076D; font-family:'ITCAvantGardePro-Bold'; font-size:11;">I</text>
	
		<text transform="matrix(0.2322 -0.9727 0.9727 0.2322 76.084 175.7632)" style="fill:#D8076D; font-family:'ITCAvantGardePro-Bold'; font-size:11;">M</text>
	
		<text transform="matrix(0.2922 -0.9564 0.9564 0.2922 78.4775 166.146)" style="fill:#D8076D; font-family:'ITCAvantGardePro-Bold'; font-size:11;">E</text>
</g>
<g id="friend">
	
		<text transform="matrix(-0.9957 9.219000e-02 -9.219000e-02 -0.9957 215.0049 326.1841)" style="fill:#D8076D; font-family:'ITCAvantGardePro-Bold'; font-size:11;">F</text>
	
		<text transform="matrix(-0.9991 4.312000e-02 -4.312000e-02 -0.9991 209.5244 326.7222)" style="fill:#D8076D; font-family:'ITCAvantGardePro-Bold'; font-size:11;">R</text>
	
		<text transform="matrix(-0.9999 1.621000e-02 -1.621000e-02 -0.9999 202.4385 326.9487)" style="fill:#D8076D; font-family:'ITCAvantGardePro-Bold'; font-size:11;">I</text>
	
		<text transform="matrix(-0.9994 -3.363000e-02 3.363000e-02 -0.9994 199.0283 327.0171)" style="fill:#D8076D; font-family:'ITCAvantGardePro-Bold'; font-size:11;">E</text>
	
		<text transform="matrix(-0.9961 -8.807000e-02 8.807000e-02 -0.9961 193.2788 326.9028)" style="fill:#D8076D; font-family:'ITCAvantGardePro-Bold'; font-size:11;">N</text>
	
		<text transform="matrix(-0.9884 -0.1516 0.1516 -0.9884 185.085 326.0688)" style="fill:#D8076D; font-family:'ITCAvantGardePro-Bold'; font-size:11;">D</text>
	
		<text transform="matrix(-0.9805 -0.1966 0.1966 -0.9805 176.8828 324.7544)" style="fill:#D8076D; font-family:'ITCAvantGardePro-Bold'; font-size:11;">-</text>
	
		<text transform="matrix(-0.9707 -0.2401 0.2401 -0.9707 173.9258 324.2417)" style="fill:#D8076D; font-family:'ITCAvantGardePro-Bold'; font-size:11;">A</text>
	
		<text transform="matrix(-0.9569 -0.2903 0.2903 -0.9569 166.2251 322.2983)" style="fill:#D8076D; font-family:'ITCAvantGardePro-Bold'; font-size:11;">T</text>
	
		<text transform="matrix(-0.9487 -0.3162 0.3162 -0.9487 161.7695 321.0151)" style="fill:#D8076D; font-family:'ITCAvantGardePro-Bold'; font-size:11;">-</text>
	
		<text transform="matrix(-0.9374 -0.3481 0.3481 -0.9374 158.8789 320.0825)" style="fill:#D8076D; font-family:'ITCAvantGardePro-Bold'; font-size:11;">F</text>
	
		<text transform="matrix(-0.9244 -0.3814 0.3814 -0.9244 153.8213 318.1489)" style="fill:#D8076D; font-family:'ITCAvantGardePro-Bold'; font-size:11;">I</text>
	
		<text transform="matrix(-0.9075 -0.42 0.42 -0.9075 150.5605 316.8774)" style="fill:#D8076D; font-family:'ITCAvantGardePro-Bold'; font-size:11;">R</text>
	
		<text transform="matrix(-0.8842 -0.4672 0.4672 -0.8842 144.126 313.8979)" style="fill:#D8076D; font-family:'ITCAvantGardePro-Bold'; font-size:11;">S</text>
	
		<text transform="matrix(-0.8618 -0.5073 0.5073 -0.8618 138.6655 311.0024)" style="fill:#D8076D; font-family:'ITCAvantGardePro-Bold'; font-size:11;">T</text>
	
		<text transform="matrix(-0.8479 -0.5302 0.5302 -0.8479 134.6953 308.6099)" style="fill:#D8076D; font-family:'ITCAvantGardePro-Bold'; font-size:11;">-</text>
	
		<text transform="matrix(-0.8272 -0.562 0.562 -0.8272 131.9722 306.9497)" style="fill:#D8076D; font-family:'ITCAvantGardePro-Bold'; font-size:11;">S</text>
	
		<text transform="matrix(-0.8052 -0.593 0.593 -0.8052 126.8145 303.4722)" style="fill:#D8076D; font-family:'ITCAvantGardePro-Bold'; font-size:11;">I</text>
	
		<text transform="matrix(-0.7743 -0.6327 0.6327 -0.7743 123.998 301.4946)" style="fill:#D8076D; font-family:'ITCAvantGardePro-Bold'; font-size:11;">G</text>
	
		<text transform="matrix(-0.7294 -0.6841 0.6841 -0.7294 116.8442 295.561)" style="fill:#D8076D; font-family:'ITCAvantGardePro-Bold'; font-size:11;">H</text>
	
		<text transform="matrix(-0.6919 -0.722 0.722 -0.6919 110.9253 289.9917)" style="fill:#D8076D; font-family:'ITCAvantGardePro-Bold'; font-size:11;">T</text>
</g>
<g id="maid">
	
		<text transform="matrix(-0.5001 0.8659 -0.8659 -0.5001 312.5957 259.1997)" style="fill:#D8076D; font-family:'ITCAvantGardePro-Bold'; font-size:11;">M</text>
	
		<text transform="matrix(-0.5607 0.828 -0.828 -0.5607 307.6475 267.8794)" style="fill:#D8076D; font-family:'ITCAvantGardePro-Bold'; font-size:11;">A</text>
	
		<text transform="matrix(-0.5983 0.8013 -0.8013 -0.5983 302.9707 274.6108)" style="fill:#D8076D; font-family:'ITCAvantGardePro-Bold'; font-size:11;">I</text>
	
		<text transform="matrix(-0.6341 0.7733 -0.7733 -0.6341 300.957 277.4634)" style="fill:#D8076D; font-family:'ITCAvantGardePro-Bold'; font-size:11;">D</text>
	
		<text transform="matrix(-0.7039 0.7102 -0.7102 -0.7039 293.5977 286.1753)" style="fill:#D8076D; font-family:'ITCAvantGardePro-Bold'; font-size:10.9999;">O</text>
	
		<text transform="matrix(-0.7436 0.6686 -0.6686 -0.7436 287.0791 292.7407)" style="fill:#D8076D; font-family:'ITCAvantGardePro-Bold'; font-size:11;">F</text>
	
		<text transform="matrix(-0.7664 0.6424 -0.6424 -0.7664 282.9492 296.3647)" style="fill:#D8076D; font-family:'ITCAvantGardePro-Bold'; font-size:11;"> </text>
	
		<text transform="matrix(-0.7946 0.6071 -0.6071 -0.7946 280.4355 298.5005)" style="fill:#D8076D; font-family:'ITCAvantGardePro-Bold'; font-size:11;">H</text>
	
		<text transform="matrix(-0.8343 0.5514 -0.5514 -0.8343 274.0293 303.4341)" style="fill:#D8076D; font-family:'ITCAvantGardePro-Bold'; font-size:11;">O</text>
	
		<text transform="matrix(-0.8703 0.4926 -0.4926 -0.8703 266.2168 308.5806)" style="fill:#D8076D; font-family:'ITCAvantGardePro-Bold'; font-size:11;">N</text>
	
		<text transform="matrix(-0.9022 0.4313 -0.4313 -0.9022 259.1846 312.6919)" style="fill:#D8076D; font-family:'ITCAvantGardePro-Bold'; font-size:11;">O</text>
	
		<text transform="matrix(-0.9282 0.3722 -0.3722 -0.9282 250.8281 316.5942)" style="fill:#D8076D; font-family:'ITCAvantGardePro-Bold'; font-size:11;">R</text>
</g>
<g id="mom">
	
		<text transform="matrix(-0.1071 0.9942 -0.9942 -0.1071 326.7402 209.1274)" style="fill:#D8076D; font-family:'ITCAvantGardePro-Bold'; font-size:11;">M</text>
	
		<text transform="matrix(-0.182 0.9833 -0.9833 -0.182 325.6504 218.9995)" style="fill:#D8076D; font-family:'ITCAvantGardePro-Bold'; font-size:11;">O</text>
	
		<text transform="matrix(-0.2561 0.9666 -0.9666 -0.2561 324.0371 228.02)" style="fill:#D8076D; font-family:'ITCAvantGardePro-Bold'; font-size:11;">M</text>
</g>
<g id="sister">
	
		<text transform="matrix(0.6562 0.7546 -0.7546 0.6562 293.832 114.9995)" style="fill:#D8076D; font-family:'ITCAvantGardePro-Bold'; font-size:11;">S</text>
	
		<text transform="matrix(0.627 0.779 -0.779 0.627 297.9707 119.7759)" style="fill:#D8076D; font-family:'ITCAvantGardePro-Bold'; font-size:11;">I</text>
	
		<text transform="matrix(0.5968 0.8024 -0.8024 0.5968 300.1577 122.4038)" style="fill:#D8076D; font-family:'ITCAvantGardePro-Bold'; font-size:11;">S</text>
	
		<text transform="matrix(0.5595 0.8288 -0.8288 0.5595 303.8169 127.4165)" style="fill:#D8076D; font-family:'ITCAvantGardePro-Bold'; font-size:11;">T</text>
	
		<text transform="matrix(0.5225 0.8526 -0.8526 0.5225 306.8438 131.9185)" style="fill:#D8076D; font-family:'ITCAvantGardePro-Bold'; font-size:11;">E</text>
	
		<text transform="matrix(0.4789 0.8779 -0.8779 0.4789 309.916 136.7681)" style="fill:#D8076D; font-family:'ITCAvantGardePro-Bold'; font-size:11;">R</text>
	
		<text transform="matrix(0.4433 0.8964 -0.8964 0.4433 313.2832 143.0044)" style="fill:#D8076D; font-family:'ITCAvantGardePro-Bold'; font-size:11;">-</text>
	
		<text transform="matrix(0.4198 0.9076 -0.9076 0.4198 314.5566 145.7417)" style="fill:#D8076D; font-family:'ITCAvantGardePro-Bold'; font-size:11;">I</text>
	
		<text transform="matrix(0.3772 0.9261 -0.9261 0.3772 316.0435 148.8188)" style="fill:#D8076D; font-family:'ITCAvantGardePro-Bold'; font-size:11;">N</text>
	
		<text transform="matrix(0.3353 0.9421 -0.9421 0.3353 319.1562 156.5571)" style="fill:#D8076D; font-family:'ITCAvantGardePro-Bold'; font-size:11;">-</text>
	
		<text transform="matrix(0.304 0.9527 -0.9527 0.304 320.1738 159.3696)" style="fill:#D8076D; font-family:'ITCAvantGardePro-Bold'; font-size:11;">L</text>
	
		<text transform="matrix(0.2499 0.9683 -0.9683 0.2499 321.9858 164.6177)" style="fill:#D8076D; font-family:'ITCAvantGardePro-Bold'; font-size:11;">A</text>
	
		<text transform="matrix(0.1818 0.9833 -0.9833 0.1818 323.9048 171.9497)" style="fill:#D8076D; font-family:'ITCAvantGardePro-Bold'; font-size:11;">W</text>
</g>
<g id="work">
	
		<text transform="matrix(0.9895 0.1444 -0.1444 0.9895 213.5146 74.4399)" style="fill:#D8076D; font-family:'ITCAvantGardePro-Bold'; font-size:11;">W</text>
	
		<text transform="matrix(0.9755 0.22 -0.22 0.9755 223.8481 75.9048)" style="fill:#D8076D; font-family:'ITCAvantGardePro-Bold'; font-size:11;">O</text>
	
		<text transform="matrix(0.9592 0.2827 -0.2827 0.9592 232.812 77.9673)" style="fill:#D8076D; font-family:'ITCAvantGardePro-Bold'; font-size:11;">R</text>
	
		<text transform="matrix(0.941 0.3384 -0.3384 0.941 239.6025 79.9351)" style="fill:#D8076D; font-family:'ITCAvantGardePro-Bold'; font-size:11;">K</text>
	
		<text transform="matrix(0.927 0.375 -0.375 0.927 246.3433 82.4341)" style="fill:#D8076D; font-family:'ITCAvantGardePro-Bold'; font-size:11;">-</text>
	
		<text transform="matrix(0.9066 0.422 -0.422 0.9066 248.8262 83.3032)" style="fill:#D8076D; font-family:'ITCAvantGardePro-Bold'; font-size:11;">W</text>
	
		<text transform="matrix(0.8816 0.472 -0.472 0.8816 258.4971 87.9116)" style="fill:#D8076D; font-family:'ITCAvantGardePro-Bold'; font-size:11;">I</text>
	
		<text transform="matrix(0.8643 0.5031 -0.5031 0.8643 261.5801 89.4517)" style="fill:#D8076D; font-family:'ITCAvantGardePro-Bold'; font-size:11;">F</text>
	
		<text transform="matrix(0.8411 0.5408 -0.5408 0.8411 266.2754 92.312)" style="fill:#D8076D; font-family:'ITCAvantGardePro-Bold'; font-size:11;">E</text>
</g>
<g id="girl">
	
		<text transform="matrix(0.813 -0.5823 0.5823 0.813 122.9707 100.1733)" style="fill:#D8076D; font-family:'ITCAvantGardePro-Bold'; font-size:11;">G</text>
	
		<text transform="matrix(0.8411 -0.5408 0.5408 0.8411 130.5381 94.7446)" style="fill:#D8076D; font-family:'ITCAvantGardePro-Bold'; font-size:11;">I</text>
	
		<text transform="matrix(0.863 -0.5052 0.5052 0.863 133.4424 92.9346)" style="fill:#D8076D; font-family:'ITCAvantGardePro-Bold'; font-size:11;">R</text>
	
		<text transform="matrix(0.8866 -0.4625 0.4625 0.8866 139.5137 89.3374)" style="fill:#D8076D; font-family:'ITCAvantGardePro-Bold'; font-size:11;">L</text>
	
		<text transform="matrix(0.9019 -0.4319 0.4319 0.9019 144.3232 86.896)" style="fill:#D8076D; font-family:'ITCAvantGardePro-Bold'; font-size:11;"> </text>
	
		<text transform="matrix(0.922 -0.3871 0.3871 0.922 147.2451 85.4609)" style="fill:#D8076D; font-family:'ITCAvantGardePro-Bold'; font-size:11;">C</text>
	
		<text transform="matrix(0.9449 -0.3275 0.3275 0.9449 155.54 81.9932)" style="fill:#D8076D; font-family:'ITCAvantGardePro-Bold'; font-size:11;">R</text>
	
		<text transform="matrix(0.9626 -0.271 0.271 0.9626 162.2783 79.6084)" style="fill:#D8076D; font-family:'ITCAvantGardePro-Bold'; font-size:11;">U</text>
	
		<text transform="matrix(0.976 -0.2179 0.2179 0.976 169.6221 77.6016)" style="fill:#D8076D; font-family:'ITCAvantGardePro-Bold'; font-size:11;">S</text>
	
		<text transform="matrix(0.9868 -0.1619 0.1619 0.9868 175.7051 76.1904)" style="fill:#D8076D; font-family:'ITCAvantGardePro-Bold'; font-size:11;">H</text>
</g>
</svg>
