<svg xmlns="http://www.w3.org/2000/svg" xmlns:xlink="http://www.w3.org/1999/xlink" version="1.1" x="0px" y="0px" width="590px" height="590px" viewBox="0 0 590 590" xml:space="preserve" class="style0">
<style>
	.style0{
		enable-background:	new 0 0 590 590;
	}
	.style1{
		opacity:	0.82;
	}
	.style2{
		overflow:	visible;
	}
	.style3{
		clip-path:	url(#SVGID_2_);
		fill:	none;
		stroke:	#000000;
		stroke-miterlimit:	10;
	}
	.style4{
		opacity:	0.57;
	}
	.style5{
		clip-path:	url(#SVGID_4_);
		fill:	none;
		stroke:	#000000;
		stroke-miterlimit:	10;
	}
	.style6{
		opacity:	0.32;
	}
	.style7{
		clip-path:	url(#SVGID_6_);
		fill:	none;
		stroke:	#000000;
		stroke-miterlimit:	10;
	}
	.style8{
		opacity:	0.9;
		 font-family:	'OstrichSans-Black';
		 font-size:	39.3214;
	}
</style><style type="text/css">


</style>
<g id="Layer_1">
	<g class="style1">
		<defs>
			<path id="SVGID_1_" d="M295 28C147.54 28 28 147.5 28 295c0 147.5 119.5 267 267 267 c147.459 0 267-119.541 267-267C562 147.5 442.5 28 295 28z M295 526.48C167.157 526.5 63.5 422.8 63.5 295 C63.52 167.2 167.2 63.5 295 63.52c127.842 0 231.5 103.6 231.5 231.48C526.48 422.8 422.8 526.5 295 526.48z" class="style1"/>
		</defs>
		<clipPath id="SVGID_2_">
			<use xlink:href="#SVGID_1_" class="style2"/>
		</clipPath>
		<line x1="294.5" y1="28" x2="294.5" y2="93" class="style3"/>
		
			<line x1="225.4" y1="37.2" x2="242.2" y2="100" class="style3"/>
		
			<line x1="161.1" y1="64" x2="193.6" y2="120.3" class="style3"/>
		
			<line x1="105.9" y1="106.6" x2="151.8" y2="152.5" class="style3"/>
		
			<line x1="63.5" y1="161.9" x2="119.8" y2="194.4" class="style3"/>
		
			<line x1="37" y1="226.4" x2="99.8" y2="243.2" class="style3"/>
		<line x1="28" y1="295.5" x2="93" y2="295.5" class="style3"/>
		
			<line x1="37.2" y1="364.6" x2="100" y2="347.8" class="style3"/>
		
			<line x1="64" y1="428.9" x2="120.3" y2="396.4" class="style3"/>
		
			<line x1="106.6" y1="484.2" x2="152.5" y2="438.2" class="style3"/>
		
			<line x1="161.9" y1="526.5" x2="194.4" y2="470.2" class="style3"/>
		
			<line x1="226.4" y1="553" x2="243.2" y2="490.2" class="style3"/>
		
			<line x1="295.5" y1="562" x2="295.5" y2="497" class="style3"/>
		
			<line x1="364.6" y1="552.8" x2="347.8" y2="490" class="style3"/>
		
			<line x1="428.9" y1="526" x2="396.4" y2="469.7" class="style3"/>
		
			<line x1="484.2" y1="483.4" x2="438.2" y2="437.5" class="style3"/>
		
			<line x1="526.5" y1="428.1" x2="470.2" y2="395.6" class="style3"/>
		
			<line x1="553" y1="363.6" x2="490.2" y2="346.8" class="style3"/>
		
			<line x1="562" y1="294.5" x2="497" y2="294.5" class="style3"/>
		
			<line x1="552.8" y1="225.4" x2="490" y2="242.2" class="style3"/>
		
			<line x1="526" y1="161.1" x2="469.7" y2="193.6" class="style3"/>
		
			<line x1="483.4" y1="105.8" x2="437.5" y2="151.8" class="style3"/>
		
			<line x1="428.1" y1="63.5" x2="395.6" y2="119.8" class="style3"/>
		
			<line x1="363.6" y1="37" x2="346.8" y2="99.8" class="style3"/>
	</g>
	<g class="style4">
		<defs>
			<path id="SVGID_3_" d="M295 13C139.255 13 13 139.3 13 295c0 155.7 126.3 282 282 282 c155.743 0 282-126.257 282-282C577 139.3 450.7 13 295 13z M295 539.485C159.975 539.5 50.5 430 50.5 295 C50.515 160 160 50.5 295 50.515c135.024 0 244.5 109.5 244.5 244.5 C539.485 430 430 539.5 295 539.485z" class="style4"/>
		</defs>
		<clipPath id="SVGID_4_">
			<use xlink:href="#SVGID_3_" class="style2"/>
		</clipPath>
		
			<line x1="260.8" y1="30.4" x2="269.2" y2="94.9" class="style5"/>
		
			<line x1="193.5" y1="48.6" x2="218.3" y2="108.6" class="style5"/>
		
			<line x1="133.2" y1="83.5" x2="172.7" y2="135.1" class="style5"/>
		
			<line x1="84" y1="132.9" x2="135.5" y2="172.5" class="style5"/>
		
			<line x1="49.2" y1="193.4" x2="109.3" y2="218.2" class="style5"/>
		
			<line x1="31.3" y1="260.7" x2="95.8" y2="269.2" class="style5"/>
		
			<line x1="31.5" y1="330.4" x2="95.9" y2="321.9" class="style5"/>
		
			<line x1="49.6" y1="397.7" x2="109.7" y2="372.8" class="style5"/>
		
			<line x1="84.6" y1="458" x2="136.2" y2="418.4" class="style5"/>
		
			<line x1="134" y1="507.2" x2="173.5" y2="455.6" class="style5"/>
		
			<line x1="194.4" y1="541.9" x2="219.3" y2="481.9" class="style5"/>
		
			<line x1="261.8" y1="559.9" x2="270.2" y2="495.4" class="style5"/>
		
			<line x1="331.5" y1="559.7" x2="323" y2="495.3" class="style5"/>
		
			<line x1="398.7" y1="541.6" x2="373.9" y2="481.5" class="style5"/>
		
			<line x1="459" y1="506.6" x2="419.5" y2="455" class="style5"/>
		
			<line x1="508.2" y1="457.2" x2="456.7" y2="417.6" class="style5"/>
		
			<line x1="543" y1="396.8" x2="482.9" y2="371.9" class="style5"/>
		
			<line x1="560.9" y1="329.4" x2="496.4" y2="320.9" class="style5"/>
		
			<line x1="560.8" y1="259.7" x2="496.3" y2="268.2" class="style5"/>
		
			<line x1="542.6" y1="192.4" x2="482.5" y2="217.3" class="style5"/>
		
			<line x1="507.6" y1="132.1" x2="456.1" y2="171.7" class="style5"/>
		
			<line x1="458.2" y1="82.9" x2="418.7" y2="134.5" class="style5"/>
		
			<line x1="397.8" y1="48.2" x2="372.9" y2="108.3" class="style5"/>
		
			<line x1="330.5" y1="30.3" x2="322" y2="94.7" class="style5"/>
	</g>
	<g class="style6">
		<defs>
			<path id="SVGID_5_" d="M295 0C132.076 0 0 132.1 0 295c0 162.9 132.1 295 295 295 c162.923 0 295-132.077 295-295C590 132.1 457.9 0 295 0z M295 550.756C153.75 550.8 39.2 436.2 39.2 295 C39.245 153.8 153.8 39.2 295 39.245c141.248 0 255.8 114.5 255.8 255.8 C550.756 436.2 436.2 550.8 295 550.756z" class="style6"/>
		</defs>
		<clipPath id="SVGID_6_">
			<use xlink:href="#SVGID_5_" class="style2"/>
		</clipPath>
		
			<line x1="287.5" y1="28.1" x2="289.2" y2="93.1" class="style7"/>
		
			<line x1="280.5" y1="28.4" x2="283.9" y2="93.3" class="style7"/>
		
			<line x1="273.6" y1="28.9" x2="278.7" y2="93.7" class="style7"/>
		
			<line x1="266.6" y1="29.5" x2="273.4" y2="94.2" class="style7"/>
		
			<line x1="252.7" y1="31.4" x2="262.9" y2="95.6" class="style7"/>
		
			<line x1="245.8" y1="32.6" x2="257.7" y2="96.5" class="style7"/>
		
			<line x1="239" y1="33.9" x2="252.5" y2="97.5" class="style7"/>
		
			<line x1="232.2" y1="35.5" x2="247.4" y2="98.7" class="style7"/>
		
			<line x1="218.7" y1="39.1" x2="237.1" y2="101.5" class="style7"/>
		
			<line x1="212" y1="41.2" x2="232.1" y2="103" class="style7"/>
		
			<line x1="205.4" y1="43.5" x2="227.1" y2="104.8" class="style7"/>
		
			<line x1="198.8" y1="45.9" x2="222.1" y2="106.6" class="style7"/>
		
			<line x1="185.9" y1="51.3" x2="212.4" y2="110.7" class="style7"/>
		
			<line x1="179.6" y1="54.2" x2="207.6" y2="112.9" class="style7"/>
		
			<line x1="173.3" y1="57.3" x2="202.8" y2="115.2" class="style7"/>
		
			<line x1="167.2" y1="60.6" x2="198.2" y2="117.7" class="style7"/>
		
			<line x1="155.1" y1="67.6" x2="189" y2="123" class="style7"/>
		
			<line x1="149.2" y1="71.4" x2="184.6" y2="125.9" class="style7"/>
		
			<line x1="143.4" y1="75.2" x2="180.2" y2="128.8" class="style7"/>
		
			<line x1="137.7" y1="79.3" x2="175.9" y2="131.9" class="style7"/>
		
			<line x1="126.6" y1="87.8" x2="167.5" y2="138.3" class="style7"/>
		
			<line x1="121.2" y1="92.3" x2="163.4" y2="141.7" class="style7"/>
		
			<line x1="116" y1="96.9" x2="159.5" y2="145.2" class="style7"/>
		
			<line x1="110.8" y1="101.7" x2="155.6" y2="148.8" class="style7"/>
		
			<line x1="101" y1="111.6" x2="148.1" y2="156.3" class="style7"/>
		
			<line x1="96.2" y1="116.7" x2="144.5" y2="160.2" class="style7"/>
		
			<line x1="91.6" y1="122" x2="141.1" y2="164.2" class="style7"/>
		
			<line x1="87.2" y1="127.4" x2="137.7" y2="168.3" class="style7"/>
		
			<line x1="78.7" y1="138.5" x2="131.3" y2="176.7" class="style7"/>
		
			<line x1="74.7" y1="144.2" x2="128.2" y2="181" class="style7"/>
		
			<line x1="70.8" y1="150" x2="125.3" y2="185.4" class="style7"/>
		
			<line x1="67.1" y1="155.9" x2="122.5" y2="189.9" class="style7"/>
		
			<line x1="60.1" y1="168" x2="117.2" y2="199.1" class="style7"/>
		
			<line x1="56.9" y1="174.2" x2="114.8" y2="203.8" class="style7"/>
		
			<line x1="53.8" y1="180.5" x2="112.5" y2="208.5" class="style7"/>
		
			<line x1="50.9" y1="186.9" x2="110.3" y2="213.3" class="style7"/>
		
			<line x1="45.5" y1="199.8" x2="106.2" y2="223.1" class="style7"/>
		
			<line x1="43.1" y1="206.4" x2="104.4" y2="228.1" class="style7"/>
		
			<line x1="40.9" y1="213" x2="102.7" y2="233.1" class="style7"/>
		
			<line x1="38.8" y1="219.7" x2="101.2" y2="238.1" class="style7"/>
		
			<line x1="35.3" y1="233.2" x2="98.5" y2="248.3" class="style7"/>
		
			<line x1="33.7" y1="240" x2="97.3" y2="253.5" class="style7"/>
		
			<line x1="32.4" y1="246.8" x2="96.3" y2="258.7" class="style7"/>
		
			<line x1="31.2" y1="253.7" x2="95.4" y2="263.9" class="style7"/>
		
			<line x1="29.4" y1="267.6" x2="94" y2="274.4" class="style7"/>
		
			<line x1="28.8" y1="274.6" x2="93.6" y2="279.7" class="style7"/>
		
			<line x1="28.3" y1="281.5" x2="93.2" y2="284.9" class="style7"/>
		
			<line x1="28.1" y1="288.5" x2="93" y2="290.2" class="style7"/>
		
			<line x1="28.1" y1="302.5" x2="93.1" y2="300.8" class="style7"/>
		
			<line x1="28.4" y1="309.5" x2="93.3" y2="306.1" class="style7"/>
		
			<line x1="28.9" y1="316.4" x2="93.7" y2="311.3" class="style7"/>
		
			<line x1="29.5" y1="323.4" x2="94.2" y2="316.6" class="style7"/>
		
			<line x1="31.4" y1="337.3" x2="95.6" y2="327.1" class="style7"/>
		
			<line x1="32.6" y1="344.1" x2="96.5" y2="332.3" class="style7"/>
		
			<line x1="33.9" y1="351" x2="97.5" y2="337.5" class="style7"/>
		
			<line x1="35.5" y1="357.8" x2="98.7" y2="342.6" class="style7"/>
		
			<line x1="39.1" y1="371.3" x2="101.5" y2="352.9" class="style7"/>
		
			<line x1="41.2" y1="378" x2="103" y2="357.9" class="style7"/>
		
			<line x1="43.5" y1="384.6" x2="104.8" y2="362.9" class="style7"/>
		
			<line x1="45.9" y1="391.2" x2="106.6" y2="367.9" class="style7"/>
		
			<line x1="51.3" y1="404.1" x2="110.7" y2="377.6" class="style7"/>
		
			<line x1="54.2" y1="410.4" x2="112.9" y2="382.4" class="style7"/>
		
			<line x1="57.3" y1="416.7" x2="115.2" y2="387.2" class="style7"/>
		
			<line x1="60.6" y1="422.8" x2="117.7" y2="391.8" class="style7"/>
		
			<line x1="67.6" y1="434.9" x2="123" y2="401" class="style7"/>
		
			<line x1="71.3" y1="440.8" x2="125.9" y2="405.4" class="style7"/>
		
			<line x1="75.2" y1="446.6" x2="128.8" y2="409.8" class="style7"/>
		
			<line x1="79.3" y1="452.4" x2="131.9" y2="414.1" class="style7"/>
		
			<line x1="87.8" y1="463.4" x2="138.3" y2="422.5" class="style7"/>
		
			<line x1="92.3" y1="468.8" x2="141.7" y2="426.6" class="style7"/>
		
			<line x1="96.9" y1="474" x2="145.2" y2="430.5" class="style7"/>
		
			<line x1="101.7" y1="479.2" x2="148.8" y2="434.4" class="style7"/>
		
			<line x1="111.6" y1="489" x2="156.3" y2="441.9" class="style7"/>
		
			<line x1="116.7" y1="493.8" x2="160.2" y2="445.5" class="style7"/>
		
			<line x1="122" y1="498.4" x2="164.2" y2="448.9" class="style7"/>
		
			<line x1="127.4" y1="502.8" x2="168.3" y2="452.3" class="style7"/>
		
			<line x1="138.5" y1="511.3" x2="176.7" y2="458.7" class="style7"/>
		
			<line x1="144.2" y1="515.3" x2="181" y2="461.8" class="style7"/>
		
			<line x1="150" y1="519.2" x2="185.4" y2="464.7" class="style7"/>
		
			<line x1="155.9" y1="522.9" x2="189.9" y2="467.5" class="style7"/>
		
			<line x1="168" y1="529.9" x2="199" y2="472.8" class="style7"/>
		
			<line x1="174.2" y1="533.1" x2="203.7" y2="475.2" class="style7"/>
		
			<line x1="180.5" y1="536.2" x2="208.5" y2="477.6" class="style7"/>
		
			<line x1="186.9" y1="539.1" x2="213.3" y2="479.8" class="style7"/>
		
			<line x1="199.8" y1="544.5" x2="223.1" y2="483.8" class="style7"/>
		
			<line x1="206.3" y1="546.9" x2="228" y2="485.6" class="style7"/>
		
			<line x1="213" y1="549.1" x2="233" y2="487.3" class="style7"/>
		
			<line x1="219.6" y1="551.2" x2="238.1" y2="488.8" class="style7"/>
		
			<line x1="233.2" y1="554.8" x2="248.3" y2="491.6" class="style7"/>
		
			<line x1="240" y1="556.3" x2="253.5" y2="492.7" class="style7"/>
		
			<line x1="246.8" y1="557.6" x2="258.7" y2="493.7" class="style7"/>
		
			<line x1="253.7" y1="558.8" x2="263.9" y2="494.6" class="style7"/>
		
			<line x1="267.6" y1="560.6" x2="274.4" y2="496" class="style7"/>
		
			<line x1="274.5" y1="561.2" x2="279.6" y2="496.4" class="style7"/>
		
			<line x1="281.5" y1="561.7" x2="284.9" y2="496.8" class="style7"/>
		
			<line x1="288.5" y1="561.9" x2="290.2" y2="497" class="style7"/>
		
			<line x1="302.5" y1="561.9" x2="300.8" y2="496.9" class="style7"/>
		
			<line x1="309.5" y1="561.6" x2="306.1" y2="496.7" class="style7"/>
		
			<line x1="316.4" y1="561.1" x2="311.3" y2="496.3" class="style7"/>
		
			<line x1="323.4" y1="560.5" x2="316.6" y2="495.8" class="style7"/>
		
			<line x1="337.3" y1="558.6" x2="327.1" y2="494.4" class="style7"/>
		
			<line x1="344.1" y1="557.4" x2="332.3" y2="493.5" class="style7"/>
		
			<line x1="351" y1="556.1" x2="337.5" y2="492.5" class="style7"/>
		
			<line x1="357.8" y1="554.5" x2="342.6" y2="491.3" class="style7"/>
		
			<line x1="371.3" y1="550.9" x2="352.8" y2="488.5" class="style7"/>
		
			<line x1="378" y1="548.8" x2="357.9" y2="487" class="style7"/>
		
			<line x1="384.6" y1="546.5" x2="362.9" y2="485.2" class="style7"/>
		
			<line x1="391.1" y1="544.1" x2="367.9" y2="483.4" class="style7"/>
		
			<line x1="404.1" y1="538.7" x2="377.6" y2="479.3" class="style7"/>
		
			<line x1="410.4" y1="535.8" x2="382.4" y2="477.1" class="style7"/>
		
			<line x1="416.7" y1="532.7" x2="387.1" y2="474.8" class="style7"/>
		
			<line x1="422.8" y1="529.4" x2="391.8" y2="472.3" class="style7"/>
		
			<line x1="434.9" y1="522.4" x2="401" y2="467" class="style7"/>
		
			<line x1="440.8" y1="518.7" x2="405.4" y2="464.1" class="style7"/>
		
			<line x1="446.6" y1="514.8" x2="409.8" y2="461.2" class="style7"/>
		
			<line x1="452.3" y1="510.7" x2="414.1" y2="458.1" class="style7"/>
		
			<line x1="463.4" y1="502.2" x2="422.5" y2="451.7" class="style7"/>
		
			<line x1="468.8" y1="497.7" x2="426.6" y2="448.3" class="style7"/>
		
			<line x1="474" y1="493.1" x2="430.5" y2="444.8" class="style7"/>
		
			<line x1="479.1" y1="488.3" x2="434.4" y2="441.2" class="style7"/>
		
			<line x1="489" y1="478.4" x2="441.9" y2="433.7" class="style7"/>
		
			<line x1="493.8" y1="473.3" x2="445.4" y2="429.8" class="style7"/>
		
			<line x1="498.3" y1="468" x2="448.9" y2="425.8" class="style7"/>
		
			<line x1="502.8" y1="462.6" x2="452.3" y2="421.7" class="style7"/>
		
			<line x1="511.3" y1="451.5" x2="458.7" y2="413.3" class="style7"/>
		
			<line x1="515.3" y1="445.8" x2="461.8" y2="409" class="style7"/>
		
			<line x1="519.2" y1="440" x2="464.7" y2="404.6" class="style7"/>
		
			<line x1="522.9" y1="434.1" x2="467.5" y2="400.1" class="style7"/>
		
			<line x1="529.9" y1="422" x2="472.8" y2="391" class="style7"/>
		
			<line x1="533.1" y1="415.8" x2="475.2" y2="386.3" class="style7"/>
		
			<line x1="536.2" y1="409.5" x2="477.5" y2="381.5" class="style7"/>
		
			<line x1="539.1" y1="403.2" x2="479.7" y2="376.7" class="style7"/>
		
			<line x1="544.4" y1="390.2" x2="483.8" y2="366.9" class="style7"/>
		
			<line x1="546.8" y1="383.7" x2="485.6" y2="362" class="style7"/>
		
			<line x1="549.1" y1="377" x2="487.3" y2="357" class="style7"/>
		
			<line x1="551.1" y1="370.4" x2="488.8" y2="351.9" class="style7"/>
		
			<line x1="554.7" y1="356.9" x2="491.5" y2="341.7" class="style7"/>
		
			<line x1="556.3" y1="350" x2="492.7" y2="336.5" class="style7"/>
		
			<line x1="557.6" y1="343.2" x2="493.7" y2="331.3" class="style7"/>
		
			<line x1="558.8" y1="336.3" x2="494.6" y2="326.1" class="style7"/>
		
			<line x1="560.6" y1="322.4" x2="495.9" y2="315.6" class="style7"/>
		
			<line x1="561.2" y1="315.5" x2="496.4" y2="310.4" class="style7"/>
		
			<line x1="561.7" y1="308.5" x2="496.7" y2="305.1" class="style7"/>
		
			<line x1="561.9" y1="301.5" x2="496.9" y2="299.8" class="style7"/>
		
			<line x1="561.9" y1="287.5" x2="496.9" y2="289.2" class="style7"/>
		
			<line x1="561.6" y1="280.5" x2="496.7" y2="283.9" class="style7"/>
		
			<line x1="561.1" y1="273.6" x2="496.3" y2="278.7" class="style7"/>
		
			<line x1="560.5" y1="266.6" x2="495.8" y2="273.4" class="style7"/>
		
			<line x1="558.6" y1="252.7" x2="494.4" y2="262.9" class="style7"/>
		
			<line x1="557.4" y1="245.9" x2="493.5" y2="257.7" class="style7"/>
		
			<line x1="556.1" y1="239" x2="492.5" y2="252.5" class="style7"/>
		
			<line x1="554.5" y1="232.2" x2="491.3" y2="247.4" class="style7"/>
		
			<line x1="550.9" y1="218.7" x2="488.5" y2="237.2" class="style7"/>
		
			<line x1="548.8" y1="212" x2="487" y2="232.1" class="style7"/>
		
			<line x1="546.5" y1="205.4" x2="485.2" y2="227.1" class="style7"/>
		
			<line x1="544.1" y1="198.9" x2="483.4" y2="222.1" class="style7"/>
		
			<line x1="538.7" y1="185.9" x2="479.3" y2="212.4" class="style7"/>
		
			<line x1="535.8" y1="179.6" x2="477.1" y2="207.6" class="style7"/>
		
			<line x1="532.7" y1="173.3" x2="474.8" y2="202.9" class="style7"/>
		
			<line x1="529.4" y1="167.2" x2="472.3" y2="198.2" class="style7"/>
		
			<line x1="522.4" y1="155.1" x2="467" y2="189" class="style7"/>
		
			<line x1="518.6" y1="149.2" x2="464.1" y2="184.6" class="style7"/>
		
			<line x1="514.8" y1="143.4" x2="461.2" y2="180.2" class="style7"/>
		
			<line x1="510.7" y1="137.7" x2="458.1" y2="175.9" class="style7"/>
		
			<line x1="502.2" y1="126.6" x2="451.7" y2="167.5" class="style7"/>
		
			<line x1="497.7" y1="121.2" x2="448.3" y2="163.4" class="style7"/>
		
			<line x1="493.1" y1="116" x2="444.8" y2="159.5" class="style7"/>
		
			<line x1="488.3" y1="110.9" x2="441.2" y2="155.6" class="style7"/>
		
			<line x1="478.4" y1="101" x2="433.7" y2="148.1" class="style7"/>
		
			<line x1="473.3" y1="96.3" x2="429.8" y2="144.6" class="style7"/>
		
			<line x1="468" y1="91.7" x2="425.8" y2="141.1" class="style7"/>
		
			<line x1="462.6" y1="87.2" x2="421.7" y2="137.7" class="style7"/>
		
			<line x1="451.5" y1="78.7" x2="413.3" y2="131.3" class="style7"/>
		
			<line x1="445.8" y1="74.7" x2="409" y2="128.3" class="style7"/>
		
			<line x1="440" y1="70.8" x2="404.6" y2="125.3" class="style7"/>
		
			<line x1="434.1" y1="67.1" x2="400.1" y2="122.5" class="style7"/>
		
			<line x1="422" y1="60.1" x2="390.9" y2="117.2" class="style7"/>
		
			<line x1="415.8" y1="56.9" x2="386.3" y2="114.8" class="style7"/>
		
			<line x1="409.5" y1="53.8" x2="381.5" y2="112.5" class="style7"/>
		
			<line x1="403.1" y1="50.9" x2="376.7" y2="110.3" class="style7"/>
		
			<line x1="390.2" y1="45.6" x2="366.9" y2="106.2" class="style7"/>
		
			<line x1="383.6" y1="43.2" x2="362" y2="104.4" class="style7"/>
		
			<line x1="377" y1="40.9" x2="356.9" y2="102.7" class="style7"/>
		
			<line x1="370.3" y1="38.9" x2="351.9" y2="101.2" class="style7"/>
		
			<line x1="356.8" y1="35.3" x2="341.7" y2="98.5" class="style7"/>
		
			<line x1="350" y1="33.7" x2="336.5" y2="97.3" class="style7"/>
		
			<line x1="343.2" y1="32.4" x2="331.3" y2="96.3" class="style7"/>
		
			<line x1="336.3" y1="31.2" x2="326.1" y2="95.4" class="style7"/>
		
			<line x1="322.4" y1="29.4" x2="315.6" y2="94.1" class="style7"/>
		
			<line x1="315.4" y1="28.8" x2="310.3" y2="93.6" class="style7"/>
		
			<line x1="308.5" y1="28.4" x2="305.1" y2="93.3" class="style7"/>
		
			<line x1="301.5" y1="28.1" x2="299.8" y2="93.1" class="style7"/>
	</g>
	<text transform="matrix(1 0 0 1 288.6309 97.4043)" class="style8">0</text>
	
		<text transform="matrix(0.9659 -0.2588 0.2588 0.9659 224.0664 109.4834)" class="style8">230</text>
	
		<text transform="matrix(0.866 -0.5 0.5 0.866 178.4414 134.1885)" class="style8">220</text>
	
		<text transform="matrix(0.7071 -0.7071 0.7071 0.7071 141.9844 168.6465)" class="style8">210</text>
	
		<text transform="matrix(0.5 -0.866 0.866 0.5 113.5073 214.2617)" class="style8">200</text>
	
		<text transform="matrix(0.2588 -0.9659 0.9659 0.2588 99.2529 262.2549)" class="style8">190</text>
	<text transform="matrix(0 -1 1 0 97.3257 314.3223)" class="style8">180</text>
	
		<text transform="matrix(-0.2588 -0.9659 0.9659 -0.2588 109.4014 365.6973)" class="style8">170</text>
	
		<text transform="matrix(-0.5 -0.866 0.866 -0.5 133.3955 410.3125)" class="style8">160</text>
	
		<text transform="matrix(-0.7071 -0.7071 0.7071 -0.7071 168.814 448.2539)" class="style8">150</text>
	
		<text transform="matrix(-0.866 -0.5 0.5 -0.866 212.9214 475.7588)" class="style8">140</text>
	
		<text transform="matrix(-0.9659 -0.2588 0.2588 -0.9659 262.105 490.7744)" class="style8">130</text>
	<text transform="matrix(-1 0 0 -1 313.8535 492.5918)" class="style8">120</text>
	
		<text transform="matrix(-0.9659 0.2588 -0.2588 -0.9659 362.7695 481.4482)" class="style8">110</text>
	
		<text transform="matrix(-0.866 0.5 -0.5 -0.866 410.4121 456.5889)" class="style8">100</text>
	
		<text transform="matrix(-0.7071 0.7071 -0.7071 -0.7071 444.3799 425.1396)" class="style8">90</text>
	
		<text transform="matrix(-0.5 0.866 -0.866 -0.5 473.1729 381.6895)" class="style8">80</text>
	
		<text transform="matrix(-0.2588 0.9659 -0.9659 -0.2588 489.7246 331.875)" class="style8">70</text>
	<text transform="matrix(0 1 -1 0 492.5098 281.313)" class="style8">60</text>
	
		<text transform="matrix(0.2588 0.9659 -0.9659 0.2588 482.3516 230.6782)" class="style8">50</text>
	
		<text transform="matrix(0.5 0.866 -0.866 0.5 459.2158 184.2681)" class="style8">40</text>
	
		<text transform="matrix(0.7071 0.7071 -0.7071 0.7071 425.251 145.8086)" class="style8">30</text>
	
		<text transform="matrix(0.866 0.5 -0.5 0.866 382.2051 117.1685)" class="style8">20</text>
	
		<text transform="matrix(0.9659 0.2588 -0.2588 0.9659 334.8037 101.1235)" class="style8">10</text>
</g>
<g id="Layer_2">
	<g>
		<path d="M182.196 42.595C167.788 50.6 162.8 68.9 171 83.197l30.582 52.969c8.25 14.3 27.4 20.7 42.6 14.3 c0 0 21.857-9.27 50.248-9.27c28.031 0 49.3 8.9 49.3 8.904c15.223 6.4 34.428-0.119 42.678-14.409l30.582-52.971 c8.25-14.29 3.012-32.189-11.64-39.776c0 0-44.21-22.895-110.948-22.895C222.644 20 182.2 42.6 182.2 42.595z"/>
	</g>
</g>
</svg>
